<?xml version="1.0" encoding="UTF-8"?>
<svg id="Capa_1" data-name="Capa 1" xmlns="http://www.w3.org/2000/svg" viewBox="0 0 37.35 38.62">
  <defs>
    <style>
      .cls-1 {
        fill: #7b529d;
      }
    </style>
  </defs>
  <path class="cls-1" d="M11.07,21.95h2.25c.13,0,.24-.11,.24-.24v-3.99c0-.13-.11-.24-.24-.24h-2.25c-.13,0-.24,.11-.24,.24v3.99c0,.13,.11,.24,.24,.24Z"/>
  <path class="cls-1" d="M18.57,24.87s.09,.04,.14,.04c.04,0,.08,0,.11-.03,.08-.04,.13-.12,.13-.21V13.81c0-.1-.06-.18-.14-.22-.09-.04-.19-.02-.26,.04l-4.38,3.91c-.05,.05-.08,.11-.08,.18v3.99c0,.08,.04,.15,.11,.2l4.38,2.97Z"/>
  <path class="cls-1" d="M26.53,19.71c0-1.95-.77-3.77-2.17-5.13-.29-.28-.74-.27-1.02,.01-.28,.29-.27,.75,.01,1.02,1.12,1.09,1.73,2.54,1.73,4.1s-.62,3.01-1.73,4.1c-.14,.14-.22,.32-.22,.52s.07,.37,.2,.5c.14,.15,.33,.22,.52,.22s.36-.07,.5-.2c1.4-1.36,2.17-3.18,2.17-5.13Z"/>
  <path class="cls-1" d="M21.01,23.36c.19,0,.36-.07,.5-.2,.95-.91,1.48-2.13,1.48-3.45s-.52-2.54-1.48-3.45c-.14-.13-.33-.2-.52-.2-.19,0-.37,.08-.51,.22-.13,.14-.2,.32-.2,.52,0,.19,.08,.37,.22,.51,.66,.63,1.03,1.49,1.03,2.4s-.37,1.77-1.03,2.4c-.14,.14-.22,.33-.22,.52s.07,.36,.2,.5c.13,.14,.31,.22,.51,.22h.02Z"/>
</svg>