<?xml version="1.0" encoding="UTF-8"?>
<svg id="Capa_1" data-name="Capa 1" xmlns="http://www.w3.org/2000/svg" viewBox="0 0 37.35 38.62">
  <defs>
    <style>
      .cls-1 {
        fill: #7b529d;
      }
    </style>
  </defs>
  <path class="cls-1" d="M15.75,20.85h.95v2.98c0,.09,.07,.16,.16,.16h.83c.09,0,.16-.07,.16-.16v-4.55c0-.09-.07-.16-.16-.16h-.71c-.09,0-.16,.07-.16,.16,0,0,0,.04-.03,.14-.03,.11-.08,.2-.14,.26-.09,.1-.21,.16-.35,.19-.1,.02-.29,.04-.56,.05-.09,0-.16,.08-.16,.16v.61c0,.09,.07,.16,.16,.16Z"/>
  <path class="cls-1" d="M18.83,23.65c.31,.26,.7,.39,1.17,.39,.58,0,1.03-.19,1.33-.55,.29-.36,.44-.77,.44-1.23,0-.53-.16-.94-.47-1.22-.31-.28-.68-.42-1.09-.42-.21,0-.38,.03-.53,.08-.02,0-.05,.02-.08,.03l.04-.53h1.49c.09,0,.16-.07,.16-.16v-.76c0-.09-.07-.16-.16-.16h-2.44c-.09,0-.16,.07-.16,.15l-.17,2.51s.01,.09,.04,.12c.03,.03,.07,.05,.11,.05l.89,.04c.06,0,.12-.03,.15-.09,.05-.1,.13-.16,.22-.2,.06-.02,.14-.03,.23-.03,.18,0,.29,.05,.37,.17,.09,.13,.13,.3,.13,.5s-.05,.36-.14,.49c-.09,.11-.2,.17-.37,.17-.15,0-.25-.04-.32-.11-.08-.08-.13-.2-.16-.37-.01-.08-.08-.13-.16-.13h-.89s-.09,.02-.12,.05c-.03,.03-.05,.08-.04,.12,.03,.47,.21,.84,.52,1.1Z"/>
  <path class="cls-1" d="M23.59,14.57h-.4s-.07,0-.1,.02v-1.34c0-.44-.36-.81-.8-.81s-.81,.36-.81,.81v1.32s-.03,0-.04,0h-5.52s-.04,0-.06,0v-1.33c0-.44-.36-.81-.81-.81s-.81,.36-.81,.81v1.33s-.05-.01-.08-.01h-.4c-.76,0-1.39,.62-1.39,1.39v8.84c0,.77,.62,1.39,1.39,1.39h9.83c.76,0,1.39-.62,1.39-1.39V15.95c0-.77-.62-1.39-1.39-1.39Zm-1.66-1.32c0-.2,.16-.35,.35-.35s.35,.16,.35,.35v2.42c0,.2-.16,.35-.35,.35s-.35-.16-.35-.35v-2.42Zm-7.24,0c0-.2,.16-.35,.35-.35s.35,.16,.35,.35v2.42c0,.2-.16,.35-.35,.35s-.35-.16-.35-.35v-2.42Zm9.8,11.55c0,.5-.4,.9-.9,.9H13.76c-.5,0-.9-.4-.9-.9V15.95c0-.5,.4-.9,.9-.9h.16v.48c0,.62,.5,1.12,1.12,1.12s1.12-.5,1.12-1.12v-.48h5.04v.48c0,.62,.5,1.12,1.12,1.12s1.12-.5,1.12-1.12v-.48h.16c.5,0,.9,.4,.9,.9v8.84Z"/>
  <path class="cls-1" d="M23.78,18.09H13.62c-.14,0-.24,.11-.24,.24v6.01c0,.46,.38,.84,.84,.84h8.97c.46,0,.84-.38,.84-.84v-6.01c0-.14-.11-.24-.24-.24Zm-.24,6.25c0,.19-.16,.35-.35,.35H14.21c-.19,0-.35-.16-.35-.35v-5.76h9.67v5.76Z"/>
</svg>