<?xml version="1.0" encoding="UTF-8"?>
<svg id="Capa_1" data-name="Capa 1" xmlns="http://www.w3.org/2000/svg" viewBox="0 0 37.35 38.62">
  <defs>
    <style>
      .cls-1 {
        fill: #7b529d;
      }
    </style>
  </defs>
  <path class="cls-1" d="M18.55,17.92c.54-1.27,1.47-1.91,2.86-1.77,1.05,.11,1.93,.9,2.17,1.92,.3,1.29-.18,2.28-1.29,2.99,.05,.04,.1,.07,.15,.11,.72,.52,1.05,1.42,.83,2.27-.22,.85-.95,1.49-1.82,1.6-.09,.01-.17,.02-.26,.02-2.4,0-4.81,0-7.21,0-1.19,0-2.21-.83-2.49-1.99-.31-1.27,.38-2.57,1.61-3.03,.12-.04,.16-.1,.16-.22,0-1.62,1.31-2.96,2.93-2.98,.89,0,1.64,.32,2.25,.98,.03,.03,.05,.06,.08,.09,0,0,.02,0,.03,.01Zm.65,.74c1.33-.06,2.19,.53,2.6,1.78,.81-.28,1.3-1.3,1.06-2.19-.25-.93-1.19-1.53-2.14-1.36-.87,.16-1.6,1.01-1.52,1.77Z"/>
  <path class="cls-1" d="M23.7,20.45c.08,.04,.18,.07,.25,.12,.37,.29,.74,.58,1.1,.88,.19,.15,.22,.38,.08,.55-.14,.16-.35,.18-.54,.03-.37-.29-.74-.59-1.11-.89-.15-.12-.19-.26-.13-.42,.05-.15,.18-.25,.35-.27Z"/>
  <path class="cls-1" d="M22.14,13.95c-.06,.39-.12,.79-.18,1.18-.02,.11-.03,.22-.05,.33-.04,.2-.22,.33-.41,.3-.19-.03-.34-.2-.32-.4,.07-.5,.14-1.01,.23-1.51,.05-.26,.33-.38,.55-.24,.12,.08,.18,.19,.17,.33Z"/>
  <path class="cls-1" d="M17.26,15.32c.08,.03,.16,.06,.23,.11,.38,.3,.76,.6,1.14,.9,.13,.1,.17,.24,.13,.39-.04,.14-.14,.25-.28,.26-.1,0-.22-.01-.29-.07-.39-.3-.78-.61-1.16-.92-.13-.11-.17-.28-.11-.43,.06-.14,.19-.23,.36-.25Z"/>
  <path class="cls-1" d="M24.21,17.86c-.19,0-.34-.11-.38-.28-.04-.19,.05-.36,.24-.44,.34-.14,.68-.27,1.03-.4,.12-.05,.23-.1,.35-.13,.19-.06,.38,.03,.45,.21,.07,.18,.01,.39-.17,.47-.48,.2-.96,.38-1.45,.57-.03,.01-.06,0-.08,0Z"/>
  <path class="cls-1" d="M19.14,14.67c.04-.17,.15-.32,.29-.35,.17-.04,.35,.01,.42,.17,.12,.28,.23,.56,.33,.84,.05,.14-.05,.31-.19,.38-.15,.08-.35,.06-.42-.07-.16-.31-.29-.64-.43-.96Z"/>
  <path class="cls-1" d="M24.67,18.99c.21,.03,.49,.07,.76,.12,.19,.04,.28,.21,.26,.4-.02,.17-.17,.32-.34,.3-.3-.03-.6-.07-.89-.14-.17-.04-.27-.23-.24-.4,.03-.19,.19-.3,.46-.29Z"/>
  <path class="cls-1" d="M23.83,14.99c.1,.08,.22,.14,.29,.23,.08,.11,.07,.26,0,.37-.16,.22-.34,.44-.52,.65-.13,.15-.34,.16-.49,.03-.15-.12-.18-.33-.07-.49,.16-.22,.33-.43,.51-.64,.06-.07,.17-.1,.29-.16Z"/>
</svg>