<?xml version="1.0" encoding="UTF-8"?>
<svg id="Capa_1" data-name="Capa 1" xmlns="http://www.w3.org/2000/svg" viewBox="0 0 37.35 38.62">
  <defs>
    <style>
      .cls-1 {
        fill: #7b529d;
      }
    </style>
  </defs>
  <path class="cls-1" d="M22.4,17.68c.07-.3,.11-.6,.11-.9,0-2.11-1.72-3.83-3.83-3.83s-3.83,1.72-3.83,3.83c0,.3,.04,.61,.11,.9,.1,.62,.24,1.12,.42,1.49,.38,.79,1.96,3.4,2.68,4.58-.98,.13-1.44,.55-1.44,.95,0,.47,.64,.98,2.05,.98s2.05-.51,2.05-.98c0-.4-.46-.82-1.44-.95,.73-1.19,2.31-3.8,2.68-4.58,.17-.37,.32-.87,.42-1.49Zm-.58-.13s0,.02,0,.02c-.09,.56-.22,1.03-.37,1.34-.38,.8-2.11,3.64-2.77,4.71-.65-1.07-2.39-3.91-2.77-4.71-.15-.31-.28-.78-.37-1.34,0,0,0-.02,0-.02-.06-.25-.09-.51-.09-.78,0-1.78,1.45-3.24,3.24-3.24s3.24,1.45,3.24,3.24c0,.26-.03,.52-.09,.78Z"/>
  <path class="cls-1" d="M18.68,14.62c-1.13,0-2.05,.92-2.05,2.05s.92,2.05,2.05,2.05,2.05-.92,2.05-2.05-.92-2.05-2.05-2.05Zm0,3.52c-.81,0-1.46-.66-1.46-1.46s.66-1.46,1.46-1.46,1.46,.66,1.46,1.46-.66,1.46-1.46,1.46Z"/>
</svg>