<?xml version="1.0" encoding="UTF-8"?>
<svg id="Capa_1" data-name="Capa 1" xmlns="http://www.w3.org/2000/svg" viewBox="0 0 37.35 38.62">
  <defs>
    <style>
      .cls-1 {
        fill: #7b529d;
      }
    </style>
  </defs>
  <path class="cls-1" d="M18.82,17.71h0s2.03,0,2.03,0c.11,0,.2-.09,.2-.2v-3.31c0-.11-.09-.2-.2-.2h-4.35c-.11,0-.2,.09-.2,.2v3.31c0,.11,.09,.2,.2,.2h2.03s.3,0,.3,0Zm-2.12-.4v-2.91h3.94v2.91h-3.94Z"/>
  <path class="cls-1" d="M15.5,24.43v-3.31c0-.11-.09-.2-.2-.2h-4.35c-.11,0-.2,.09-.2,.2v3.31c0,.11,.09,.2,.2,.2h4.35c.11,0,.2-.09,.2-.2Zm-.4-.2h-3.94v-2.91h3.94v2.91Z"/>
  <path class="cls-1" d="M16.5,20.91c-.11,0-.2,.09-.2,.2v3.31c0,.11,.09,.2,.2,.2h4.35c.11,0,.2-.09,.2-.2v-3.31c0-.11-.09-.2-.2-.2h-4.35Zm4.15,3.31h-3.94v-2.91h3.94v2.91Z"/>
  <path class="cls-1" d="M22.05,20.91c-.11,0-.2,.09-.2,.2v3.31c0,.11,.09,.2,.2,.2h4.35c.11,0,.2-.09,.2-.2v-3.31c0-.11-.09-.2-.2-.2h-4.35Zm4.15,3.31h-3.94v-2.91h3.94v2.91Z"/>
  <polygon class="cls-1" points="13.24 20.63 13.54 20.63 13.54 19.53 18.53 19.53 18.53 20.63 18.82 20.63 18.82 19.53 23.82 19.53 23.82 20.63 24.11 20.63 24.11 19.23 18.82 19.23 18.82 17.71 18.82 17.71 18.53 17.71 18.53 17.71 18.53 19.23 13.24 19.23 13.24 20.63"/>
</svg>