<?xml version="1.0" encoding="UTF-8"?>
<svg id="Capa_1" data-name="Capa 1" xmlns="http://www.w3.org/2000/svg" viewBox="0 0 37.35 38.62">
  <defs>
    <style>
      .cls-1 {
        fill: #7b529d;
      }
    </style>
  </defs>
  <path class="cls-1" d="M19.93,19.11c-.08-.54-.51-.96-1.05-1.05v-2.45h-.4v2.45c-.6,.1-1.07,.62-1.07,1.25,0,.7,.57,1.26,1.27,1.26,.63,0,1.15-.46,1.25-1.07h3.26v-.4h-3.26Z"/>
  <path class="cls-1" d="M18.68,12.75c-3.62,0-6.56,2.94-6.56,6.56s2.94,6.56,6.56,6.56,6.56-2.94,6.56-6.56-2.94-6.56-6.56-6.56Zm0,12.28c-3.16,0-5.72-2.56-5.72-5.72s2.56-5.72,5.72-5.72,5.72,2.56,5.72,5.72-2.56,5.72-5.72,5.72Z"/>
</svg>