<?xml version="1.0" encoding="UTF-8"?>
<svg id="Capa_1" data-name="Capa 1" xmlns="http://www.w3.org/2000/svg" viewBox="0 0 37.35 38.62">
  <defs>
    <style>
      .cls-1 {
        fill: #7b529d;
      }
    </style>
  </defs>
  <path class="cls-1" d="M22.22,24.68h.99c-.08-.22-.17-.43-.23-.65-.03-.11-.04-.25-.02-.36,.04-.18,.21-.3,.4-.3,.19,0,.35,.07,.42,.25,.18,.46,.36,.92,.52,1.38,.1,.31-.12,.58-.45,.59-.77,0-1.55,0-2.32,0-.4,0-.61-.33-.43-.69,.31-.64,.61-1.28,.94-1.9,.19-.36,.27-.73,.27-1.14-.02-.98,0-1.96,0-2.94v-.17c-.06,.03-.11,.05-.15,.07-1.06,.52-2.12,1.04-3.18,1.57-.2,.1-.38,.1-.59,0-2.14-1.06-4.29-2.12-6.43-3.17-.3-.15-.37-.26-.32-.59,.02-.15,.13-.23,.25-.29,.23-.11,.45-.22,.68-.34,1.95-.96,3.89-1.92,5.84-2.88,.19-.1,.37-.1,.56,0,2.15,1.07,4.31,2.13,6.47,3.19,.31,.15,.42,.41,.27,.66-.06,.1-.16,.18-.26,.23-.69,.35-1.39,.69-2.09,1.03-.1,.05-.14,.1-.14,.22,0,1.34,0,2.68,0,4.02,0,.14-.04,.28-.1,.41-.26,.56-.54,1.11-.81,1.66-.02,.04-.04,.09-.07,.15Zm2.03-7.93c-.05-.03-.08-.05-.1-.06-1.79-.88-3.59-1.77-5.38-2.65-.06-.03-.15-.02-.21,0-1.78,.87-3.56,1.75-5.34,2.63-.04,.02-.08,.04-.13,.07,.05,.03,.07,.04,.09,.05,1.8,.89,3.59,1.77,5.39,2.66,.08,.04,.13,.03,.2,0,.93-.46,1.86-.92,2.79-1.38,.04-.02,.08-.04,.13-.07-.06-.03-.1-.05-.14-.07-.66-.32-1.32-.65-1.98-.97-.06-.03-.12-.06-.17-.09-.16-.11-.22-.32-.16-.5,.06-.19,.22-.32,.42-.31,.09,0,.19,.03,.27,.07,.9,.44,1.8,.88,2.7,1.32,.05,.02,.12,.04,.16,.02,.48-.23,.95-.46,1.45-.71Z"/>
  <path class="cls-1" d="M16.33,21.07c0,.29,.01,.59,0,.88-.02,.33,.13,.57,.38,.77,.35,.27,.77,.42,1.2,.49,.69,.12,1.38,.09,2.04-.14,.27-.09,.53-.22,.74-.41,.21-.18,.32-.4,.31-.69,0-.64,0-1.27,0-1.91,0-.28,.11-.44,.34-.51,.24-.07,.51,.08,.56,.33,.01,.07,.02,.15,.02,.22,0,.59-.02,1.17,0,1.76,.03,.8-.35,1.35-1,1.75-.54,.34-1.14,.5-1.77,.56-.77,.07-1.52,0-2.24-.3-.54-.22-1.01-.53-1.31-1.05-.14-.24-.19-.51-.2-.78,0-.66,0-1.32,0-1.98,0-.19,.06-.35,.23-.46,.28-.17,.65,0,.67,.33,.02,.38,0,.75,0,1.13,0,0,0,0,.01,0Z"/>
</svg>