<?xml version="1.0" encoding="UTF-8"?>
<svg id="Capa_1" data-name="Capa 1" xmlns="http://www.w3.org/2000/svg" viewBox="0 0 37.35 38.62">
  <defs>
    <style>
      .cls-1 {
        fill: #7b529d;
      }
    </style>
  </defs>
  <path class="cls-1" d="M18.68,14.27c-3.29,0-5.96,2.26-5.96,5.04,0,.88,.27,1.74,.78,2.5l-.73,1.73c-.09,.21-.05,.46,.11,.63,.11,.12,.27,.18,.43,.18,.07,0,.13-.01,.2-.03l2.03-.73c.94,.5,2.03,.76,3.15,.76,3.29,0,5.96-2.26,5.96-5.04s-2.67-5.04-5.96-5.04Zm0,8.92c-1.01,0-1.98-.25-2.8-.73-.09-.05-.19-.08-.3-.08-.07,0-.13,.01-.2,.03l-1.03,.37,.34-.81c.08-.2,.05-.42-.08-.59-.48-.62-.74-1.33-.74-2.06,0-2.14,2.15-3.87,4.79-3.87s4.79,1.74,4.79,3.87-2.15,3.87-4.79,3.87Zm2.79-5.23c.23,.23,.22,.6-.01,.83l-1.42,1.38c-.17,.17-.43,.21-.65,.11l-1.53-.7-1.14,1.1c-.11,.11-.26,.17-.41,.17s-.31-.06-.42-.18c-.23-.23-.22-.6,.01-.83l1.42-1.38c.17-.17,.43-.21,.65-.11l1.53,.7,1.14-1.1c.23-.23,.6-.22,.83,.01Z"/>
</svg>