<?xml version="1.0" encoding="UTF-8" standalone="no"?>
<!-- Creator: CorelDRAW X8 -->

<svg
   xmlns:dc="http://purl.org/dc/elements/1.1/"
   xmlns:cc="http://creativecommons.org/ns#"
   xmlns:rdf="http://www.w3.org/1999/02/22-rdf-syntax-ns#"
   xmlns:svg="http://www.w3.org/2000/svg"
   xmlns="http://www.w3.org/2000/svg"
   xmlns:sodipodi="http://sodipodi.sourceforge.net/DTD/sodipodi-0.dtd"
   xmlns:inkscape="http://www.inkscape.org/namespaces/inkscape"
   xml:space="preserve"
   width="138.14886mm"
   height="144.83192mm"
   version="1.1"
   style="clip-rule:evenodd;fill-rule:evenodd;image-rendering:optimizeQuality;shape-rendering:geometricPrecision;text-rendering:geometricPrecision"
   viewBox="0 0 13815.255 14483.468"
   id="svg2"
   inkscape:version="0.91 r13725"
   sodipodi:docname="FridaKahlo3.svg"><metadata
     id="metadata2716"><rdf:RDF><cc:Work
         rdf:about=""><dc:format>image/svg+xml</dc:format><dc:type
           rdf:resource="http://purl.org/dc/dcmitype/StillImage" /><dc:title></dc:title></cc:Work></rdf:RDF></metadata><sodipodi:namedview
     pagecolor="#ffffff"
     bordercolor="#666666"
     borderopacity="1"
     objecttolerance="10"
     gridtolerance="10"
     guidetolerance="10"
     inkscape:pageopacity="0"
     inkscape:pageshadow="2"
     inkscape:window-width="1916"
     inkscape:window-height="1035"
     id="namedview2714"
     showgrid="false"
     inkscape:zoom="0.379728"
     inkscape:cx="88.733912"
     inkscape:cy="133.98659"
     inkscape:window-x="-20"
     inkscape:window-y="0"
     inkscape:window-maximized="0"
     inkscape:current-layer="g2152"
     fit-margin-top="0"
     fit-margin-left="0"
     fit-margin-right="0"
     fit-margin-bottom="0" /><defs
     id="defs4"><style
       type="text/css"
       id="style6"><![CDATA[
    .fil0 {fill:#FDF7F2}
    .fil5 {fill:#F3F5CF}
    .fil1 {fill:#E8EFBE}
    .fil4 {fill:#E1EEDA}
    .fil2 {fill:#D6EACB}
    .fil161 {fill:#02A5E9}
    .fil210 {fill:#0AAFD3}
    .fil193 {fill:#0ACAF2}
    .fil119 {fill:#0D0A0D}
    .fil187 {fill:#0F120F}
    .fil66 {fill:#11AB54}
    .fil38 {fill:#128D30}
    .fil121 {fill:#15456D}
    .fil117 {fill:#15643A}
    .fil112 {fill:#17772A}
    .fil55 {fill:#17B117}
    .fil135 {fill:#19518B}
    .fil86 {fill:#1EA666}
    .fil12 {fill:#201E1F}
    .fil120 {fill:#225522}
    .fil30 {fill:#231D19}
    .fil113 {fill:#238C33}
    .fil132 {fill:#272326}
    .fil123 {fill:#28250B}
    .fil78 {fill:#2BB71A}
    .fil74 {fill:#2C7131}
    .fil48 {fill:#2D734B}
    .fil92 {fill:#2E9031}
    .fil35 {fill:#2E904D}
    .fil44 {fill:#2F7012}
    .fil124 {fill:#2F714E}
    .fil37 {fill:#2FB02F}
    .fil183 {fill:#312E2C}
    .fil40 {fill:#31502D}
    .fil61 {fill:#31AA4F}
    .fil180 {fill:#31C5F8}
    .fil176 {fill:#324D2B}
    .fil130 {fill:#34100B}
    .fil33 {fill:#362719}
    .fil125 {fill:#369639}
    .fil115 {fill:#398A4E}
    .fil26 {fill:#3D469D}
    .fil23 {fill:#444594}
    .fil36 {fill:#453829}
    .fil143 {fill:#453C42}
    .fil179 {fill:#471914}
    .fil25 {fill:#484694}
    .fil85 {fill:#4ACA34}
    .fil131 {fill:#4B7033}
    .fil184 {fill:#4C4F15}
    .fil84 {fill:#4C9131}
    .fil152 {fill:#4D2E16}
    .fil99 {fill:#4EB033}
    .fil63 {fill:#4F2F0D}
    .fil43 {fill:#4F4B12}
    .fil71 {fill:#4F712E}
    .fil75 {fill:#4FB14C}
    .fil178 {fill:#4FB8F0}
    .fil170 {fill:#51322B}
    .fil194 {fill:#526A30}
    .fil65 {fill:#555048}
    .fil144 {fill:#557965}
    .fil208 {fill:#570504}
    .fil13 {fill:#61555A}
    .fil17 {fill:#625156}
    .fil16 {fill:#625159}
    .fil67 {fill:#63926C}
    .fil28 {fill:#655156}
    .fil158 {fill:#66341A}
    .fil181 {fill:#66C8F8}
    .fil129 {fill:#698774}
    .fil77 {fill:#6B5450}
    .fil200 {fill:#6D0B0B}
    .fil105 {fill:#6D140F}
    .fil159 {fill:#6D312E}
    .fil102 {fill:#6D330C}
    .fil198 {fill:#6D6F32}
    .fil127 {fill:#6D8E52}
    .fil64 {fill:#6D9150}
    .fil80 {fill:#6E3529}
    .fil155 {fill:#6E554B}
    .fil59 {fill:#6EB34E}
    .fil76 {fill:#6F6A52}
    .fil58 {fill:#6FB233}
    .fil87 {fill:#704A12}
    .fil57 {fill:#704F2F}
    .fil42 {fill:#70CA50}
    .fil189 {fill:#718655}
    .fil150 {fill:#739586}
    .fil41 {fill:#74536A}
    .fil98 {fill:#767169}
    .fil54 {fill:#8B7071}
    .fil146 {fill:#8C948A}
    .fil141 {fill:#8CB295}
    .fil93 {fill:#8D522E}
    .fil142 {fill:#8D6E54}
    .fil182 {fill:#906F33}
    .fil94 {fill:#90714E}
    .fil49 {fill:#90CD6D}
    .fil136 {fill:#910A0B}
    .fil209 {fill:#918A33}
    .fil191 {fill:#918F4F}
    .fil50 {fill:#91CC52}
    .fil110 {fill:#92CE8D}
    .fil133 {fill:#93241B}
    .fil96 {fill:#938C51}
    .fil108 {fill:#942420}
    .fil109 {fill:#96938A}
    .fil137 {fill:#99BAA7}
    .fil104 {fill:#9EE760}
    .fil202 {fill:#A24F6A}
    .fil111 {fill:#A3E5A6}
    .fil151 {fill:#A89056}
    .fil70 {fill:#A9CF2F}
    .fil188 {fill:#AA6A50}
    .fil192 {fill:#AB6A36}
    .fil69 {fill:#AD938E}
    .fil138 {fill:#ADCEB6}
    .fil52 {fill:#AE6E31}
    .fil185 {fill:#AE9451}
    .fil51 {fill:#AED052}
    .fil72 {fill:#AED26B}
    .fil82 {fill:#AF8C53}
    .fil79 {fill:#AFB251}
    .fil91 {fill:#B0926E}
    .fil107 {fill:#B0E96F}
    .fil205 {fill:#B1132A}
    .fil139 {fill:#B12C2F}
    .fil199 {fill:#B2304E}
    .fil148 {fill:#B2AE72}
    .fil89 {fill:#B5B3A8}
    .fil22 {fill:#B70733}
    .fil122 {fill:#B81417}
    .fil27 {fill:#BC042C}
    .fil128 {fill:#C71927}
    .fil90 {fill:#CCB3AE}
    .fil39 {fill:#CDD454}
    .fil126 {fill:#CE8D5A}
    .fil60 {fill:#CE8F52}
    .fil88 {fill:#CEEF90}
    .fil207 {fill:#D00E2E}
    .fil201 {fill:#D02E30}
    .fil167 {fill:#D04E31}
    .fil32 {fill:#D1302F}
    .fil45 {fill:#D1B38D}
    .fil174 {fill:#D22F4E}
    .fil164 {fill:#D26C32}
    .fil47 {fill:#D3504A}
    .fil153 {fill:#D3F4B2}
    .fil156 {fill:#D4CAAE}
    .fil101 {fill:#D4ECB4}
    .fil168 {fill:#D5977A}
    .fil106 {fill:#D5F4CE}
    .fil68 {fill:#D6D5C7}
    .fil83 {fill:#D8662B}
    .fil73 {fill:#D86E6A}
    .fil196 {fill:#DA2462}
    .fil116 {fill:#DAA575}
    .fil147 {fill:#DFAD53}
    .fil62 {fill:#E1A324}
    .fil154 {fill:#E1CD5D}
    .fil15 {fill:#E4A4B6}
    .fil134 {fill:#E63649}
    .fil163 {fill:#E6AA96}
    .fil114 {fill:#E6BB93}
    .fil177 {fill:#E7A879}
    .fil19 {fill:#E9CEA2}
    .fil100 {fill:#E9EAC9}
    .fil18 {fill:#EACDA1}
    .fil14 {fill:#EACE9F}
    .fil145 {fill:#ECF8C9}
    .fil149 {fill:#EFCFB2}
    .fil195 {fill:#F11131}
    .fil53 {fill:#F1926D}
    .fil97 {fill:#F1CB23}
    .fil211 {fill:#F22E32}
    .fil103 {fill:#F2B68B}
    .fil173 {fill:#F37053}
    .fil203 {fill:#F3AB32}
    .fil166 {fill:#F3BCA4}
    .fil197 {fill:#F4164C}
    .fil171 {fill:#F42C52}
    .fil172 {fill:#F4716F}
    .fil29 {fill:#F4C47B}
    .fil140 {fill:#F4F1ED}
    .fil118 {fill:#F4FAAB}
    .fil186 {fill:#F50A0E}
    .fil81 {fill:#F5F6DC}
    .fil46 {fill:#F6B868}
    .fil95 {fill:#F7938A}
    .fil56 {fill:#F8E8B7}
    .fil24 {fill:#F8EB86}
    .fil20 {fill:#F8EC79}
    .fil175 {fill:#F98C10}
    .fil31 {fill:#F9A55B}
    .fil212 {fill:#F9C774}
    .fil34 {fill:#F9D896}
    .fil190 {fill:#FA4876}
    .fil169 {fill:#FA6889}
    .fil165 {fill:#FA9778}
    .fil160 {fill:#FAA889}
    .fil162 {fill:#FBA7A8}
    .fil204 {fill:#FBA969}
    .fil21 {fill:#FCFCFC}
    .fil157 {fill:#FED2B5}
    .fil3 {fill:#FEFDE8}
    .fil206 {fill:#FEFEFE}
    .fil10 {fill:#EC268F;fill-rule:nonzero}
    .fil6 {fill:#ED3237;fill-rule:nonzero}
    .fil8 {fill:#A53692;fill-rule:nonzero}
    .fil9 {fill:#00A859;fill-rule:nonzero}
    .fil11 {fill:#0098DA;fill-rule:nonzero}
    .fil7 {fill:#3E4095;fill-rule:nonzero}
   ]]></style></defs><g
     id="g2152"
     transform="translate(-2130.0001,-2474.5229)"><g
       id="g31408"
       transform="matrix(2.7384052,0,0,2.5684657,-3702.803,-26598.042)"><path
         class="fil112"
         d="m 6672,14458 c 6,1 28,8 32,9 31,17 8,1 25,23 33,-17 3,-10 39,-3 84,17 264,45 289,116 33,6 50,29 81,50 l -40,222 c -20,-1 -134,-108 -141,-123 -42,-10 -165,-100 -173,-104 -25,-13 -35,-8 -61,-25 l -9,-62 -11,58 -36,-14 c -60,3 -97,-107 -91,-158 l 96,11 z m 248,-1359 c 12,-69 0,-90 36,-157 90,8 83,48 101,118 -30,16 -102,40 -137,39 z m -72,-190 c 26,19 35,-7 3,54 -37,71 -32,110 -49,179 -29,14 -51,25 -80,26 l 7,-64 c -24,27 2,16 -31,118 -10,-15 -11,-5 -10,-29 l -16,31 -55,-2 c 9,-53 27,-13 27,-72 -52,-24 -14,-2 -38,-57 -38,-84 -32,40 -48,-122 -17,-9 -33,-11 -45,-32 -23,-43 11,-14 -35,-45 -6,-97 -3,-54 -62,-82 -38,-19 -63,-89 -141,-96 l -1,19 c -16,61 52,100 -41,187 l 64,65 29,-38 99,232 -93,27 c -23,-15 -10,7 -12,-29 l -16,16 c 12,54 -6,110 -43,148 -56,58 -78,28 -138,51 -3,62 16,130 -8,190 -22,54 -53,81 -78,129 125,-34 213,-65 351,-42 -37,61 -63,207 -3,269 32,34 190,74 239,85 -37,20 0,15 -55,14 52,9 15,7 28,23 -34,12 -17,4 -41,26 37,4 259,105 315,135 80,42 74,24 96,64 -14,7 12,22 -42,5 l -209,-90 c -29,-12 -34,-17 -58,-30 -13,-8 -38,-13 -56,-21 -24,-9 -101,-34 -111,-45 l 6,27 c 33,-5 109,27 140,45 47,27 75,48 128,59 -25,24 -31,17 -44,23 l 23,27 c -86,13 -209,-71 -309,-53 l 46,29 c 15,5 21,7 37,12 28,8 50,12 77,24 l -12,11 c -29,20 -65,19 -92,33 -1,45 14,78 5,150 l -81,0 c -9,36 -12,27 -19,35 -5,-17 -23,-98 -25,-102 -15,-28 -24,-2 -54,-66 -30,-63 -65,-319 -61,-390 3,-52 13,-150 -8,-193 l -71,343 c -10,63 -51,282 -112,298 -25,-50 -9,-90 -27,-133 -10,61 3,183 32,236 45,-6 37,-37 57,-83 73,-168 76,-299 120,-337 33,134 -91,510 -148,613 l -106,180 c -31,53 -20,82 -85,110 -68,28 -56,39 -56,39 l -47,83 -34,-7 0,30 c -47,30 -24,60 -42,104 -17,44 -51,28 -28,99 -49,13 -54,16 -57,73 l -30,19 c 1,56 15,62 -31,76 l -21,-157 -41,-130 -28,-4 c -30,43 -114,141 -107,206 26,23 131,324 138,372 31,-33 33,-121 39,-171 6,7 27,-15 17,55 -3,18 -38,119 -18,163 11,-48 14,-81 78,-113 1,-63 32,-74 42,-148 l 10,28 c 6,-61 0,-15 18,-35 l 87,-148 c 31,-99 82,-113 137,-187 26,40 59,40 98,73 -8,18 -11,23 -20,35 -22,33 -12,8 -22,34 3,-1 1,-3 26,10 -49,67 -74,144 -128,151 l 18,21 -27,7 c -8,57 -27,84 -62,117 l -15,-21 c -15,37 1,116 -33,139 l -8,1 -20,16 22,16 c -37,16 -23,14 -33,61 -5,23 -9,51 -12,77 l -17,15 c 1,82 16,78 -6,173 l 4,70 c 31,25 29,27 70,25 l -16,-16 c 41,-29 33,-21 105,-31 16,-42 7,-46 45,-57 l 28,-38 c 16,-19 28,-26 33,-57 l 7,24 22,-105 14,4 c 6,-33 13,-64 39,-86 l 31,1 c 18,46 36,191 3,206 l 12,262 c 70,14 41,16 71,68 24,42 33,35 45,94 l 32,9 8,63 c 64,-55 48,-65 72,-175 7,-36 7,-77 19,-111 15,-40 30,-41 33,-91 33,-3 45,2 60,-27 l -25,-11 c 23,-173 50,-9 79,-288 9,-93 -30,-264 -15,-347 19,0 48,25 88,34 l 6,27 57,29 c 29,1 58,41 69,78 1,0 48,-1 19,-7 l 7,25 40,65 c 27,18 1,59 -1,88 36,8 42,12 78,3 5,34 19,88 40,111 24,-46 16,-100 -3,-146 25,-42 5,-20 39,-48 l -3,-149 -9,-52 -16,0 c -14,-56 -41,-79 -62,-128 -20,-47 -12,-123 -13,-176 l -77,38 -66,-76 22,-89 c 63,-13 68,-6 122,10 73,25 91,55 90,136 -2,75 2,151 -1,225 47,-34 88,-96 149,-109 59,20 69,78 129,107 l 0,-2897 c -12,4 -54,47 -79,63 -31,19 -53,36 -83,56 -59,42 -111,103 -165,129 z"
         id="path2154"
         inkscape:connector-curvature="0"
         style="fill:#17772a" /><path
         class="fil113"
         d="m 2597,14663 c 9,18 5,-9 12,28 l -5,100 -51,5 c 0,-48 8,-103 44,-133 z m -467,79 0,31 c 56,-21 70,-21 132,-15 l -8,55 c -3,47 -6,24 -12,50 -6,29 3,42 7,70 l -4,71 -77,8 c 38,4 40,-5 77,12 30,13 17,14 62,6 60,-10 51,-41 136,-46 69,-29 50,-18 75,-83 15,-38 61,-49 98,-50 -3,-16 -3,-183 -2,-208 3,-49 25,-124 32,-178 86,133 124,294 155,342 85,-9 68,-88 132,-142 37,-31 133,-71 166,-107 17,39 8,17 11,48 4,46 14,10 17,67 l -95,80 c -43,-16 -19,-17 -64,-12 13,29 17,34 49,42 -66,39 -109,117 -156,162 -35,-32 11,-19 -54,-23 -43,70 -16,107 -47,175 -24,53 -61,79 -68,149 -29,-73 -11,-3 -28,-91 -7,-38 -13,-75 -21,-111 -37,-3 -14,-14 -40,11 l 4,133 c 3,39 15,8 -5,39 l 38,-3 -15,22 44,-19 c 15,71 13,278 47,334 35,59 0,62 21,108 l 8,-144 25,-12 c -1,-62 76,-191 133,-200 88,163 66,495 10,593 l -54,-179 -16,-12 c -21,61 -1,158 29,213 3,0 38,5 38,5 35,11 -10,1 30,15 1,-34 -5,-41 11,-67 56,15 -31,-31 21,17 22,21 -25,17 44,17 l -5,-58 c 26,-24 22,-73 48,-106 16,72 -21,101 5,154 33,7 29,11 54,-5 l -49,1 c -19,-122 50,-298 128,-386 l 8,-25 c 20,29 10,12 14,32 28,-23 19,-40 18,-78 l 35,-16 c 0,-34 19,-71 42,-90 19,-107 71,-38 78,-116 51,38 39,8 93,3 32,88 42,98 -27,174 l -42,-3 c 25,22 9,1 18,28 -29,11 -14,0 -43,18 5,78 -25,89 -95,183 l -19,16 c -33,1 -20,18 -34,-14 l -23,167 c 8,-43 3,-27 -10,-45 l -9,94 c 0,-12 -13,-44 -15,-82 l -13,0 -14,136 c -16,47 -8,0 -24,48 l -36,198 -17,112 c 33,31 20,6 21,58 136,-19 19,4 137,-46 l 10,-40 c 38,10 8,7 30,0 15,-32 38,-58 72,-55 6,-52 26,-55 48,-96 2,-24 2,-28 12,-52 27,-67 81,-62 68,123 -3,39 9,40 -16,46 9,106 -5,109 41,188 19,-26 13,-25 44,-49 l 6,-57 c 23,-20 24,-27 38,-50 l 28,-7 c 51,-49 229,-442 305,-500 91,-70 134,-39 218,-60 81,-108 61,-133 59,-269 -26,21 -41,42 -75,49 -29,-14 -47,-46 -70,-73 -8,-61 4,-62 37,-103 43,-3 70,-8 106,16 8,12 62,49 77,59 l 4,98 c 41,-27 64,-88 101,-104 l 0,-26 -11,-15 c -32,-27 -118,-69 -161,-97 -49,-31 -100,-70 -141,-106 -71,-63 -193,-179 -243,-255 l 11,16 c -18,15 -31,23 -42,46 l -33,-26 -33,49 -48,3 c 2,3 9,12 10,14 0,0 1,3 1,4 l 3,10 c 14,29 32,9 7,49 -24,-32 -27,-48 -74,-46 25,22 21,79 11,113 -36,19 -45,13 -86,13 -58,-16 -50,-49 -50,-108 l -117,-89 -52,11 c -13,30 -56,54 -89,57 16,20 20,20 20,50 -30,-10 -9,11 -25,-26 -5,68 23,37 -25,115 -23,36 -35,73 -67,102 -90,-58 -82,-65 -109,-81 9,-56 105,-150 140,-197 l 27,9 -11,-40 54,-35 c 17,-31 2,-20 25,-35 l 65,-40 c 18,-16 -10,-2 21,-23 38,-26 12,10 33,-24 l 45,-128 c 17,-13 -6,10 27,-11 47,-31 41,-108 40,-110 -29,-83 24,-12 6,-113 -87,-89 -165,-319 -167,-440 -1,-88 3,-239 117,-237 -48,-31 -88,-33 -139,-80 24,42 53,26 26,156 -10,-10 -33,21 -16,-31 3,36 7,73 7,101 l -86,72 c -7,-8 -33,-3 -7,-43 l -6,63 c -144,24 28,38 -172,26 l -82,84 -30,-98 c -54,-24 -81,-8 -136,-5 -13,-38 -6,-36 -1,-74 -36,8 -68,36 -105,51 -54,21 -266,150 -309,163 -7,63 -37,213 -109,227 -5,42 -54,161 -69,235 -6,29 -28,82 -39,108 -16,38 -22,79 -59,103 z"
         id="path2156"
         inkscape:connector-curvature="0"
         style="fill:#238c33" /><path
         class="fil114"
         d="m 4694,14502 -33,-2 c 25,-18 24,-2 0,-25 l -2,-101 c 14,-12 29,-22 41,-39 l 32,-50 17,31 c -9,-28 3,-21 10,-30 13,59 35,124 62,179 -43,3 -24,-4 -58,18 l 57,-1 c 74,121 -231,161 -248,43 49,-6 87,4 122,-23 z m -826,-875 c 94,-37 69,-39 183,-35 121,5 240,25 355,61 54,17 101,46 137,60 l 22,13 c 21,-9 25,-14 50,-2 53,25 -12,53 49,12 l 2,44 c 14,-12 16,15 20,-32 l 27,22 43,-22 c 23,116 26,106 -83,100 -39,-2 -43,-21 -70,-37 l -18,21 -11,-47 c 5,41 17,16 -17,42 l -60,-33 c -165,-74 -456,-142 -636,-111 l 18,43 c -3,1 -7,3 -9,3 l -25,4 c 28,23 21,19 25,35 64,-3 134,-1 199,-3 l 170,3 c 25,29 140,65 182,97 72,55 42,29 58,94 7,31 2,1 21,43 -29,38 -12,32 -34,56 l -41,-43 c 10,27 7,19 22,43 31,49 18,28 2,45 12,30 9,9 17,46 -50,73 -219,88 -299,70 -21,29 25,25 -50,31 -15,1 -32,-8 -37,-9 -31,-6 -17,6 -66,2 -6,-31 3,-28 -25,-13 l -63,-54 c -20,-13 2,39 -16,-11 -2,-6 -6,-5 -10,-10 l -15,-17 c 4,48 -8,23 23,51 -14,6 -13,5 -22,7 -2,0 -10,0 -13,1 l 36,22 c -7,220 22,148 40,219 45,173 137,60 162,292 l 53,39 10,-35 c 21,29 12,27 15,66 30,3 59,11 82,-6 3,45 -3,21 -6,57 -2,17 0,41 0,59 1,40 1,80 -1,124 l 41,14 3,68 97,5 c 33,54 12,63 86,80 46,10 63,34 91,66 l 72,3 c 25,-45 -6,-27 28,-41 51,-10 19,22 152,-26 98,-36 107,-12 132,-38 29,-29 13,-110 14,-184 0,-40 -13,4 10,-55 l -26,-9 c -68,164 -395,169 -472,43 -33,-20 -55,-66 -70,-103 -54,-23 -77,-15 -79,-70 50,4 23,2 61,36 73,5 87,-42 143,-77 71,-44 104,-11 164,17 67,-24 76,-63 157,-9 47,30 80,76 140,78 l 19,-21 0,-24 -43,9 c -1,-38 28,-49 55,-61 62,-26 58,-1 90,13 l 5,-12 c 0,-2 2,-9 2,-12 l 5,-75 78,-5 3,-74 c 61,-3 115,-23 137,-81 l 45,-5 c 5,-36 17,-54 22,-88 7,-45 1,-49 31,-78 -2,-37 3,-64 3,-89 0,-1 -4,-20 -5,-21 -7,-11 0,-7 -19,-10 -13,32 -3,9 -22,32 -31,-17 -15,-10 -40,20 -38,-18 -20,-15 -58,-7 -88,20 -71,-5 -80,-25 -75,18 -255,3 -298,-69 4,-22 10,-29 17,-45 -19,-13 -35,2 22,-76 56,-76 159,-106 249,-127 -67,-5 -48,-1 -109,-20 -49,22 -81,61 -128,84 10,16 18,11 -4,8 -15,17 -24,35 -39,53 -16,18 -1,3 -15,13 -16,10 -2,4 -27,8 l 16,-28 c -1,0 -4,0 -4,0 -1,0 -4,-1 -5,-1 l -15,-6 c 13,-64 42,-87 82,-130 l -7,-50 c 0,-1 -1,0 -1,1 46,-25 35,0 65,-46 l -35,10 -62,10 -5,-19 -42,39 -17,-44 c -10,34 5,11 -15,43 l -29,-53 c -11,42 8,28 -20,60 -11,-62 -2,-76 30,-124 l 31,41 2,-34 c 36,-7 37,-7 53,-22 25,29 0,5 26,8 110,-70 452,-122 580,-94 l 3,-21 c -45,-5 -43,-10 -82,-19 l 30,-9 -31,-24 -1,-149 c -29,-27 -10,-27 -43,-53 -40,-32 -111,-98 -117,-151 -105,-8 -44,-41 -148,-40 l -15,-32 c -56,-2 -56,-9 -80,-48 l -169,-4 c -60,-88 -97,-62 -257,-75 -74,-6 -10,-13 -69,-19 l -79,-9 c -30,43 -54,35 -107,41 -56,6 -56,28 -114,30 -16,50 -30,30 -57,53 l -53,46 c -90,66 -34,82 -110,99 l -14,-42 c -45,52 -21,153 -105,205 l -4,150 29,15 -66,33 -5,42 z"
         id="path2158"
         inkscape:connector-curvature="0"
         style="fill:#e6bb93" /><path
         class="fil115"
         d="m 2130,12070 65,38 -18,162 c 47,-22 80,-81 120,-98 20,61 33,176 43,244 12,77 38,159 57,234 20,-14 17,23 14,-29 16,33 36,21 81,30 23,-60 126,-168 172,-213 4,53 -26,118 -41,172 l 21,32 c 59,2 164,8 220,21 46,10 175,28 217,25 l 2,-15 13,21 c -18,-137 -81,-342 -122,-479 -20,-71 -139,-413 -139,-448 l 135,76 105,-243 5,404 c 58,-22 120,-154 177,-191 l -41,257 c 83,46 199,25 158,196 15,-11 47,-41 63,-55 28,-26 17,-36 52,-66 65,-54 107,-48 182,-58 25,-53 15,-162 259,-202 l 0,-14 c -14,-75 -78,-117 -112,-174 3,-10 85,-190 90,-200 22,90 32,193 103,257 l 14,21 c 10,-85 -2,-115 92,-121 18,-87 112,-86 180,-60 44,18 36,-4 44,38 3,-110 20,-8 35,-144 34,5 67,34 74,71 19,-37 -10,-5 33,-32 3,-137 49,-129 119,-134 45,-56 55,-39 99,-5 45,1 50,-4 88,24 l 2,40 c 34,31 29,20 87,22 l 60,14 18,60 c 34,9 58,2 91,8 29,6 42,22 70,30 l 120,-32 95,53 c 124,10 266,68 315,64 -3,-12 46,29 -23,-40 -10,-9 -17,-14 -28,-21 l -122,-85 c -30,-21 -33,-29 -58,-50 -22,-19 -102,-47 -140,-68 -44,-23 -92,-52 -123,-88 l -2537,0 5,142 -73,-64 35,-78 -453,0 0,751 z"
         id="path2160"
         inkscape:connector-curvature="0"
         style="fill:#398a4e" /><path
         class="fil116"
         d="m 5532,13608 c 33,26 118,57 126,101 -147,-26 -185,-46 -347,-10 -67,14 -272,58 -311,98 l 35,-10 c -30,46 -19,21 -65,46 0,-1 1,-2 1,-1 l 7,50 c -40,43 -69,66 -82,130 l 15,6 c 1,0 4,1 5,1 0,0 3,0 4,0 l -16,28 c 25,-4 11,2 27,-8 14,-10 -1,5 15,-13 15,-18 24,-36 39,-53 22,3 14,8 4,-8 47,-23 79,-62 128,-84 61,19 42,15 109,20 58,-5 33,-35 64,-6 l 45,-28 c 6,17 2,4 4,19 2,8 1,10 3,16 l 58,-30 c 0,37 10,11 -13,37 30,1 50,-10 76,-17 -5,33 6,11 -19,37 l 77,-10 -33,37 c 55,1 52,-23 92,-35 -13,35 -21,20 -26,57 47,-11 46,-38 84,-59 -5,63 -32,45 -58,91 52,-24 66,-69 107,-98 -1,71 -54,85 -91,125 40,3 80,-33 102,-64 -13,115 -129,100 -210,78 l 5,19 c -43,40 -100,147 -257,148 9,20 -8,45 80,25 38,-8 20,-11 58,7 25,-30 9,-37 40,-20 19,-23 9,0 22,-32 19,3 12,-1 19,10 1,1 5,20 5,21 0,25 -5,52 -3,89 -30,29 -24,33 -31,78 -5,34 -17,52 -22,88 l -45,5 c -22,58 -76,78 -137,81 l -3,74 -78,5 -5,75 c 0,3 -2,10 -2,12 l -5,12 c -32,-14 -28,-39 -90,-13 -27,12 -56,23 -55,61 l 43,-9 0,24 c 36,-23 4,-18 49,-7 2,48 -41,44 -88,50 l -24,63 26,9 c -23,59 -10,15 -10,55 -1,74 15,155 -14,184 -25,26 -34,2 -132,38 -133,48 -101,16 -152,26 -34,14 -3,-4 -28,41 l -72,-3 c -28,-32 -45,-56 -91,-66 -74,-17 -53,-26 -86,-80 l -97,-5 -3,-68 -41,-14 c 2,-44 2,-84 1,-124 0,-18 -2,-42 0,-59 3,-36 9,-12 6,-57 -23,17 -52,9 -82,6 -3,-39 6,-37 -15,-66 l -10,35 -53,-39 c -25,-232 -117,-119 -162,-292 -18,-71 -47,1 -40,-219 l -36,-22 c 3,-1 11,-1 13,-1 9,-2 8,-1 22,-7 -31,-28 -19,-3 -23,-51 l 15,17 c 4,5 8,4 10,10 18,50 -4,-2 16,11 l 63,54 c 28,-15 19,-18 25,13 49,4 35,-8 66,-2 5,1 22,10 37,9 75,-6 29,-2 50,-31 -77,-2 -156,-39 -207,-91 -33,-32 -1,-31 -48,-51 l 3,-26 c -78,19 -196,35 -209,-77 24,36 58,66 102,63 -35,-41 -82,-52 -86,-117 32,26 70,83 104,94 -15,-36 -56,-44 -61,-100 28,30 47,60 93,63 l -36,-54 c 47,11 30,35 95,32 l -32,-31 66,9 c 0,-3 0,-6 0,-5 l 8,-31 57,16 -17,-29 c 48,1 22,17 78,16 l -16,-26 c 41,2 11,1 39,15 40,19 -2,-3 43,7 34,7 76,18 110,29 141,46 122,68 172,90 l 41,43 c 22,-24 5,-18 34,-56 -19,-42 -14,-12 -21,-43 -16,-65 14,-39 -58,-94 -42,-32 -157,-68 -182,-97 l -170,-3 c -65,2 -135,0 -199,3 -4,-16 3,-12 -25,-35 l 25,-4 c 2,0 6,-2 9,-3 l -18,-43 -65,18 72,-74 5,-42 66,-33 -29,-15 4,-150 c 84,-52 60,-153 105,-205 l 14,42 c 76,-17 20,-33 110,-99 l 53,-46 c 27,-23 41,-3 57,-53 58,-2 58,-24 114,-30 53,-6 77,2 107,-41 l 79,9 c 59,6 -5,13 69,19 160,13 197,-13 257,75 l 169,4 c 24,39 24,46 80,48 l 15,32 c 104,-1 43,32 148,40 6,53 77,119 117,151 33,26 14,26 43,53 l 1,149 31,24 -30,9 c 39,9 37,14 82,19 l -3,21 z m -820,-1172 c 1,11 2,38 3,40 l 26,81 -29,30 34,27 c -25,72 -104,121 -174,144 -467,192 -780,146 -883,765 l -71,471 c -27,200 17,296 14,391 l 34,13 c -14,35 -8,20 -8,58 4,93 67,183 96,267 l 73,109 c 50,76 172,192 243,255 41,36 92,75 141,106 43,28 129,70 161,97 62,5 102,39 163,63 70,27 133,51 206,25 l 24,18 -4,0 29,-3 c 14,-29 112,-76 145,-84 l 96,-56 -10,-1 c 71,-33 139,-103 201,-139 l 44,13 7,-38 -2,-21 109,-113 29,1 c 16,-35 39,-47 51,-78 18,-49 16,-35 43,-80 l 115,-195 c 12,-23 35,-92 49,-112 18,-24 20,-10 39,-40 36,-58 0,-47 66,-57 10,-74 119,-440 86,-479 -4,47 -25,121 -68,138 -53,-71 -96,-487 -124,-623 -14,-69 -39,-129 -55,-193 l -11,-21 c -57,-79 -69,-121 -150,-190 -217,-184 -583,-202 -697,-341 l 37,-77 -43,-21 29,-33 -33,-123 -31,6 z"
         id="path2162"
         inkscape:connector-curvature="0"
         style="fill:#daa575" /><path
         class="fil117"
         d="m 3017,16744 c -13,-48 -12,-80 -6,-129 l 118,157 -112,-28 z m 352,-284 c -28,-47 -38,-80 -58,-130 -24,-59 -35,-74 14,-121 l 79,155 -35,96 z m -499,-428 c 14,45 13,104 2,148 -45,-16 -83,-77 -85,-128 20,-26 50,-22 83,-20 z m -341,-257 c 10,60 38,116 49,170 -40,-10 -163,-75 -196,-110 -31,-32 -55,-198 -54,-246 l 167,5 c 20,60 24,119 34,181 z m -201,-404 c 40,-21 128,-54 178,-57 -13,112 -23,131 -17,254 -51,-4 -118,-19 -167,-45 l 6,-152 z m -181,-218 105,0 c 2,46 4,41 -23,78 l -79,-7 -3,-71 z m 181,-6 c 29,-18 214,-68 250,-71 3,42 -15,99 -33,142 l -213,3 -4,-74 z m 115,-163 c -85,5 -76,36 -136,46 -45,8 -32,7 -62,-6 -37,-17 -39,-8 -77,-12 l -38,2 0,359 49,2 -2,100 -47,-10 0,92 62,22 13,140 -75,-41 0,1280 1121,0 c 1,-2 10,-41 10,-42 7,-19 5,-6 17,-26 8,-13 28,-56 36,-74 l -19,-1 c -48,-105 -144,-231 -76,-350 31,39 74,123 115,176 l -10,139 c 22,-21 288,-520 297,-562 l -28,7 c -14,23 -15,30 -38,50 l -6,57 c -31,24 -25,23 -44,49 -46,-79 -32,-82 -41,-188 -6,-40 -44,-80 -64,-117 -22,41 -42,44 -48,96 -34,-3 -57,23 -72,55 -22,7 8,10 -30,0 l -10,40 c -118,50 -1,27 -137,46 -1,-52 12,-27 -21,-58 l -12,70 c -48,-64 -88,-231 -73,-311 l 73,-2 29,131 36,-198 c 16,-48 8,-1 24,-48 l -41,3 c -25,16 -21,12 -54,5 -26,-53 11,-82 -5,-154 -26,33 -22,82 -48,106 l 5,58 c -69,0 -22,4 -44,-17 -52,-48 35,-2 -21,-17 -16,26 -10,33 -11,67 -40,-14 5,-4 -30,-15 0,0 -35,-5 -38,-5 -30,-55 -50,-152 -29,-213 l 16,12 c -9,-44 -52,-190 -89,-214 l -25,12 -8,144 c -5,89 22,146 -47,295 l -71,10 c -6,-29 -9,-703 6,-728 l 15,-22 -38,3 c 20,-31 8,0 5,-39 l -4,-133 c 26,-25 3,-14 40,-11 -4,-37 -8,-34 -9,-74 -1,-45 2,-54 -19,-90 6,51 17,57 -7,103 -42,13 -130,19 -165,1 z"
         id="path2164"
         inkscape:connector-curvature="0"
         style="fill:#15643a" /><path
         class="fil118"
         d="m 5660,11445 c 55,17 194,118 227,201 24,61 31,40 76,74 119,90 183,191 249,333 106,226 155,369 336,546 69,67 68,113 114,183 16,-17 29,-41 51,-64 24,-24 44,-39 66,-63 26,-28 105,-125 121,-136 203,-10 132,27 275,112 l 0,-1312 -1504,0 c 49,22 148,33 136,97 -53,39 -126,-9 -147,29 z"
         id="path2166"
         inkscape:connector-curvature="0"
         style="fill:#b4f1f8;fill-opacity:1" /><path
         class="fil112"
         d="m 2455,13981 c 15,-56 265,-292 388,-279 10,46 -1,77 -18,122 -78,37 -309,101 -370,157 z m 37,-1330 c -45,-9 -65,3 -81,-30 3,52 6,15 -14,29 -80,-9 -192,30 -267,55 l 0,2037 c 37,-24 43,-65 59,-103 11,-26 33,-79 39,-108 15,-74 64,-193 69,-235 72,-14 102,-164 109,-227 43,-13 255,-142 309,-163 37,-15 69,-43 105,-51 -5,38 -12,36 1,74 55,-3 82,-19 136,5 l 30,98 82,-84 c 200,12 28,-2 172,-26 l 6,-63 c -26,40 0,35 7,43 l 86,-72 c 0,-28 -4,-65 -7,-101 -17,52 6,21 16,31 27,-130 -2,-114 -26,-156 -112,-119 -113,-153 -97,-317 l -147,0 c -41,35 -91,100 -138,119 11,44 143,72 216,128 -63,15 -123,14 -187,10 -104,-8 -59,-1 -137,-46 -55,31 -187,-19 -255,-31 l -53,-13 c -53,4 -15,-14 -57,53 -36,58 -103,78 -120,146 36,5 25,-2 57,20 l -6,50 c -38,16 -119,15 -161,10 -23,-54 -12,-183 -1,-243 11,-130 72,-498 130,-595 33,55 33,223 53,301 17,70 60,215 151,117 96,-104 127,-384 146,-527 16,47 5,260 10,334 7,110 27,185 49,288 l 36,26 c 37,-7 27,-12 58,-31 55,-37 140,-183 171,-246 29,44 9,49 79,54 -35,-57 -33,-33 -51,-109 -58,-232 56,-278 102,-338 -48,-54 -38,-27 -36,-112 -17,18 -9,11 -14,47 l -25,-5 -13,-21 -2,15 c -42,3 -171,-15 -217,-25 -56,-13 -161,-19 -220,-21 l -21,-32 -9,27 -122,14 z"
         id="path2168"
         inkscape:connector-curvature="0"
         style="fill:#17772a" /><path
         class="fil119"
         d="m 4203,15389 c 2,136 22,161 -59,269 -84,21 -127,-10 -218,60 -76,58 -254,451 -305,500 -9,42 -275,541 -297,562 l -10,36 c -8,18 -28,61 -36,74 -12,20 -10,7 -17,26 0,1 -9,40 -10,42 l 916,0 c 1,-49 16,-126 25,-175 10,-55 6,-117 12,-174 8,-76 17,-301 10,-373 22,-130 101,-237 114,-353 l 10,-30 34,14 -4,-16 -15,-11 c -2,-36 16,-112 31,-142 l 10,-107 -11,-260 c -37,16 -60,77 -101,104 l -4,-98 c -15,-10 -69,-47 -77,-59 l 2,111 z"
         id="path2170"
         inkscape:connector-curvature="0"
         style="fill:#0d0a0d" /><path
         class="fil119"
         d="m 3289,12848 c 30,-28 38,-57 77,-63 5,45 -17,66 -25,112 -6,43 3,81 -3,125 -43,-20 -29,-47 -68,-67 l -6,122 c -54,-1 -34,-39 -81,-60 l -3,54 c -44,-27 -38,-62 -65,-107 l -23,48 c -38,-75 13,-181 103,-196 -6,40 -15,27 4,60 l 60,-62 c 22,34 -4,10 30,34 z m 296,-279 c 20,38 -28,241 -47,280 -9,21 -29,27 -52,58 -84,-74 -41,-229 21,-304 l 19,53 59,-87 z m -357,76 c 0,-142 215,-193 322,-108 -17,14 -92,46 -130,72 -39,27 -74,74 -110,95 -6,-58 14,-50 16,-99 -34,21 -57,36 -98,40 z m 146,-379 c -31,69 -41,66 -60,149 -95,34 -176,134 -179,237 -2,85 -12,58 36,112 -46,60 -160,106 -102,338 18,76 16,52 51,109 60,30 57,27 126,30 l -20,46 c -16,164 -15,198 97,317 51,47 91,49 139,80 66,20 81,68 100,130 9,28 15,59 21,87 10,47 1,69 35,93 l 71,-471 c 103,-619 416,-573 883,-765 -11,-13 17,-22 -32,-9 -11,3 -24,12 -37,17 -46,16 -184,31 -237,25 26,-15 103,-32 146,-50 24,-10 112,-53 123,-51 l -208,26 c 48,-15 114,-22 149,-63 -28,-2 -48,-3 -76,7 -19,7 -16,9 -24,14 l -15,9 c -1,-2 -6,3 -9,5 -58,-30 -43,-37 -111,-29 -43,-31 -46,-46 -48,-102 l -32,8 31,41 -25,37 c -40,-17 -20,-16 -72,-24 -40,57 -55,57 -124,60 l -51,42 c -82,-9 -86,-49 -132,-66 l -11,-17 c -27,-36 0,5 -42,-34 l -6,-7 c -23,-18 -38,-27 -63,-51 0,-10 2,-35 2,-41 -1,-21 -9,-8 -6,-45 -10,-26 -38,-32 -40,-73 0,-25 23,-63 29,-98 -3,-31 -4,-38 18,-60 l 47,-39 -8,-71 20,-19 31,-21 2,-53 15,2 c 17,-75 64,-96 134,-107 l 20,-36 c -244,40 -234,149 -259,202 -75,10 -117,4 -182,58 -35,30 -24,40 -52,66 -16,14 -48,44 -63,55 z"
         id="path2172"
         inkscape:connector-curvature="0"
         style="fill:#0d0a0d" /><path
         class="fil119"
         d="m 6107,13109 c -41,10 -18,12 -76,67 6,-51 17,-78 15,-136 -1,-39 -21,-89 -9,-120 47,18 34,39 69,65 46,-24 1,-16 38,-29 l 52,68 c 17,-33 0,0 9,-33 7,-23 -1,-6 11,-25 82,43 114,141 68,219 -14,-36 0,-27 -21,-62 -34,35 -22,60 -60,98 -24,-39 3,-14 -17,-52 -52,28 -27,48 -81,48 l 2,-108 z m -219,-16 c -23,-53 23,-44 -11,-99 l -38,40 c -8,-35 -11,-320 1,-344 l 49,78 c 25,-26 6,-15 26,-43 92,164 25,218 -27,368 z m 209,-249 c -37,-28 -61,-70 -98,-102 -46,-39 -83,-58 -124,-88 107,-75 314,-18 305,134 -41,-2 -52,-26 -90,-41 3,47 18,37 7,97 z m -414,-791 c 23,28 31,17 59,58 l -24,52 25,24 27,24 25,19 c 7,51 -17,63 23,99 l 26,14 c 25,-8 37,-13 61,-4 -26,29 -31,21 -63,40 21,15 -20,7 58,18 19,3 30,5 47,11 -16,25 -63,24 -98,40 l 126,58 c -37,16 -44,9 -86,15 l 21,74 c -90,-9 -86,-123 -132,-108 20,27 11,15 10,55 -21,14 -60,43 -71,37 31,58 40,113 14,170 -24,-33 -54,-104 -92,-106 -35,38 -54,50 -110,64 l -47,-40 c -82,-12 -80,-1 -137,-65 l -60,25 -37,-29 -34,43 c -51,6 -51,3 -101,17 10,42 -9,19 39,45 16,8 12,9 30,16 -65,-6 -113,-47 -184,-45 16,28 76,64 113,69 l -115,-21 c 35,45 118,75 175,92 -34,14 -186,-29 -228,-47 0,0 -146,-92 -132,-124 l 127,29 -23,-45 70,6 c -33,-13 -68,-31 -91,-57 51,-22 16,-4 37,-25 -91,-38 -48,2 -57,-84 -2,-19 -49,-90 2,-113 -39,0 -25,14 -57,41 -20,17 -50,28 -76,35 l 33,123 -29,33 43,21 -37,77 c 114,139 480,157 697,341 81,69 93,111 150,190 22,-16 7,13 22,-26 48,21 61,45 112,42 -26,-45 -17,-12 -42,-42 44,-20 143,100 177,135 21,-38 12,-6 9,-49 -2,-16 -3,-33 -3,-50 73,29 160,116 179,197 l -46,-18 3,110 c -50,-33 -33,-112 -65,-131 l -7,77 -58,-116 c -96,-31 -111,-82 -173,-85 22,54 135,104 144,161 -13,-15 -57,-36 -86,-38 5,24 -20,5 19,41 5,5 27,17 34,23 11,10 39,45 43,52 -58,-17 -40,-35 -87,-68 -28,-20 -20,-10 -43,-34 -14,-14 -28,-23 -36,-43 71,1 21,32 80,-5 -47,-34 -118,-55 -139,-114 l -26,2 c 16,64 41,124 55,193 28,136 71,552 124,623 43,-17 64,-91 68,-138 l 24,-127 c 56,-12 137,-72 155,-74 25,-48 56,-75 78,-129 24,-60 5,-128 8,-190 60,-23 82,7 138,-51 37,-38 55,-94 43,-148 l 16,-16 c 23,-77 -1,-123 -23,-192 l -64,-65 c 93,-87 25,-126 41,-187 -27,-26 -39,-80 -65,-113 -30,-36 -53,-43 -86,-72 -43,-176 -128,-321 -318,-356 -39,-116 -9,-81 -107,-164 l -15,23 z"
         id="path2174"
         inkscape:connector-curvature="0"
         style="fill:#0d0a0d" /><path
         class="fil120"
         d="m 5332,11607 c 4,23 -2,21 22,27 43,16 82,138 82,140 -13,53 -17,6 -19,59 27,15 19,1 48,21 51,12 44,20 74,52 l 63,8 c 35,18 68,93 83,106 l -2,33 15,-23 c 98,83 68,48 107,164 190,35 275,180 318,356 33,29 56,36 86,72 26,33 38,87 65,113 l 1,-19 c 78,7 103,77 141,96 59,28 56,-15 62,82 46,31 12,2 35,45 12,21 28,23 45,32 16,162 10,38 48,122 24,55 -14,33 38,57 0,59 -18,19 -27,72 l 55,2 16,-31 c -1,24 0,14 10,29 33,-102 7,-91 31,-118 l 10,-167 109,-28 c 54,-26 106,-87 165,-129 30,-20 52,-37 83,-56 25,-16 67,-59 79,-63 l 0,-30 c -143,-85 -72,-122 -275,-112 -16,11 -95,108 -121,136 -22,24 -42,39 -66,63 -22,23 -35,47 -51,64 -46,-70 -45,-116 -114,-183 -181,-177 -230,-320 -336,-546 -66,-142 -130,-243 -249,-333 -45,-34 -52,-13 -76,-74 -33,-83 -172,-184 -227,-201 -28,-18 -62,-47 -98,-68 -39,-22 -62,-27 -94,-58 l -315,0 c 31,36 79,65 123,88 38,21 118,49 140,68 25,21 28,29 58,50 l 122,85 c 11,7 18,12 28,21 69,69 20,28 23,40 -49,4 -191,-54 -315,-64 z"
         id="path2176"
         inkscape:connector-curvature="0"
         style="fill:#225522" /><path
         class="fil121"
         d="m 4675,16261 c 39,22 34,16 24,67 l -57,-6 -5,-39 38,-22 z m 76,-122 c -33,29 5,11 -31,56 -31,39 -17,14 -56,46 -37,-7 -127,2 -140,-93 l -18,3 -292,85 c 7,72 -2,297 -10,373 -6,57 -2,119 -12,174 -9,49 -24,126 -25,175 l 478,0 c 14,-179 40,-432 12,-604 18,29 24,71 26,109 4,62 -5,56 37,89 17,135 1,269 0,406 l 139,0 c -12,-86 -100,-506 -79,-555 25,-30 32,-29 72,-35 169,248 95,425 88,590 l 101,0 109,-313 c 14,66 30,162 65,212 -5,-79 0,-135 -21,-213 -14,-58 -42,-128 -60,-189 -11,-37 -129,-321 -144,-343 -4,30 19,3 -9,27 l -230,0 z"
         id="path2178"
         inkscape:connector-curvature="0"
         style="fill:#15456d" /><path
         class="fil113"
         d="m 6037,13713 c -18,2 -99,62 -155,74 l -24,127 c 33,39 -76,405 -86,479 3,63 -17,80 34,122 0,59 5,59 16,110 -16,6 -12,4 -27,10 31,16 21,14 48,13 7,21 22,69 30,80 7,10 38,42 48,47 -45,5 -9,-1 -21,20 l 46,17 -22,36 c 14,44 22,46 15,91 -36,-6 -19,-4 -49,-20 l -7,60 c -70,-5 -44,-71 -38,-126 l -21,-20 c -61,25 62,87 -1,187 -45,-19 -43,-16 -44,-70 -1,-51 1,-60 17,-85 l -25,-15 -21,35 c 2,29 21,61 26,108 5,51 -7,81 -5,126 l 34,7 47,-83 c 0,0 -12,-11 56,-39 65,-28 54,-57 85,-110 l 106,-180 c 57,-103 181,-479 148,-613 -44,38 -47,169 -120,337 -20,46 -12,77 -57,83 -29,-53 -42,-175 -32,-236 18,43 2,83 27,133 61,-16 102,-235 112,-298 l 71,-343 c 21,43 11,141 8,193 -4,71 31,327 61,390 30,64 39,38 54,66 2,4 20,85 25,102 7,-8 10,1 19,-35 l 81,0 c 9,-72 -6,-105 -5,-150 27,-14 63,-13 92,-33 l 12,-11 c -27,-12 -49,-16 -77,-24 -16,-5 -22,-7 -37,-12 l -46,-29 c 100,-18 223,66 309,53 l -23,-27 c 13,-6 19,1 44,-23 -53,-11 -81,-32 -128,-59 -31,-18 -107,-50 -140,-45 l -6,-27 c 10,11 87,36 111,45 18,8 43,13 56,21 24,13 29,18 58,30 l 209,90 c 54,17 28,2 42,-5 -22,-40 -16,-22 -96,-64 -56,-30 -278,-131 -315,-135 24,-22 7,-14 41,-26 -13,-16 24,-14 -28,-23 55,1 18,6 55,-14 -49,-11 -207,-51 -239,-85 -60,-62 -34,-208 3,-269 -138,-23 -226,8 -351,42 z"
         id="path2180"
         inkscape:connector-curvature="0"
         style="fill:#238c33" /><path
         class="fil119"
         d="m 4704,15570 c 14,102 100,138 121,201 l 33,61 -26,40 38,-12 120,252 c 15,22 133,306 144,343 18,61 46,131 60,189 21,78 16,134 21,213 11,46 35,61 53,101 l 631,0 12,-48 c -35,-2 -35,4 -63,-11 l -67,-87 c -37,-16 -59,-44 -89,-73 -29,-27 -63,-44 -72,-78 -18,-40 -38,-96 -56,-140 -18,-44 -45,-93 -56,-137 -90,-170 -152,-332 -264,-497 l -17,-37 c -8,-6 -83,-91 -91,-102 -27,-18 -50,-48 -83,-71 -40,-28 -70,-31 -104,-50 l -65,-10 c -10,-11 -119,-208 -123,-221 l 4,0 -43,1 c -31,44 -22,118 -18,173 z"
         id="path2182"
         inkscape:connector-curvature="0"
         style="fill:#0d0a0d" /><path
         class="fil117"
         d="m 6015,16639 c 81,41 108,103 111,189 -34,-3 -139,-42 -162,-62 l 51,-127 z m 295,268 c -65,-9 -118,-22 -131,-89 39,-11 12,5 31,-6 -26,-61 -2,-104 56,-180 l 38,21 c 0,-2 3,-5 3,-7 1,-1 3,-4 5,-6 l 33,40 c -13,80 -35,31 -35,227 z m -690,-246 -4,-123 c 31,17 108,122 126,153 -37,-2 -87,-10 -122,-30 z m 210,-275 c 11,11 -3,-11 13,15 l 38,70 c 83,125 65,47 55,286 -31,-9 -183,-247 -106,-371 z m 302,274 c -81,-59 -94,-174 -17,-243 l 70,83 c -8,44 -40,98 -53,160 z m 223,7 c -68,-110 -57,-79 68,-253 25,9 31,15 51,39 -4,36 -89,181 -119,214 z m 146,-845 c -55,-85 -17,-119 61,-141 10,67 19,134 -61,141 z m -421,294 -73,-121 -14,-4 -22,105 -7,-24 c -5,31 -17,38 -33,57 l 84,156 -30,98 c -34,-36 -84,-164 -82,-216 -38,11 -29,15 -45,57 -72,10 -64,2 -105,31 l 16,16 c -41,2 -39,0 -70,-25 l -4,-70 -10,77 -19,-47 c -26,15 -12,-7 -34,29 l -24,0 1,68 -96,1 c 0,38 24,60 -5,80 11,44 38,93 56,137 18,44 38,100 56,140 9,34 43,51 72,78 30,29 52,57 89,73 l 27,-20 c 50,26 48,23 78,67 -18,32 -7,28 -38,40 28,15 28,9 63,11 l -12,48 557,0 15,-47 -101,0 c 10,-64 126,-166 180,-200 14,104 -56,105 -65,197 l 72,-5 c 5,-88 -5,-474 5,-510 l -42,25 c -55,-89 -56,-59 -15,-148 40,-89 11,-56 48,-66 24,47 15,125 10,178 10,-59 5,-478 3,-592 l -1,-167 -6,-27 c -40,-9 -69,-34 -88,-34 -15,83 24,254 15,347 -29,279 -56,115 -79,288 l 25,11 c -15,29 -27,24 -60,27 -3,50 -18,51 -33,91 -12,34 -12,75 -19,111 -24,110 -8,120 -72,175 l -8,-63 -32,-9 c -12,-59 -21,-52 -45,-94 -30,-52 -1,-54 -71,-68 l -12,-262 z"
         id="path2184"
         inkscape:connector-curvature="0"
         style="fill:#15643a" /><path
         class="fil122"
         d="m 4164,11833 -4,29 c 28,-8 37,-9 68,-2 40,9 32,10 31,31 -25,5 -15,-2 -40,9 -24,11 3,5 -39,20 2,3 13,21 14,23 5,11 -75,68 -92,76 13,29 -11,15 28,20 l 34,-20 c 7,-34 16,-9 65,-42 38,-26 4,-22 55,-37 32,32 22,22 27,66 l 14,9 c 81,15 98,44 198,44 13,16 19,19 31,31 36,35 -23,-2 24,36 l 32,-7 c 28,-13 8,-10 39,-14 -63,20 -88,177 -142,225 2,-67 38,-115 55,-171 -62,46 -69,149 -93,222 -31,-6 -44,8 -70,19 3,-40 39,-99 27,-134 -41,60 -24,88 -59,132 -29,-42 20,-125 55,-201 -35,61 -82,164 -112,162 37,-68 73,-96 88,-173 -98,26 -92,101 -153,163 -21,-64 85,-118 107,-170 -35,2 -23,-7 -51,16 31,-45 12,-12 6,-31 -45,30 -63,80 -109,101 -91,16 23,2 -123,-23 -20,-34 -20,-66 -18,-104 35,-9 35,0 48,-32 l 39,-53 -31,-1 -30,3 -16,-83 c -9,-24 -5,-12 -11,-21 -12,72 24,39 -4,81 l -26,-40 c -6,23 -6,45 -11,60 -6,15 -36,2 -5,49 -28,2 -10,-3 -39,-4 -9,0 -14,1 -26,1 l -42,1 6,22 c -55,2 -63,52 -141,14 l -40,-35 -20,19 8,71 -47,39 120,20 c -43,-23 -51,14 -81,-45 84,12 112,48 212,31 -72,-20 -96,4 -144,-40 78,-13 129,16 221,8 l -48,34 c 12,44 4,6 19,42 -14,37 -32,39 -33,78 l -13,119 c 12,47 69,42 25,85 -21,-2 -16,13 -22,-20 -13,40 -2,18 -25,33 l -39,32 -25,-17 -36,37 c -13,5 -8,-22 -12,29 46,17 50,57 132,66 l 51,-42 c 69,-3 84,-3 124,-60 -27,-4 -31,-16 -36,-24 l 18,-99 55,-3 17,-40 33,11 -8,64 33,-36 c -3,47 -18,63 20,95 5,-46 -9,-45 11,-87 32,54 -9,83 17,142 31,-46 -1,-116 15,-192 l 73,165 -9,-48 41,18 c -35,-44 -36,-51 -55,-114 -13,-46 -10,-21 2,-48 39,-3 45,28 73,56 22,20 17,14 32,19 27,10 21,14 46,24 l 9,-35 c 33,-1 29,3 75,30 l -56,-68 67,-25 c -3,-47 5,-99 33,-134 37,41 -8,-47 15,18 6,17 5,10 6,30 1,14 -3,42 -3,62 l 22,26 51,-1 c -16,-47 -14,-67 -5,-116 l 20,103 4,-103 25,60 7,-37 26,21 c -8,-65 -39,-90 -34,-164 l 18,61 14,-42 c 45,14 54,58 100,86 -9,-29 -48,-68 -56,-105 l 53,50 c 26,-72 -13,-38 -35,-89 36,0 25,2 49,-14 21,19 46,44 67,58 1,-22 3,-7 19,-17 l -17,-59 79,-2 25,63 17,-47 c 7,-141 -39,-128 -15,-163 l -34,-13 10,21 c -45,42 -152,48 -219,-6 -88,-70 -73,-140 -137,-177 l 1,-8 c -40,-15 -46,-30 -85,-42 -51,25 -25,43 -62,59 -11,5 -70,22 -73,3 l -110,-25 c 11,41 24,43 55,72 -21,6 -44,-22 -59,-39 l -54,-5 -9,-42 c -60,11 -12,-23 -53,9 l -33,-44 12,59 -38,12 -1,30 z"
         id="path2186"
         inkscape:connector-curvature="0"
         style="fill:#b81417" /><path
         class="fil122"
         d="m 4821,11537 c 16,55 11,135 37,178 11,-91 -16,-112 51,-188 12,34 13,66 8,100 -13,-31 7,-30 34,-37 3,25 4,2 3,36 l 19,-13 c 25,65 -5,122 -38,177 l 41,2 -20,20 36,-5 7,36 c 48,-32 18,-31 51,-76 13,26 14,-23 8,26 -1,8 -5,12 -9,18 l 55,-51 c -4,53 -12,37 -44,66 l 36,18 c 74,-19 51,-37 90,-50 24,43 11,29 50,60 18,-44 43,-37 69,-70 30,-37 30,-73 86,-58 3,85 -84,131 -111,184 l -26,-5 22,44 -47,3 c 38,27 65,43 105,75 l -62,-17 c 51,35 37,26 83,67 5,-9 33,-9 -3,-30 l 18,60 c -19,-32 -137,-81 -173,-85 68,38 17,30 74,102 l 69,69 c 26,31 12,11 18,42 -84,46 -77,-65 -152,-97 7,31 7,27 27,55 14,20 23,31 29,53 -41,-39 -76,-90 -120,-127 42,92 127,123 78,149 l 3,30 c -39,31 6,-7 -20,27 -28,40 -25,-13 -20,57 46,29 98,-5 146,107 l 41,-17 c -11,-11 -11,22 48,19 l -25,-23 c -14,-16 -8,3 -17,-26 -9,-29 0,-39 11,-65 16,9 1,-8 18,27 6,12 14,24 19,34 l 18,-23 8,53 c 19,-36 3,-10 26,-5 -10,45 -3,28 18,39 l 30,-36 c -10,-68 -24,-100 -49,-158 21,-7 -5,10 25,-6 l -25,-34 c 24,-31 16,-9 19,-49 l -33,-26 c 66,-8 153,-29 213,-14 -42,33 -101,26 -150,36 124,23 124,-21 219,-28 l -25,-24 24,-52 c -28,-41 -36,-30 -59,-58 -36,33 -87,55 -137,50 13,-40 -19,-13 34,-36 l -26,-19 c 31,-34 19,-49 20,-81 -89,54 9,-28 -60,45 -29,-5 -21,-6 -46,-18 15,-36 15,-26 15,-65 -32,31 -28,59 -54,96 4,-33 20,-40 6,-77 -39,20 -23,28 -38,63 l -31,-46 c 41,-36 60,-35 41,-88 l -121,66 c 2,-35 -35,1 17,-42 l 86,-63 c 33,7 21,14 76,16 -29,-20 -21,-6 -48,-21 2,-53 6,-6 19,-59 0,-2 -39,-124 -82,-140 l -49,23 -19,-45 c -57,-17 -18,-25 -85,-41 -72,65 -16,-8 -74,55 l -60,-24 c -8,12 -19,-13 -7,30 l -18,-51 c -27,-7 -81,-18 -105,-13 -8,-46 -5,-49 -38,-79 -20,19 -27,33 -50,57 l -28,-9 z"
         id="path2188"
         inkscape:connector-curvature="0"
         style="fill:#b81417" /><path
         class="fil123"
         d="m 6563,16382 -1,11 c -10,36 0,422 -5,510 l -72,5 -14,3 -15,47 719,0 0,-47 -170,1 -95,-5 -12,-90 4,-70 -3,-156 -1,-257 4,-156 -9,-90 c -36,-38 -52,-109 -81,-157 -14,67 -7,256 -6,334 1,56 10,307 0,339 l 1,178 0,120 c -42,13 -95,12 -135,5 l -1,-107 -6,-165 8,-209 c -1,-37 -7,-76 -6,-111 1,-37 5,-69 4,-108 l 1,-79 -1,-101 -1,-88 -3,-238 -45,-49 -57,-29 1,167 c 2,114 7,533 -3,592 z"
         id="path2190"
         inkscape:connector-curvature="0"
         style="fill:#28250b" /><path
         class="fil118"
         d="m 3096,12694 25,5 c 5,-36 -3,-29 14,-47 3,-103 84,-203 179,-237 19,-83 29,-80 60,-149 41,-171 -75,-150 -158,-196 l 41,-257 c -57,37 -119,169 -177,191 l -5,-404 -105,243 -135,-76 c 0,35 119,377 139,448 41,137 104,342 122,479 z"
         id="path2192"
         inkscape:connector-curvature="0"
         style="fill:#b4f1f8;fill-opacity:1" /><path
         class="fil124"
         d="m 5309,15412 c 4,74 -5,53 33,89 -2,67 17,184 7,233 -25,119 -39,168 -105,153 112,165 174,327 264,497 29,-20 5,-42 5,-80 l 96,-1 -1,-68 24,0 c 22,-36 8,-14 34,-29 -42,-60 -67,-199 -56,-269 l 67,-4 24,70 17,-15 c 3,-26 7,-54 12,-77 10,-47 -4,-45 33,-61 l -22,-16 20,-16 -81,3 c -18,-105 20,-142 30,-235 -18,20 -12,-26 -18,35 l -10,-28 c -10,74 -41,85 -42,148 -64,32 -67,65 -78,113 -20,-44 15,-145 18,-163 10,-70 -11,-48 -17,-55 -6,50 -8,138 -39,171 -7,-48 -112,-349 -138,-372 l -52,-2 -14,-113 -11,92 z"
         id="path2194"
         inkscape:connector-curvature="0"
         style="fill:#2f714e" /><path
         class="fil114"
         d="m 4384,15698 c -15,30 -33,106 -31,142 l 15,11 c 37,28 26,18 69,38 l -34,15 c 4,50 70,151 129,84 l -5,49 c 42,5 30,-8 72,-15 1,2 3,2 4,5 0,3 2,4 3,6 l 13,24 c 42,-14 30,-10 76,8 l 20,63 c 22,-8 8,9 22,-17 l 14,28 230,0 c 28,-24 5,3 9,-27 l -120,-252 -38,12 26,-40 -33,-61 c -45,16 -3,5 -45,21 -84,-46 -7,-21 -75,-46 l -8,-40 -34,-4 c -8,-63 -3,-45 -47,-84 l -6,-52 c -34,-28 -15,-9 -37,-42 -105,5 -85,49 -108,169 -8,43 -4,38 -52,98 -19,-29 -20,-48 -18,-89 l -11,-4 z"
         id="path2196"
         inkscape:connector-curvature="0"
         style="fill:#e6bb93" /><path
         class="fil125"
         d="m 5503,14797 c -27,45 -25,31 -43,80 -12,31 -35,43 -51,78 l -29,-1 -109,113 2,21 c 38,9 34,113 24,146 -11,56 7,120 12,178 l 11,-92 14,113 52,2 c -7,-65 77,-163 107,-206 l 28,4 c 15,-89 44,-119 90,-175 27,-32 30,-23 66,-14 0,48 -30,101 -47,150 -8,22 -37,137 -37,155 l -31,14 21,157 c 46,-14 32,-20 31,-76 l 30,-19 c 3,-57 8,-60 57,-73 -23,-71 11,-55 28,-99 18,-44 -5,-74 42,-104 l 0,-30 -50,9 c -69,-93 11,-170 18,-238 l -23,-49 c -18,36 5,110 -15,144 -20,35 1,15 -44,26 -44,-73 14,-94 16,-152 -7,49 -2,10 -18,31 -12,32 -24,55 -51,71 -36,-18 -6,9 -31,-35 l -18,-1 -20,5 c 17,-19 -4,-50 14,-94 23,-58 49,-25 22,-78 -65,16 -11,35 -68,39 z"
         id="path2198"
         inkscape:connector-curvature="0"
         style="fill:#369639" /><path
         class="fil118"
         d="m 2237,13490 c 46,8 199,-11 244,-27 7,-36 10,-54 34,-77 l 10,68 53,13 c 46,-30 143,-31 203,-35 l -5,-24 c -22,-103 -42,-178 -49,-288 -5,-74 6,-287 -10,-334 -19,143 -50,423 -146,527 -91,98 -134,-47 -151,-117 -20,-78 -20,-246 -53,-301 -58,97 -119,465 -130,595 z"
         id="path2200"
         inkscape:connector-curvature="0"
         style="fill:#b4f1f8;fill-opacity:1" /><path
         class="fil126"
         d="m 3512,14361 56,19 c -14,66 -17,-2 -24,66 l 33,13 c 23,-39 6,-20 15,-60 79,8 26,11 66,57 0,-38 -6,-23 8,-58 l -34,-13 c 3,-95 -41,-191 -14,-391 -34,-24 -25,-46 -35,-93 -6,-28 -12,-59 -21,-87 -19,-62 -34,-110 -100,-130 -114,-2 -118,149 -117,237 2,121 80,351 167,440 z"
         id="path2202"
         inkscape:connector-curvature="0"
         style="fill:#ce8d5a" /><path
         class="fil117"
         d="m 6907,15672 3,149 c -34,28 -14,6 -39,48 19,46 27,100 3,146 -21,-23 -35,-77 -40,-111 -36,9 -42,5 -78,-3 2,-29 28,-70 1,-88 l -7,32 -72,-3 c -12,-43 -11,-49 0,-94 l 39,0 -7,-25 c 29,6 -18,7 -19,7 -11,-37 -40,-77 -69,-78 l 45,49 3,238 c 60,-7 92,11 138,47 l -4,106 c -34,-7 -44,-12 -76,-33 -22,-14 -33,-21 -57,-32 l 1,101 c 34,9 101,80 135,106 l 0,95 c -53,-5 -52,-9 -81,-51 -22,-32 -34,-44 -55,-71 1,39 -3,71 -4,108 -1,35 5,74 6,111 35,-26 75,-50 119,-41 26,39 17,58 17,108 -1,41 5,76 -9,114 l 6,-3 c 10,-32 1,-283 0,-339 -1,-78 -8,-267 6,-334 29,48 45,119 81,157 l 3,-17 c 41,15 91,78 128,107 46,38 94,70 151,92 l 0,-101 c -54,-23 -97,-64 -144,-96 -24,-17 -46,-33 -72,-47 -32,-19 -57,-18 -54,-50 57,-25 201,20 270,24 l 0,-89 c -55,-4 -220,-24 -257,-51 33,-20 95,-25 141,-47 40,-18 76,-48 116,-60 l 0,-121 c -48,7 -97,21 -138,41 -36,19 -79,50 -120,57 l -10,-58 z"
         id="path2204"
         inkscape:connector-curvature="0"
         style="fill:#15643a" /><path
         class="fil120"
         d="m 2616,14851 -1,29 c 21,36 18,45 19,90 1,40 5,37 9,74 8,36 14,73 21,111 17,88 -1,18 28,91 7,-70 44,-96 68,-149 31,-68 4,-105 47,-175 65,4 19,-9 54,23 47,-45 90,-123 156,-162 -32,-8 -36,-13 -49,-42 45,-5 21,-4 64,12 l 95,-80 c -3,-57 -13,-21 -17,-67 -3,-31 6,-9 -11,-48 -33,36 -129,76 -166,107 -64,54 -47,133 -132,142 -31,-48 -69,-209 -155,-342 -7,54 -29,129 -32,178 -1,25 -1,192 2,208 z"
         id="path2206"
         inkscape:connector-curvature="0"
         style="fill:#225522" /><path
         class="fil115"
         d="m 5031,15253 86,-23 c -11,117 -24,133 -17,259 -54,-3 -114,-20 -164,-45 l -1,-135 c -33,8 -131,55 -145,84 l -29,3 c 4,13 113,210 123,221 l 65,10 -13,-114 170,-1 c 11,37 51,224 30,236 8,11 83,96 91,102 l 1,-673 c 25,-23 23,-26 56,-27 6,35 -2,56 13,84 10,-33 14,-137 -24,-146 l -7,38 -44,-13 c -62,36 -130,106 -201,139 l 10,1 z"
         id="path2208"
         inkscape:connector-curvature="0"
         style="fill:#398a4e" /><path
         class="fil127"
         d="m 5503,14797 c 57,-4 3,-23 68,-39 27,53 1,20 -22,78 -18,44 3,75 -14,94 l 20,-5 c -6,-57 15,-87 48,-123 l -2,84 c 34,-13 15,-3 42,-29 30,25 5,-2 12,33 16,-21 11,18 18,-31 -2,58 -60,79 -16,152 45,-11 24,9 44,-26 20,-34 -3,-108 15,-144 l 23,49 c 7,-22 1,-24 11,-5 l 21,-35 25,15 c -16,25 -18,34 -17,85 1,54 -1,51 44,70 63,-100 -60,-162 1,-187 l -12,-37 c -79,7 -7,35 -86,13 -16,-5 -20,4 -7,-1 -19,-21 -67,-53 -74,-82 33,4 49,26 74,51 93,13 73,-24 117,-45 l 8,39 c 2,-2 2,-13 -22,6 l 78,18 c 12,-21 -24,-15 21,-20 -10,-5 -41,-37 -48,-47 -8,-11 -23,-59 -30,-80 -27,1 -17,3 -48,-13 15,-6 11,-4 27,-10 -11,-51 -16,-51 -16,-110 -51,-42 -31,-59 -34,-122 -66,10 -30,-1 -66,57 -19,30 -21,16 -39,40 -14,20 -37,89 -49,112 l -115,195 z"
         id="path2210"
         inkscape:connector-curvature="0"
         style="fill:#6d8e52" /><path
         class="fil118"
         d="m 2130,12705 c 75,-25 187,-64 267,-55 -19,-75 -45,-157 -57,-234 -10,-68 -23,-183 -43,-244 -40,17 -73,76 -120,98 l 18,-162 -65,-38 0,635 z"
         id="path2212"
         inkscape:connector-curvature="0"
         style="fill:#b4f1f8;fill-opacity:1" /><path
         class="fil128"
         d="m 4450,11559 c -7,-37 -40,-66 -74,-71 -15,136 -32,34 -35,144 -8,-42 0,-20 -44,-38 -68,-26 -162,-27 -180,60 -94,6 -82,36 -92,121 l -14,-21 0,42 c 24,-11 56,6 81,18 -12,-62 -36,-68 -2,-130 l 65,-2 37,40 c 3,-51 5,-23 -9,-63 l 31,78 c 27,46 -2,6 26,25 -1,-24 2,-4 -2,-34 -1,-4 -3,-15 -4,-18 -4,-22 -4,-23 -12,-40 -16,-36 -30,-45 5,-68 13,4 25,-20 44,71 4,23 0,28 3,47 l 23,42 c 35,-47 8,-24 16,-81 l 45,8 22,44 20,-9 c 3,-1 6,-3 9,-4 24,-7 22,-7 45,9 l -37,15 c 28,28 24,6 12,26 l 11,20 41,23 c -31,5 -7,10 -27,-7 3,19 62,2 73,-3 37,-16 11,-34 62,-59 39,12 45,27 85,42 l -1,8 -43,-84 c 5,-12 8,-173 34,-197 24,-22 45,4 48,4 -22,-28 3,-29 8,-37 l 145,19 13,-25 c -58,-2 -53,9 -87,-22 l -20,31 c -16,-17 -23,-22 -39,-43 l -34,35 c -18,-38 -14,-62 -41,-88 l 0,63 c -19,-6 -9,-9 -17,28 -2,-1 -57,-57 -42,75 4,29 18,28 14,64 l -20,42 -101,-108 c 7,52 0,17 -17,39 l -24,-31 z"
         id="path2214"
         inkscape:connector-curvature="0"
         style="fill:#c71927" /><path
         class="fil129"
         d="m 6893,16088 9,90 c 67,34 187,187 195,265 -71,-18 -137,-105 -199,-109 l 1,257 c 51,4 106,-1 156,4 40,5 79,27 120,40 l 0,-365 c -57,-22 -105,-54 -151,-92 -37,-29 -87,-92 -128,-107 l -3,17 z"
         id="path2216"
         inkscape:connector-curvature="0"
         style="fill:#698774" /><path
         class="fil130"
         d="m 5130,14052 c 81,-33 164,96 94,124 -90,35 -151,-101 -94,-124 z m 142,-69 c 6,56 -52,59 -41,-2 l 41,2 z m -46,-82 c -90,21 -193,51 -249,127 -57,78 -41,63 -22,76 12,-44 97,-115 149,-121 -89,103 -2,254 131,225 120,-25 141,-175 31,-254 64,-2 186,45 222,97 81,22 197,37 210,-78 -22,31 -62,67 -102,64 37,-40 90,-54 91,-125 -41,29 -55,74 -107,98 26,-46 53,-28 58,-91 -38,21 -37,48 -84,59 5,-37 13,-22 26,-57 -40,12 -37,36 -92,35 l 33,-37 -77,10 c 25,-26 14,-4 19,-37 -26,7 -46,18 -76,17 23,-26 13,0 13,-37 l -58,30 c -2,-6 -1,-8 -3,-16 -2,-15 2,-2 -4,-19 l -45,28 c -31,-29 -6,1 -64,6 z"
         id="path2218"
         inkscape:connector-curvature="0"
         style="fill:#34100b" /><path
         class="fil128"
         d="m 5057,12231 c 3,57 -12,53 -8,97 49,9 79,-6 117,28 -24,30 -128,72 -178,83 l -58,-30 -30,83 54,-21 c 46,10 2,-5 45,20 56,-23 57,-30 92,-72 23,3 12,7 35,16 l -38,120 26,-6 c 0,55 -26,38 -15,105 l 14,4 c 50,-14 50,-11 101,-17 l 34,-43 37,29 60,-25 35,11 c 13,-59 36,-52 49,-111 l 60,1 5,-1 c -21,-11 -28,6 -18,-39 -23,-5 -7,-31 -26,5 l -8,-53 -18,23 c -5,-10 -13,-22 -19,-34 -17,-35 -2,-18 -18,-27 -11,26 -20,36 -11,65 9,29 3,10 17,26 l 25,23 c -59,3 -59,-30 -48,-19 l -41,17 c -48,-112 -100,-78 -146,-107 -5,-70 -8,-17 20,-57 26,-34 -19,4 20,-27 -43,-19 -82,-103 -108,-142 -5,28 73,101 75,163 -70,-4 -52,-73 -104,-94 3,4 14,32 21,44 10,21 2,5 17,23 l 14,22 c -38,-17 -60,-52 -81,-83 z"
         id="path2220"
         inkscape:connector-curvature="0"
         style="fill:#c71927" /><path
         class="fil127"
         d="m 3577,14459 20,30 c -30,36 -9,2 -78,1 3,12 -19,21 46,50 32,-18 15,-18 49,-28 l 26,136 c -39,30 -54,25 -63,52 -12,38 5,19 6,19 -51,-16 -15,-48 -97,-79 -50,37 -13,36 -67,50 0,93 -65,85 -47,184 56,-4 18,13 45,-31 2,48 -7,45 24,78 7,-3 54,7 40,-80 -8,-46 -6,-44 3,-91 33,20 27,-16 27,50 27,-27 5,-7 21,-3 -38,23 -60,56 -58,103 2,62 4,30 21,52 54,-33 35,-44 41,-128 l 18,11 29,5 c -4,-42 -7,-24 8,-57 37,39 -1,-30 12,14 11,40 -18,92 36,143 28,-14 28,13 36,-40 7,-56 -58,-84 -32,-152 l 8,43 20,-9 39,42 -4,-96 2,-25 c 40,38 -1,8 46,20 -29,-84 -92,-174 -96,-267 -40,-46 13,-49 -66,-57 -9,40 8,21 -15,60 z"
         id="path2222"
         inkscape:connector-curvature="0"
         style="fill:#6d8e52" /><path
         class="fil131"
         d="m 3196,14880 32,-26 107,37 52,-11 117,89 c 0,59 -8,92 50,108 41,0 50,6 86,-13 10,-34 14,-91 -11,-113 47,-2 50,14 74,46 25,-40 7,-20 -7,-49 l -3,-10 c 0,-1 -1,-4 -1,-4 -1,-2 -8,-11 -10,-14 l 48,-3 33,-49 33,26 c 11,-23 24,-31 42,-46 l -11,-16 -73,-109 c -47,-12 -6,18 -46,-20 l -2,25 c 44,18 58,68 58,114 -53,35 -11,-3 -41,47 -50,-14 -53,-57 -72,-98 l -8,-43 c -26,68 39,96 32,152 -8,53 -8,26 -36,40 -54,-51 -25,-103 -36,-143 -13,-44 25,25 -12,-14 -15,33 -12,15 -8,57 32,70 50,150 11,218 -87,-13 -51,-161 -40,-223 l -18,-11 c -6,84 13,95 -41,128 -17,-22 -19,10 -21,-52 -2,-47 20,-80 58,-103 -16,-4 6,-24 -21,3 0,-66 6,-30 -27,-50 -9,47 -11,45 -3,91 14,87 -33,77 -40,80 -31,-33 -22,-30 -24,-78 -27,44 11,27 -45,31 -18,-99 47,-91 47,-184 54,-14 17,-13 67,-50 82,31 46,63 97,79 -1,0 -18,19 -6,-19 9,-27 24,-22 63,-52 l -26,-136 c -34,10 -17,10 -49,28 -65,-29 -43,-38 -46,-50 69,1 48,35 78,-1 l -20,-30 -33,-13 c 7,-68 10,0 24,-66 l -56,-19 c 18,101 -35,30 -6,113 1,2 7,79 -40,110 -33,21 -10,-2 -27,11 l -45,128 c -21,34 5,-2 -33,24 -31,21 -3,7 -21,23 l -65,40 c -23,15 -8,4 -25,35 l -54,35 z"
         id="path2224"
         inkscape:connector-curvature="0"
         style="fill:#4b7033" /><path
         class="fil132"
         d="m 4375,12585 -41,-18 9,48 9,73 c 3,-2 8,-7 9,-5 l 15,-9 c 8,-5 5,-7 24,-14 28,-10 48,-9 76,-7 -35,41 -101,48 -149,63 l 208,-26 c -11,-2 -99,41 -123,51 -43,18 -120,35 -146,50 53,6 191,-9 237,-25 13,-5 26,-14 37,-17 49,-13 21,-4 32,9 70,-23 149,-72 174,-144 l -34,-27 29,-30 -26,-81 c -1,-2 -2,-29 -3,-40 l -20,-11 -51,1 -22,-26 -22,11 c -12,74 -8,-13 -26,144 l -54,5 c -45,90 -63,60 -142,25 z"
         id="path2226"
         inkscape:connector-curvature="0"
         style="fill:#272326" /><path
         class="fil133"
         d="m 4422,14857 c 54,6 97,-9 151,-7 42,1 82,23 128,23 42,-1 93,-22 130,-23 37,-1 95,17 133,22 -21,41 -44,69 -82,88 -225,117 -301,21 -390,0 77,126 404,121 472,-43 l 24,-63 c 47,-6 90,-2 88,-50 -45,-11 -13,-16 -49,7 l -19,21 c -60,-2 -93,-48 -140,-78 -81,-54 -90,-15 -157,9 -60,-28 -93,-61 -164,-17 -56,35 -70,82 -143,77 -38,-34 -11,-32 -61,-36 2,55 25,47 79,70 z"
         id="path2228"
         inkscape:connector-curvature="0"
         style="fill:#93241b" /><path
         class="fil134"
         d="m 4200,12253 -2,12 c 46,-21 64,-71 109,-101 6,19 25,-14 -6,31 28,-23 16,-14 51,-16 -22,52 -128,106 -107,170 61,-62 55,-137 153,-163 -15,77 -51,105 -88,173 30,2 77,-101 112,-162 -35,76 -84,159 -55,201 35,-44 18,-72 59,-132 12,35 -24,94 -27,134 26,-11 39,-25 70,-19 24,-73 31,-176 93,-222 -17,56 -53,104 -55,171 54,-48 79,-205 142,-225 -31,4 -11,1 -39,14 l -32,7 c -47,-38 12,-1 -24,-36 -12,-12 -18,-15 -31,-31 -100,0 -117,-29 -198,-44 l 0,20 -18,18 c -6,50 -87,94 -118,138 33,15 -37,-16 19,6 14,5 10,2 23,11 l -31,45 z"
         id="path2230"
         inkscape:connector-curvature="0"
         style="fill:#e63649" /><path
         class="fil119"
         d="m 3915,14051 c 30,-49 161,-99 219,-96 -76,43 -102,143 -36,213 59,64 199,56 214,-38 l -1,-20 c -11,37 -21,50 -56,68 -41,21 -74,23 -101,-2 -46,-21 -67,-78 -44,-125 l 42,-9 49,1 45,56 c 24,-23 44,-49 18,-78 -38,8 -47,5 -43,-41 l 45,0 c 22,15 15,-2 19,26 l 15,-2 -16,-32 c 55,2 149,84 165,131 16,-17 29,4 -2,-45 -15,-24 -12,-16 -22,-43 -50,-22 -31,-44 -172,-90 -34,-11 -76,-22 -110,-29 -45,-10 -3,12 -43,-7 -28,-14 2,-13 -39,-15 l 16,26 c -56,1 -30,-15 -78,-16 l 17,29 -57,-16 -8,31 c 0,-1 0,2 0,5 l -66,-9 32,31 c -65,3 -48,-21 -95,-32 l 36,54 c -46,-3 -65,-33 -93,-63 5,56 46,64 61,100 -34,-11 -72,-68 -104,-94 4,65 51,76 86,117 -44,3 -78,-27 -102,-63 13,112 131,96 209,77 z"
         id="path2232"
         inkscape:connector-curvature="0"
         style="fill:#0d0a0d" /><path
         class="fil135"
         d="m 4859,16958 81,0 c 7,-165 81,-342 -88,-590 -40,6 -47,5 -72,35 -21,49 67,469 79,555 z"
         id="path2234"
         inkscape:connector-curvature="0"
         style="fill:#19518b" /><path
         class="fil134"
         d="m 4692,12425 20,11 31,-6 c 26,-7 56,-18 76,-35 32,-27 18,-41 57,-41 -51,23 -4,94 -2,113 9,86 -34,46 57,84 29,24 24,48 76,43 44,-5 45,-27 81,-39 l 38,-120 c -23,-9 -12,-13 -35,-16 -35,42 -36,49 -92,72 -43,-25 1,-10 -45,-20 l -54,21 30,-83 c -26,-22 -4,-2 -11,-32 -1,-5 -5,-11 -12,-27 l 34,-24 c 36,-54 57,-83 23,-149 -16,10 -18,-5 -19,17 -21,-14 -46,-39 -67,-58 -24,16 -13,14 -49,14 22,51 61,17 35,89 l -53,-50 c 8,37 47,76 56,105 -46,-28 -55,-72 -100,-86 l -14,42 -18,-61 c -5,74 26,99 34,164 l -26,-21 -7,37 -25,-60 -4,103 -20,-103 c -9,49 -11,69 5,116 z"
         id="path2236"
         inkscape:connector-curvature="0"
         style="fill:#e63649" /><path
         class="fil136"
         d="m 4673,11794 c 64,37 49,107 137,177 67,54 174,48 219,6 l -10,-21 21,-15 -22,-2 10,-22 -50,6 c -22,33 -2,18 -41,36 l -36,-16 c -28,35 -3,21 -39,19 l 18,-38 -48,-19 c 58,-80 31,-56 124,-93 l 20,-20 -41,-2 c -53,52 -117,7 -145,59 -140,-110 -76,-273 -46,-300 63,-27 30,-6 77,-12 l 28,9 c 23,-24 30,-38 50,-57 33,30 30,33 38,79 24,-5 78,6 105,13 l 18,51 c -12,-43 -1,-18 7,-30 l 60,24 c 58,-63 2,10 74,-55 67,16 28,24 85,41 l 19,45 49,-23 c -24,-6 -18,-4 -22,-27 l -95,-53 -120,32 c -28,-8 -41,-24 -70,-30 -33,-6 -57,1 -91,-8 l -18,-60 -60,-14 -13,25 -145,-19 c -5,8 -30,9 -8,37 -3,0 -24,-26 -48,-4 -26,24 -29,185 -34,197 l 43,84 z"
         id="path2238"
         inkscape:connector-curvature="0"
         style="fill:#910a0b" /><path
         class="fil134"
         d="m 5040,11941 -21,15 34,13 c -24,35 22,22 15,163 l -17,47 6,52 c 21,31 43,66 81,83 l -14,-22 c -15,-18 -7,-2 -17,-23 -7,-12 -18,-40 -21,-44 52,21 34,90 104,94 -2,-62 -80,-135 -75,-163 26,39 65,123 108,142 l -3,-30 c 49,-26 -36,-57 -78,-149 44,37 79,88 120,127 -6,-22 -15,-33 -29,-53 -20,-28 -20,-24 -27,-55 75,32 68,143 152,97 -6,-31 8,-11 -18,-42 l -69,-69 c -57,-72 -6,-64 -74,-102 36,4 154,53 173,85 l -18,-60 c 36,21 8,21 3,30 -46,-41 -32,-32 -83,-67 l 62,17 c -40,-32 -67,-48 -105,-75 -91,-25 -99,-17 -189,-11 z"
         id="path2240"
         inkscape:connector-curvature="0"
         style="fill:#e63649" /><path
         class="fil137"
         d="m 2625,15246 c -15,25 -12,699 -6,728 l 71,-10 c 69,-149 42,-206 47,-295 -21,-46 14,-49 -21,-108 -34,-56 -32,-263 -47,-334 l -44,19 z"
         id="path2242"
         inkscape:connector-curvature="0"
         style="fill:#99baa7" /><path
         class="fil138"
         d="m 5227,15850 17,37 c 66,15 80,-34 105,-153 10,-49 -9,-166 -7,-233 -38,-36 -29,-15 -33,-89 -5,-58 -23,-122 -12,-178 -15,-28 -7,-49 -13,-84 -33,1 -31,4 -56,27 l -1,673 z"
         id="path2244"
         inkscape:connector-curvature="0"
         style="fill:#adceb6" /><path
         class="fil120"
         d="m 2770,15513 c 37,24 80,170 89,214 l 54,179 c 56,-98 78,-430 -10,-593 -57,9 -134,138 -133,200 z"
         id="path2246"
         inkscape:connector-curvature="0"
         style="fill:#225522" /><path
         class="fil119"
         d="m 3868,13627 -72,74 65,-18 c 180,-31 471,37 636,111 l 24,-1 22,-80 c -36,-14 -83,-43 -137,-60 -115,-36 -234,-56 -355,-61 -114,-4 -89,-2 -183,35 z"
         id="path2248"
         inkscape:connector-curvature="0"
         style="fill:#0d0a0d" /><path
         class="fil119"
         d="m 4952,13702 c -23,33 -30,42 -19,86 l 5,19 62,-10 c 39,-40 244,-84 311,-98 162,-36 200,-16 347,10 -8,-44 -93,-75 -126,-101 -128,-28 -470,24 -580,94 z"
         id="path2250"
         inkscape:connector-curvature="0"
         style="fill:#0d0a0d" /><path
         class="fil139"
         d="m 4422,14857 c 15,37 37,83 70,103 89,21 165,117 390,0 38,-19 61,-47 82,-88 -38,-5 -96,-23 -133,-22 -37,1 -88,22 -130,23 -46,0 -86,-22 -128,-23 -54,-2 -97,13 -151,7 z"
         id="path2252"
         inkscape:connector-curvature="0"
         style="fill:#b12c2f" /><path
         class="fil134"
         d="m 4935,11790 c 33,-55 63,-112 38,-177 l -19,13 c 1,-34 0,-11 -3,-36 -27,7 -47,6 -34,37 5,-34 4,-66 -8,-100 -67,76 -40,97 -51,188 -26,-43 -21,-123 -37,-178 -47,6 -14,-15 -77,12 -30,27 -94,190 46,300 28,-52 92,-7 145,-59 z"
         id="path2254"
         inkscape:connector-curvature="0"
         style="fill:#e63649" /><path
         class="fil116"
         d="m 4394,15591 -10,107 11,4 c -2,41 -1,60 18,89 48,-60 44,-55 52,-98 23,-120 3,-164 108,-169 22,33 3,14 37,42 l 6,52 c 44,39 39,21 47,84 l 34,4 8,40 c 68,25 -9,0 75,46 42,-16 0,-5 45,-21 -21,-63 -107,-99 -121,-201 -21,-28 -20,-53 -21,-88 -5,40 7,23 -27,35 -20,-52 -29,5 -54,-83 l -122,-3 -22,77 c -32,4 -15,6 -41,-7 -8,31 -4,81 -23,90 z"
         id="path2256"
         inkscape:connector-curvature="0"
         style="fill:#daa575" /><path
         class="fil115"
         d="m 5797,15438 c 29,12 -4,140 -9,175 -8,68 -6,137 -19,204 34,-23 18,-102 33,-139 l 15,21 c 35,-33 54,-60 62,-117 l 27,-7 -18,-21 c 54,-7 79,-84 128,-151 -25,-13 -23,-11 -26,-10 10,-26 0,-1 22,-34 9,-12 12,-17 20,-35 -39,-33 -72,-33 -98,-73 -55,74 -106,88 -137,187 z"
         id="path2258"
         inkscape:connector-curvature="0"
         style="fill:#398a4e" /><path
         class="fil140"
         d="m 3915,14051 -3,26 c 47,20 15,19 48,51 51,52 130,89 207,91 80,18 249,3 299,-70 -8,-37 -5,-16 -17,-46 -16,-47 -110,-129 -165,-131 l 16,32 c 24,10 29,30 31,58 4,37 0,46 -19,68 -15,94 -155,102 -214,38 -66,-70 -40,-170 36,-213 -58,-3 -189,47 -219,96 z"
         id="path2260"
         inkscape:connector-curvature="0"
         style="fill:#f4f1ed" /><path
         class="fil140"
         d="m 4955,14104 c -7,16 -13,23 -17,45 43,72 223,87 298,69 157,-1 214,-108 257,-148 l -5,-19 c -36,-52 -158,-99 -222,-97 110,79 89,229 -31,254 -133,29 -220,-122 -131,-225 -52,6 -137,77 -149,121 z"
         id="path2262"
         inkscape:connector-curvature="0"
         style="fill:#f4f1ed" /><path
         class="fil137"
         d="m 2578,15945 c -11,-54 -39,-110 -49,-170 -10,-62 -14,-121 -34,-181 l -167,-5 c -1,48 23,214 54,246 33,35 156,100 196,110 z"
         id="path2264"
         inkscape:connector-curvature="0"
         style="fill:#99baa7" /><path
         class="fil120"
         d="m 6729,14490 -15,71 9,62 c 26,17 36,12 61,25 8,4 131,94 173,104 16,-61 39,-120 100,-149 -25,-71 -205,-99 -289,-116 -36,-7 -6,-14 -39,3 z"
         id="path2266"
         inkscape:connector-curvature="0"
         style="fill:#225522" /><path
         class="fil114"
         d="m 4214,16236 292,-85 11,-94 c -54,-27 -62,0 -113,-58 -64,-72 1,-87 -76,-116 -13,116 -92,223 -114,353 z"
         id="path2268"
         inkscape:connector-curvature="0"
         style="fill:#e6bb93" /><path
         class="fil132"
         d="m 6031,13176 c 58,-55 35,-57 76,-67 l -2,108 c 54,0 29,-20 81,-48 20,38 -7,13 17,52 38,-38 26,-63 60,-98 21,35 7,26 21,62 46,-78 14,-176 -68,-219 -12,19 -4,2 -11,25 -9,33 8,0 -9,33 l -52,-68 c -37,13 8,5 -38,29 -35,-26 -22,-47 -69,-65 -12,31 8,81 9,120 2,58 -9,85 -15,136 z"
         id="path2270"
         inkscape:connector-curvature="0"
         style="fill:#272326" /><path
         class="fil129"
         d="m 6897,15560 1,60 9,52 10,58 c 41,-7 84,-38 120,-57 41,-20 90,-34 138,-41 l 0,-74 c -60,-29 -70,-87 -129,-107 -61,13 -102,75 -149,109 z"
         id="path2272"
         inkscape:connector-curvature="0"
         style="fill:#698774" /><path
         class="fil132"
         d="m 3289,12848 c -34,-24 -8,0 -30,-34 l -60,62 c -19,-33 -10,-20 -4,-60 -90,15 -141,121 -103,196 l 23,-48 c 27,45 21,80 65,107 l 3,-54 c 47,21 27,59 81,60 l 6,-122 c 39,20 25,47 68,67 6,-44 -3,-82 3,-125 8,-46 30,-67 25,-112 -39,6 -47,35 -77,63 z"
         id="path2274"
         inkscape:connector-curvature="0"
         style="fill:#272326" /><path
         class="fil134"
         d="m 3669,12229 c -22,22 -21,29 -18,60 l 178,56 -40,31 40,8 c -9,15 -55,44 27,70 38,12 31,7 59,-15 l -4,39 11,-2 13,-119 c 1,-39 19,-41 33,-78 -15,-36 -7,2 -19,-42 l 48,-34 c -92,8 -143,-21 -221,-8 48,44 72,20 144,40 -100,17 -128,-19 -212,-31 30,59 38,22 81,45 l -120,-20 z"
         id="path2276"
         inkscape:connector-curvature="0"
         style="fill:#e63649" /><path
         class="fil124"
         d="m 3197,15515 c 8,49 -23,178 -24,246 l 13,0 c 2,38 15,70 15,82 l 9,-94 c 13,18 18,2 10,45 l 23,-167 c 14,32 1,15 34,14 l 19,-16 c 70,-94 100,-105 95,-183 29,-18 14,-7 43,-18 -9,-27 7,-6 -18,-28 -38,-29 -66,-39 -102,-58 -23,19 -42,56 -42,90 l -35,16 c 1,38 10,55 -18,78 -4,-20 6,-3 -14,-32 l -8,25 z"
         id="path2278"
         inkscape:connector-curvature="0"
         style="fill:#2f714e" /><path
         class="fil141"
         d="m 2237,13490 c -11,60 -22,189 1,243 42,5 123,6 161,-10 l 6,-50 c -32,-22 -21,-15 -57,-20 17,-68 84,-88 120,-146 42,-67 4,-49 57,-53 l -10,-68 c -24,23 -27,41 -34,77 -45,16 -198,35 -244,27 z"
         id="path2280"
         inkscape:connector-curvature="0"
         style="fill:#8cb295" /><path
         class="fil132"
         d="m 5818,12329 c 6,73 5,30 -22,73 -50,79 -35,31 -61,60 -23,26 16,0 -21,29 -63,22 -95,13 -150,-11 35,43 48,19 57,67 l 51,-3 c 5,15 12,36 17,49 l -36,-9 7,40 -21,19 c 38,2 68,73 92,106 26,-57 17,-112 -14,-170 11,6 50,-23 71,-37 1,-40 10,-28 -10,-55 46,-15 42,99 132,108 l -21,-74 c 42,-6 49,1 86,-15 l -126,-58 c 35,-16 82,-15 98,-40 -17,-6 -28,-8 -47,-11 -78,-11 -37,-3 -58,-18 32,-19 37,-11 63,-40 -24,-9 -36,-4 -61,4 l -26,-14 z"
         id="path2282"
         inkscape:connector-curvature="0"
         style="fill:#272326" /><path
         class="fil132"
         d="m 5600,13215 11,21 26,-2 c 21,59 92,80 139,114 -59,37 -9,6 -80,5 8,20 22,29 36,43 23,24 15,14 43,34 47,33 29,51 87,68 -4,-7 -32,-42 -43,-52 -7,-6 -29,-18 -34,-23 -39,-36 -14,-17 -19,-41 29,2 73,23 86,38 -9,-57 -122,-107 -144,-161 62,3 77,54 173,85 l 58,116 7,-77 c 32,19 15,98 65,131 l -3,-110 46,18 c -19,-81 -106,-168 -179,-197 0,17 1,34 3,50 3,43 12,11 -9,49 -34,-35 -133,-155 -177,-135 25,30 16,-3 42,42 -51,3 -64,-21 -112,-42 -15,39 0,10 -22,26 z"
         id="path2284"
         inkscape:connector-curvature="0"
         style="fill:#272326" /><path
         class="fil134"
         d="m 5524,12466 8,-8 -5,-35 27,14 c 3,2 7,3 10,4 17,6 37,-5 53,-10 8,-32 2,-17 25,-43 l -25,-22 39,-5 -34,-21 c 3,-25 6,-15 1,-37 25,-6 51,-10 78,-14 17,-3 30,-3 44,-5 l 44,-14 c -47,-27 -42,15 -121,1 25,-29 67,-29 110,-37 l -8,-23 -27,-24 c -95,7 -95,51 -219,28 49,-10 108,-3 150,-36 -60,-15 -147,6 -213,14 l 33,26 c -3,40 5,18 -19,49 l 25,34 c -30,16 -4,-1 -25,6 25,58 39,90 49,158 z"
         id="path2286"
         inkscape:connector-curvature="0"
         style="fill:#e63649" /><path
         class="fil126"
         d="m 4383,15331 11,260 c 19,-9 15,-59 23,-90 26,13 9,11 41,7 l 22,-77 122,3 c 25,88 34,31 54,83 34,-12 22,5 27,-35 1,35 0,60 21,88 -4,-55 -13,-129 18,-173 l 43,-1 -24,-18 c -73,26 -136,2 -206,-25 -61,-24 -101,-58 -163,-63 l 11,15 0,26 z"
         id="path2288"
         inkscape:connector-curvature="0"
         style="fill:#ce8d5a" /><path
         class="fil128"
         d="m 5532,12458 32,22 c 55,24 87,33 150,11 37,-29 -2,-3 21,-29 26,-29 11,19 61,-60 27,-43 28,0 22,-73 -40,-36 -16,-48 -23,-99 l -25,-19 8,23 c -43,8 -85,8 -110,37 79,14 74,-28 121,-1 l -44,14 c -14,2 -27,2 -44,5 -27,4 -53,8 -78,14 5,22 2,12 -1,37 l 34,21 -39,5 25,22 c -23,26 -17,11 -25,43 -16,5 -36,16 -53,10 -3,-1 -7,-2 -10,-4 l -27,-14 5,35 z"
         id="path2290"
         inkscape:connector-curvature="0"
         style="fill:#c71927" /><path
         class="fil137"
         d="m 2578,13467 c 68,12 200,62 255,31 78,45 33,38 137,46 64,4 124,5 187,-10 -73,-56 -205,-84 -216,-128 l -61,16 -10,-19 c -31,19 -21,24 -58,31 l -36,-26 5,24 c -60,4 -157,5 -203,35 z"
         id="path2292"
         inkscape:connector-curvature="0"
         style="fill:#99baa7" /><path
         class="fil134"
         d="m 5683,12053 2,-33 c -15,-13 -48,-88 -83,-106 l -63,-8 c -30,-32 -23,-40 -74,-52 -55,-2 -43,-9 -76,-16 l -86,63 c -52,43 -15,7 -17,42 l 121,-66 c 19,53 0,52 -41,88 l 31,46 c 15,-35 -1,-43 38,-63 14,37 -2,44 -6,77 26,-37 22,-65 54,-96 0,39 0,29 -15,65 25,12 17,13 46,18 69,-73 -29,9 60,-45 -1,32 11,47 -20,81 l 26,19 c -53,23 -21,-4 -34,36 50,5 101,-17 137,-50 z"
         id="path2294"
         inkscape:connector-curvature="0"
         style="fill:#e63649" /><path
         class="fil142"
         d="m 4591,16093 c 53,-32 86,-14 96,44 -21,30 -28,39 -64,44 -44,-22 -50,-43 -32,-88 z m -263,-210 c 77,29 12,44 76,116 51,58 59,31 113,58 l -11,94 18,-3 c 13,95 103,86 140,93 39,-32 25,-7 56,-46 36,-45 -2,-27 31,-56 l -14,-28 c -14,26 0,9 -22,17 l -20,-63 c -46,-18 -34,-22 -76,-8 l -13,-24 c -1,-2 -3,-3 -3,-6 -1,-3 -3,-3 -4,-5 -42,7 -30,20 -72,15 l 5,-49 c -59,67 -125,-34 -129,-84 l 34,-15 c -43,-20 -32,-10 -69,-38 l 4,16 -34,-14 -10,30 z"
         id="path2296"
         inkscape:connector-curvature="0"
         style="fill:#8d6e54" /><path
         class="fil143"
         d="m 5088,12555 c -36,12 -37,34 -81,39 -52,5 -47,-19 -76,-43 -21,21 14,3 -37,25 23,26 58,44 91,57 l -70,-6 23,45 -127,-29 c -14,32 132,124 132,124 42,18 194,61 228,47 -57,-17 -140,-47 -175,-92 l 115,21 c -37,-5 -97,-41 -113,-69 71,-2 119,39 184,45 -18,-7 -14,-8 -30,-16 -48,-26 -29,-3 -39,-45 l -14,-4 c -11,-67 15,-50 15,-105 l -26,6 z"
         id="path2298"
         inkscape:connector-curvature="0"
         style="fill:#453c42" /><path
         class="fil134"
         d="m 4450,11559 24,31 c 17,-22 24,13 17,-39 l 101,108 20,-42 c 4,-36 -10,-35 -14,-64 -15,-132 40,-76 42,-75 8,-37 -2,-34 17,-28 l 0,-63 c 27,26 23,50 41,88 l 34,-35 c 16,21 23,26 39,43 l 20,-31 -2,-40 c -38,-28 -43,-23 -88,-24 -44,-34 -54,-51 -99,5 -70,5 -116,-3 -119,134 -43,27 -14,-5 -33,32 z"
         id="path2300"
         inkscape:connector-curvature="0"
         style="fill:#e63649" /><path
         class="fil134"
         d="m 4092,11814 34,27 25,7 13,-15 1,-30 38,-12 -12,-59 33,44 c 41,-32 -7,2 53,-9 l 9,42 54,5 c 15,17 38,45 59,39 -31,-29 -44,-31 -55,-72 l 110,25 c 20,17 -4,12 27,7 l -41,-23 -11,-20 c 12,-20 16,2 -12,-26 l 37,-15 c -23,-16 -21,-16 -45,-9 -3,1 -6,3 -9,4 l -20,9 -22,-44 -45,-8 c -8,57 19,34 -16,81 l -23,-42 c -3,-19 1,-24 -3,-47 -19,-91 -31,-67 -44,-71 -35,23 -21,32 -5,68 8,17 8,18 12,40 1,3 3,14 4,18 4,30 1,10 2,34 -28,-19 1,21 -26,-25 l -31,-78 c 14,40 12,12 9,63 l -37,-40 -65,2 c -34,62 -10,68 2,130 z"
         id="path2302"
         inkscape:connector-curvature="0"
         style="fill:#e63649" /><path
         class="fil128"
         d="m 3662,12460 41,14 18,34 c 27,3 52,13 75,16 34,4 41,-10 78,-14 l 37,-32 4,-39 c -28,22 -21,27 -59,15 -82,-26 -36,-55 -27,-70 l -40,-8 40,-31 -178,-56 c -6,35 -29,73 -29,98 2,41 30,47 40,73 z"
         id="path2304"
         inkscape:connector-curvature="0"
         style="fill:#c71927" /><path
         class="fil137"
         d="m 2328,15371 -6,152 c 49,26 116,41 167,45 -6,-123 4,-142 17,-254 -50,3 -138,36 -178,57 z"
         id="path2306"
         inkscape:connector-curvature="0"
         style="fill:#99baa7" /><path
         class="fil113"
         d="m 2455,13981 c 61,-56 292,-120 370,-157 17,-45 28,-76 18,-122 -123,-13 -373,223 -388,279 z"
         id="path2308"
         inkscape:connector-curvature="0"
         style="fill:#238c33" /><path
         class="fil138"
         d="m 5031,15253 -96,56 1,135 c 50,25 110,42 164,45 -7,-126 6,-142 17,-259 l -86,23 z"
         id="path2310"
         inkscape:connector-curvature="0"
         style="fill:#adceb6" /><path
         class="fil134"
         d="m 4375,12585 c 79,35 97,65 142,-25 l 54,-5 c 18,-157 14,-70 26,-144 l 22,-11 c 0,-20 4,-48 3,-62 -1,-20 0,-13 -6,-30 -23,-65 22,23 -15,-18 -28,35 -36,87 -33,134 l -67,25 56,68 c -46,-27 -42,-31 -75,-30 l -9,35 c -25,-10 -19,-14 -46,-24 -15,-5 -10,1 -32,-19 -28,-28 -34,-59 -73,-56 -12,27 -15,2 -2,48 19,63 20,70 55,114 z"
         id="path2312"
         inkscape:connector-curvature="0"
         style="fill:#e63649" /><path
         class="fil122"
         d="m 5345,12602 c 57,64 55,53 137,65 l 47,40 c 56,-14 75,-26 110,-64 l 21,-19 -7,-40 c -9,9 -6,-3 -19,19 l -25,-32 c -22,26 3,8 -27,13 -32,-39 -48,-29 -95,-51 l 2,-30 -60,-1 c -13,59 -36,52 -49,111 l -35,-11 z"
         id="path2314"
         inkscape:connector-curvature="0"
         style="fill:#b81417" /><path
         class="fil120"
         d="m 3246,14948 -39,-28 -27,-9 c -35,47 -131,141 -140,197 27,16 19,23 109,81 32,-29 44,-66 67,-102 48,-78 20,-47 25,-115 16,37 -5,16 25,26 0,-30 -4,-30 -20,-50 z"
         id="path2316"
         inkscape:connector-curvature="0"
         style="fill:#225522" /><path
         class="fil134"
         d="m 4095,12619 c 52,8 32,7 72,24 l 25,-37 -31,-41 32,-8 c 2,56 5,71 48,102 68,-8 53,-1 111,29 l -9,-73 -73,-165 c -16,76 16,146 -15,192 -26,-59 15,-88 -17,-142 -20,42 -6,41 -11,87 -38,-32 -23,-48 -20,-95 l -33,36 8,-64 -33,-11 -17,40 -55,3 -18,99 c 5,8 9,20 36,24 z"
         id="path2318"
         inkscape:connector-curvature="0"
         style="fill:#e63649" /><path
         class="fil143"
         d="m 5839,13034 38,-40 c 34,55 -12,46 11,99 52,-150 119,-204 27,-368 -20,28 -1,17 -26,43 l -49,-78 c -12,24 -9,309 -1,344 z"
         id="path2320"
         inkscape:connector-curvature="0"
         style="fill:#453c42" /><path
         class="fil118"
         d="m 3930,11871 c 35,-8 9,4 37,-21 l 44,-54 0,-42 c -71,-64 -81,-167 -103,-257 -5,10 -87,190 -90,200 34,57 98,99 112,174 z"
         id="path2322"
         inkscape:connector-curvature="0"
         style="fill:#b4f1f8;fill-opacity:1" /><path
         class="fil129"
         d="m 6673,16426 -8,209 c 38,6 94,-19 135,-28 14,-38 8,-73 9,-114 0,-50 9,-69 -17,-108 -44,-9 -84,15 -119,41 z"
         id="path2324"
         inkscape:connector-curvature="0"
         style="fill:#698774" /><path
         class="fil125"
         d="m 5041,16958 227,0 c -18,-40 -42,-55 -53,-101 -35,-50 -51,-146 -65,-212 l -109,313 z"
         id="path2326"
         inkscape:connector-curvature="0"
         style="fill:#369639" /><path
         class="fil132"
         d="m 5875,12654 c 41,30 78,49 124,88 37,32 61,74 98,102 11,-60 -4,-50 -7,-97 38,15 49,39 90,41 9,-152 -198,-209 -305,-134 z"
         id="path2328"
         inkscape:connector-curvature="0"
         style="fill:#272326" /><path
         class="fil132"
         d="m 3228,12645 c 41,-4 64,-19 98,-40 -2,49 -22,41 -16,99 36,-21 71,-68 110,-95 38,-26 113,-58 130,-72 -107,-85 -322,-34 -322,108 z"
         id="path2330"
         inkscape:connector-curvature="0"
         style="fill:#272326" /><path
         class="fil128"
         d="m 3776,12028 -15,-2 -2,53 -31,21 40,35 c 78,38 86,-12 141,-14 l -6,-22 42,-1 c 12,0 17,-1 26,-1 29,1 11,6 39,4 -31,-47 -1,-34 5,-49 5,-15 5,-37 11,-60 l 26,40 c 28,-42 -8,-9 4,-81 -38,20 -29,23 -53,2 1,15 2,15 0,29 l -32,-46 c -24,36 4,57 4,85 0,22 -6,20 -17,27 -33,18 -35,-21 -81,-67 -1,2 -32,-2 -4,32 -1,-21 -5,-15 -32,-17 l 19,35 c -13,-3 -21,-3 -37,-12 l -22,-18 c 1,2 3,5 4,6 l 12,18 c 12,17 2,5 15,18 5,5 27,21 36,28 -30,-18 -56,-42 -92,-43 z"
         id="path2332"
         inkscape:connector-curvature="0"
         style="fill:#c71927" /><path
         class="fil144"
         d="m 6957,14752 c 7,15 121,122 141,123 l 40,-222 c -31,-21 -48,-44 -81,-50 -61,29 -84,88 -100,149 z"
         id="path2334"
         inkscape:connector-curvature="0"
         style="fill:#557965" /><path
         class="fil138"
         d="m 4949,15627 c 34,19 64,22 104,50 33,23 56,53 83,71 21,-12 -19,-199 -30,-236 l -170,1 13,114 z"
         id="path2336"
         inkscape:connector-curvature="0"
         style="fill:#adceb6" /><path
         class="fil145"
         d="m 2870,13403 10,19 61,-16 c 47,-19 97,-84 138,-119 l 147,0 20,-46 c -69,-3 -66,0 -126,-30 -70,-5 -50,-10 -79,-54 -31,63 -116,209 -171,246 z"
         id="path2338"
         inkscape:connector-curvature="0"
         style="fill:#b4f1f8;fill-opacity:1" /><path
         class="fil143"
         d="m 3526,12656 -19,-53 c -62,75 -105,230 -21,304 23,-31 43,-37 52,-58 19,-39 67,-242 47,-280 l -59,87 z"
         id="path2340"
         inkscape:connector-curvature="0"
         style="fill:#453c42" /><path
         class="fil146"
         d="m 4645,16958 75,0 c 1,-137 17,-271 0,-406 -42,-33 -33,-27 -37,-89 -2,-38 -8,-80 -26,-109 28,172 2,425 -12,604 z"
         id="path2342"
         inkscape:connector-curvature="0"
         style="fill:#8c948a" /><path
         class="fil123"
         d="m 6807,15316 c 1,53 -7,129 13,176 21,49 48,72 62,128 l 16,0 -1,-60 c 3,-74 -1,-150 1,-225 1,-81 -17,-111 -90,-136 l -1,117 z"
         id="path2344"
         inkscape:connector-curvature="0"
         style="fill:#28250b" /><path
         class="fil138"
         d="m 5710,15586 c -10,93 -48,130 -30,235 l 81,-3 8,-1 c 13,-67 11,-136 19,-204 5,-35 38,-163 9,-175 l -87,148 z"
         id="path2346"
         inkscape:connector-curvature="0"
         style="fill:#adceb6" /><path
         class="fil137"
         d="m 6310,16907 c 0,-196 22,-147 35,-227 l -33,-40 c -2,2 -4,5 -5,6 0,2 -3,5 -3,7 l -38,-21 c -58,76 -82,119 -56,180 -19,11 8,-5 -31,6 13,67 66,80 131,89 z"
         id="path2348"
         inkscape:connector-curvature="0"
         style="fill:#99baa7" /><path
         class="fil138"
         d="m 3118,15900 41,-3 14,-136 c 1,-68 32,-197 24,-246 -78,88 -147,264 -128,386 l 49,-1 z"
         id="path2350"
         inkscape:connector-curvature="0"
         style="fill:#adceb6" /><path
         class="fil129"
         d="m 7175,16169 0,-169 c -69,-4 -213,-49 -270,-24 -3,32 22,31 54,50 26,14 48,30 72,47 47,32 90,73 144,96 z"
         id="path2352"
         inkscape:connector-curvature="0"
         style="fill:#698774" /><path
         class="fil129"
         d="m 6902,16747 -4,70 c 44,2 84,-23 126,-36 49,-16 99,-22 151,-26 l 0,-103 c -144,2 -163,34 -273,95 z"
         id="path2354"
         inkscape:connector-curvature="0"
         style="fill:#698774" /><path
         class="fil138"
         d="m 5830,16386 c -77,124 75,362 106,371 10,-239 28,-161 -55,-286 l -38,-70 c -16,-26 -2,-4 -13,-15 z"
         id="path2356"
         inkscape:connector-curvature="0"
         style="fill:#adceb6" /><path
         class="fil134"
         d="m 3930,11871 0,14 -20,36 c -70,11 -117,32 -134,107 36,1 62,25 92,43 -9,-7 -31,-23 -36,-28 -13,-13 -3,-1 -15,-18 l -12,-18 c -1,-1 -3,-4 -4,-6 l 22,18 c 16,9 24,9 37,12 l -19,-35 c 27,2 31,-4 32,17 -28,-34 3,-30 4,-32 46,46 48,85 81,67 11,-7 17,-5 17,-27 0,-28 -28,-49 -4,-85 l 32,46 c 2,-14 1,-14 0,-29 24,21 15,18 53,-2 l 6,-70 c -43,-15 -35,-18 -86,-10 l -9,-21 c -28,25 -2,13 -37,21 z"
         id="path2358"
         inkscape:connector-curvature="0"
         style="fill:#e63649" /><path
         class="fil137"
         d="m 2328,15147 4,74 213,-3 c 18,-43 36,-100 33,-142 -36,3 -221,53 -250,71 z"
         id="path2360"
         inkscape:connector-curvature="0"
         style="fill:#99baa7" /><path
         class="fil138"
         d="m 3314,16816 10,-36 10,-139 c -41,-53 -84,-137 -115,-176 -68,119 28,245 76,350 l 19,1 z"
         id="path2362"
         inkscape:connector-curvature="0"
         style="fill:#adceb6" /><path
         class="fil129"
         d="m 5521,15233 41,130 31,-14 c 0,-18 29,-133 37,-155 17,-49 47,-102 47,-150 -36,-9 -39,-18 -66,14 -46,56 -75,86 -90,175 z"
         id="path2364"
         inkscape:connector-curvature="0"
         style="fill:#698774" /><path
         class="fil115"
         d="m 5660,11445 c 21,-38 94,10 147,-29 12,-64 -87,-75 -136,-97 l -203,0 c 32,31 55,36 94,58 36,21 70,50 98,68 z"
         id="path2366"
         inkscape:connector-curvature="0"
         style="fill:#398a4e" /><path
         class="fil147"
         d="m 4956,11812 c -93,37 -66,13 -124,93 l 48,19 -18,38 c 36,2 11,16 39,-19 l 36,16 c 39,-18 19,-3 41,-36 l 50,-6 33,-44 -25,-20 60,-9 -36,-18 c 32,-29 40,-13 44,-66 l -55,51 c 4,-6 8,-10 9,-18 6,-49 5,0 -8,-26 -33,45 -3,44 -51,76 l -7,-36 -36,5 z"
         id="path2368"
         inkscape:connector-curvature="0"
         style="fill:#dfad53" /><path
         class="fil120"
         d="m 6898,16817 12,90 95,5 c 8,-46 126,-94 170,-109 l 0,-48 c -52,4 -102,10 -151,26 -42,13 -82,38 -126,36 z"
         id="path2370"
         inkscape:connector-curvature="0"
         style="fill:#225522" /><path
         class="fil112"
         d="m 3314,15338 c 36,19 64,29 102,58 l 42,3 c 69,-76 59,-86 27,-174 -54,5 -42,35 -93,-3 -7,78 -59,9 -78,116 z"
         id="path2372"
         inkscape:connector-curvature="0"
         style="fill:#17772a" /><path
         class="fil120"
         d="m 6665,16635 6,165 136,-18 -1,-178 -6,3 c -41,9 -97,34 -135,28 z"
         id="path2374"
         inkscape:connector-curvature="0"
         style="fill:#225522" /><path
         class="fil130"
         d="m 5096,11844 -60,9 25,20 -33,44 -10,22 22,2 c 90,-6 98,-14 189,11 l 47,-3 -22,-44 -18,-51 c -39,-31 -26,-17 -50,-60 -39,13 -16,31 -90,50 z"
         id="path2376"
         inkscape:connector-curvature="0"
         style="fill:#34100b" /><path
         class="fil148"
         d="m 5824,14833 21,20 c -6,55 -32,121 38,126 l 7,-60 c 30,16 13,14 49,20 7,-45 -1,-47 -15,-91 l 22,-36 -46,-17 -78,-18 c 24,-19 24,-8 22,-6 l -8,-39 c -44,21 -24,58 -117,45 -25,-25 -41,-47 -74,-51 7,29 55,61 74,82 -13,5 -9,-4 7,1 79,22 7,-6 86,-13 l 12,37 z"
         id="path2378"
         inkscape:connector-curvature="0"
         style="fill:#b2ae72" /><path
         class="fil142"
         d="m 4543,13713 -22,80 -24,1 60,33 c 34,-26 22,-1 17,-42 l 11,47 18,-21 c 27,16 31,35 70,37 109,6 106,16 83,-100 l -43,22 -27,-22 c -4,47 -6,20 -20,32 l -2,-44 c -61,41 4,13 -49,-12 -25,-12 -29,-7 -50,2 l -22,-13 z"
         id="path2380"
         inkscape:connector-curvature="0"
         style="fill:#8d6e54" /><path
         class="fil145"
         d="m 6729,13104 -7,64 c 29,-1 51,-12 80,-26 17,-69 12,-108 49,-179 32,-61 23,-35 -3,-54 l -109,28 -10,167 z"
         id="path2382"
         inkscape:connector-curvature="0"
         style="fill:#b4f1f8;fill-opacity:1" /><path
         class="fil117"
         d="m 6902,16747 c 110,-61 129,-93 273,-95 l 0,-17 c -41,-13 -80,-35 -120,-40 -50,-5 -105,0 -156,-4 l 3,156 z"
         id="path2384"
         inkscape:connector-curvature="0"
         style="fill:#15643a" /><path
         class="fil149"
         d="m 4694,14502 69,-19 c 34,-22 15,-15 58,-18 -27,-55 -49,-120 -62,-179 -7,9 -19,2 -10,30 l -17,-31 -32,50 c -12,17 -27,27 -41,39 l 2,101 c 24,23 25,7 0,25 l 33,2 z"
         id="path2386"
         inkscape:connector-curvature="0"
         style="fill:#efcfb2" /><path
         class="fil117"
         d="m 6898,16334 c 62,4 128,91 199,109 -8,-78 -128,-231 -195,-265 l -4,156 z"
         id="path2388"
         inkscape:connector-curvature="0"
         style="fill:#15643a" /><path
         class="fil137"
         d="m 3082,16255 17,-112 -29,-131 -73,2 c -15,80 25,247 73,311 l 12,-70 z"
         id="path2390"
         inkscape:connector-curvature="0"
         style="fill:#99baa7" /><path
         class="fil138"
         d="m 5666,16206 19,47 10,-77 c 22,-95 7,-91 6,-173 l -24,-70 -67,4 c -11,70 14,209 56,269 z"
         id="path2392"
         inkscape:connector-curvature="0"
         style="fill:#adceb6" /><path
         class="fil129"
         d="m 7175,15911 0,-158 c -40,12 -76,42 -116,60 -46,22 -108,27 -141,47 37,27 202,47 257,51 z"
         id="path2394"
         inkscape:connector-curvature="0"
         style="fill:#698774" /><path
         class="fil150"
         d="m 4203,15389 -2,-111 c -36,-24 -63,-19 -106,-16 -33,41 -45,42 -37,103 23,27 41,59 70,73 34,-7 49,-28 75,-49 z"
         id="path2396"
         inkscape:connector-curvature="0"
         style="fill:#739586" /><path
         class="fil128"
         d="m 4126,11841 -4,17 -45,35 -15,-12 -6,70 c 6,9 2,-3 11,21 l 16,83 30,-3 c 11,-16 -14,-18 17,-13 -39,-5 -15,9 -28,-20 17,-8 97,-65 92,-76 -1,-2 -12,-20 -14,-23 42,-15 15,-9 39,-20 25,-11 15,-4 40,-9 1,-21 9,-22 -31,-31 -31,-7 -40,-6 -68,2 l 4,-29 -13,15 -25,-7 z"
         id="path2398"
         inkscape:connector-curvature="0"
         style="fill:#c71927" /><path
         class="fil151"
         d="m 4694,14502 c -35,27 -73,17 -122,23 17,118 322,78 248,-43 l -57,1 -69,19 z"
         id="path2400"
         inkscape:connector-curvature="0"
         style="fill:#a89056" /><path
         class="fil136"
         d="m 4941,12326 -34,24 c 7,16 11,22 12,27 7,30 -15,10 11,32 l 58,30 c 50,-11 154,-53 178,-83 -38,-34 -68,-19 -117,-28 -16,-17 -77,5 -103,18 l -5,-20 z"
         id="path2402"
         inkscape:connector-curvature="0"
         style="fill:#910a0b" /><path
         class="fil137"
         d="m 6355,16667 c 30,-33 115,-178 119,-214 -20,-24 -26,-30 -51,-39 -125,174 -136,143 -68,253 z"
         id="path2404"
         inkscape:connector-curvature="0"
         style="fill:#99baa7" /><path
         class="fil129"
         d="m 6807,15316 1,-117 c -54,-16 -59,-23 -122,-10 l -22,89 66,76 77,-38 z"
         id="path2406"
         inkscape:connector-curvature="0"
         style="fill:#698774" /><path
         class="fil152"
         d="m 4105,12106 c -13,32 -13,23 -48,32 -2,38 -2,70 18,104 146,25 32,39 123,23 l 2,-12 c -6,-12 -29,-71 -27,-89 3,-20 33,-83 2,-86 l -18,35 -24,-20 -28,13 z"
         id="path2408"
         inkscape:connector-curvature="0"
         style="fill:#4d2e16" /><path
         class="fil130"
         d="m 4964,12177 c 34,66 13,95 -23,149 l 5,20 c 26,-13 87,-35 103,-18 -4,-44 11,-40 8,-97 l -6,-52 -25,-63 -79,2 17,59 z"
         id="path2410"
         inkscape:connector-curvature="0"
         style="fill:#34100b" /><path
         class="fil137"
         d="m 6132,16660 c 13,-62 45,-116 53,-160 l -70,-83 c -77,69 -64,184 17,243 z"
         id="path2412"
         inkscape:connector-curvature="0"
         style="fill:#99baa7" /><path
         class="fil138"
         d="m 5964,16766 c 23,20 128,59 162,62 -3,-86 -30,-148 -111,-189 l -51,127 z"
         id="path2414"
         inkscape:connector-curvature="0"
         style="fill:#adceb6" /><path
         class="fil141"
         d="m 6471,16911 14,-3 c 9,-92 79,-93 65,-197 -54,34 -170,136 -180,200 l 101,0 z"
         id="path2416"
         inkscape:connector-curvature="0"
         style="fill:#8cb295" /><path
         class="fil129"
         d="m 6671,16800 1,107 c 40,7 93,8 135,-5 l 0,-120 -136,18 z"
         id="path2418"
         inkscape:connector-curvature="0"
         style="fill:#698774" /><path
         class="fil152"
         d="m 4264,14021 c 26,29 6,55 -18,78 l -45,-56 -49,-1 c 8,60 51,50 89,75 l -5,41 c -33,25 -40,19 -82,18 27,25 60,23 101,2 35,-18 45,-31 56,-68 l 1,20 c 19,-22 23,-31 19,-68 -2,-28 -7,-48 -31,-58 l -15,2 c -4,-28 3,-11 -19,-26 l -2,41 z"
         id="path2420"
         inkscape:connector-curvature="0"
         style="fill:#4d2e16" /><path
         class="fil129"
         d="m 6671,16027 c 24,11 35,18 57,32 32,21 42,26 76,33 l 4,-106 c -46,-36 -78,-54 -138,-47 l 1,88 z"
         id="path2422"
         inkscape:connector-curvature="0"
         style="fill:#698774" /><path
         class="fil147"
         d="m 4130,12039 c -31,-5 -6,-3 -17,13 l 31,1 -39,53 28,-13 24,20 18,-35 15,-24 c 41,6 3,5 29,9 37,-21 63,-26 106,-28 l 0,-20 -14,-9 c -5,-44 5,-34 -27,-66 -51,15 -17,11 -55,37 -49,33 -58,8 -65,42 l -34,20 z"
         id="path2424"
         inkscape:connector-curvature="0"
         style="fill:#dfad53" /><path
         class="fil118"
         d="m 6920,13099 c 35,1 107,-23 137,-39 -18,-70 -11,-110 -101,-118 -36,67 -24,88 -36,157 z"
         id="path2426"
         inkscape:connector-curvature="0"
         style="fill:#b4f1f8;fill-opacity:1" /><path
         class="fil137"
         d="m 2443,14984 c 35,18 123,12 165,-1 24,-46 13,-52 7,-103 l 1,-29 c -37,1 -83,12 -98,50 -25,65 -6,54 -75,83 z"
         id="path2428"
         inkscape:connector-curvature="0"
         style="fill:#99baa7" /><path
         class="fil129"
         d="m 6671,16207 c 21,27 33,39 55,71 29,42 28,46 81,51 l 0,-95 c -34,-26 -101,-97 -135,-106 l -1,79 z"
         id="path2430"
         inkscape:connector-curvature="0"
         style="fill:#698774" /><path
         class="fil153"
         d="m 2492,12651 122,-14 9,-27 c 15,-54 45,-119 41,-172 -46,45 -149,153 -172,213 z"
         id="path2432"
         inkscape:connector-curvature="0"
         style="fill:#b4f1f8;fill-opacity:1" /><path
         class="fil152"
         d="m 3788,12655 c 4,-51 -1,-24 12,-29 l 8,-27 -52,4 c 37,-27 9,1 24,-40 l 61,-2 c 17,-32 3,-18 33,-51 -37,4 -44,18 -78,14 -23,-3 -48,-13 -75,-16 l -18,-34 -41,-14 c -3,37 5,24 6,45 0,6 -2,31 -2,41 25,24 40,33 63,51 l 6,7 c 42,39 15,-2 42,34 l 11,17 z"
         id="path2434"
         inkscape:connector-curvature="0"
         style="fill:#4d2e16" /><path
         class="fil145"
         d="m 6297,12987 c 22,69 46,115 23,192 2,36 -11,14 12,29 l 93,-27 -99,-232 -29,38 z"
         id="path2436"
         inkscape:connector-curvature="0"
         style="fill:#b4f1f8;fill-opacity:1" /><path
         class="fil142"
         d="m 5130,14052 c -57,23 4,159 94,124 70,-28 -13,-157 -94,-124 z"
         id="path2438"
         inkscape:connector-curvature="0"
         style="fill:#8d6e54" /><path
         class="fil154"
         d="m 5771,15119 c -2,-45 10,-75 5,-126 -5,-47 -24,-79 -26,-108 -10,-19 -4,-17 -11,5 -7,68 -87,145 -18,238 l 50,-9 z"
         id="path2440"
         inkscape:connector-curvature="0"
         style="fill:#e1cd5d" /><path
         class="fil124"
         d="m 2130,14933 119,0 c -4,-28 -13,-41 -7,-70 6,-26 9,-3 12,-50 l -124,4 0,116 z"
         id="path2442"
         inkscape:connector-curvature="0"
         style="fill:#2f714e" /><path
         class="fil138"
         d="m 5903,16167 c -2,52 48,180 82,216 l 30,-98 -84,-156 -28,38 z"
         id="path2444"
         inkscape:connector-curvature="0"
         style="fill:#adceb6" /><path
         class="fil138"
         d="m 3369,16460 35,-96 -79,-155 c -49,47 -38,62 -14,121 20,50 30,83 58,130 z"
         id="path2446"
         inkscape:connector-curvature="0"
         style="fill:#adceb6" /><path
         class="fil154"
         d="m 3583,14840 -29,-5 c -11,62 -47,210 40,223 39,-68 21,-148 -11,-218 z"
         id="path2448"
         inkscape:connector-curvature="0"
         style="fill:#e1cd5d" /><path
         class="fil129"
         d="m 6562,16393 1,-11 c 5,-53 14,-131 -10,-178 -37,10 -8,-23 -48,66 -41,89 -40,59 15,148 l 42,-25 z"
         id="path2450"
         inkscape:connector-curvature="0"
         style="fill:#698774" /><path
         class="fil134"
         d="m 5236,11854 18,51 26,5 c 27,-53 114,-99 111,-184 -56,-15 -56,21 -86,58 -26,33 -51,26 -69,70 z"
         id="path2452"
         inkscape:connector-curvature="0"
         style="fill:#e63649" /><path
         class="fil136"
         d="m 4175,12078 c 31,3 1,66 -2,86 -2,18 21,77 27,89 l 31,-45 c -13,-9 -9,-6 -23,-11 -56,-22 14,9 -19,-6 31,-44 112,-88 118,-138 l 18,-18 c -43,2 -69,7 -106,28 -26,-4 12,-3 -29,-9 l -15,24 z"
         id="path2454"
         inkscape:connector-curvature="0"
         style="fill:#910a0b" /><path
         class="fil147"
         d="m 5524,12466 -30,36 -5,1 -2,30 c 47,22 63,12 95,51 30,-5 5,13 27,-13 l 25,32 c 13,-22 10,-10 19,-19 l 36,9 c -5,-13 -12,-34 -17,-49 l -51,3 c -9,-48 -22,-24 -57,-67 l -32,-22 -8,8 z"
         id="path2456"
         inkscape:connector-curvature="0"
         style="fill:#dfad53" /><path
         class="fil142"
         d="m 4154,14176 c 42,1 49,7 82,-18 l 5,-41 c -38,-25 -81,-15 -89,-75 l -42,9 c -23,47 -2,104 44,125 z"
         id="path2458"
         inkscape:connector-curvature="0"
         style="fill:#8d6e54" /><path
         class="fil137"
         d="m 6007,15995 73,121 c 33,-15 15,-160 -3,-206 l -31,-1 c -26,22 -33,53 -39,86 z"
         id="path2460"
         inkscape:connector-curvature="0"
         style="fill:#99baa7" /><path
         class="fil129"
         d="m 7005,16912 170,-1 0,-108 c -44,15 -162,63 -170,109 z"
         id="path2462"
         inkscape:connector-curvature="0"
         style="fill:#698774" /><path
         class="fil152"
         d="m 6667,14605 5,-147 -96,-11 c -6,51 31,161 91,158 z"
         id="path2464"
         inkscape:connector-curvature="0"
         style="fill:#4d2e16" /><path
         class="fil147"
         d="m 3874,12510 c -30,33 -16,19 -33,51 l -61,2 c -15,41 13,13 -24,40 l 52,-4 -8,27 36,-37 25,17 39,-32 c 23,-15 12,7 25,-33 6,33 1,18 22,20 44,-43 -13,-38 -25,-85 l -11,2 -37,32 z"
         id="path2466"
         inkscape:connector-curvature="0"
         style="fill:#dfad53" /><path
         class="fil155"
         d="m 4933,13788 c -11,-44 -4,-53 19,-86 -26,-3 -1,21 -26,-8 -16,15 -17,15 -53,22 l -2,34 -31,-41 c -32,48 -41,62 -30,124 28,-32 9,-18 20,-60 l 29,53 c 20,-32 5,-9 15,-43 l 17,44 42,-39 z"
         id="path2468"
         inkscape:connector-curvature="0"
         style="fill:#6e554b" /><path
         class="fil138"
         d="m 3400,16076 c 20,37 58,77 64,117 25,-6 13,-7 16,-46 13,-185 -41,-190 -68,-123 -10,24 -10,28 -12,52 z"
         id="path2470"
         inkscape:connector-curvature="0"
         style="fill:#adceb6" /><path
         class="fil144"
         d="m 2787,16052 c 2,51 40,112 85,128 11,-44 12,-103 -2,-148 -33,-2 -63,-6 -83,20 z"
         id="path2472"
         inkscape:connector-curvature="0"
         style="fill:#557965" /><path
         class="fil129"
         d="m 6501,15822 c 80,-7 71,-74 61,-141 -78,22 -116,56 -61,141 z"
         id="path2474"
         inkscape:connector-curvature="0"
         style="fill:#698774" /><path
         class="fil130"
         d="m 4011,11796 -44,54 9,21 c 51,-8 43,-5 86,10 l 15,12 45,-35 4,-17 -34,-27 c -25,-12 -57,-29 -81,-18 z"
         id="path2476"
         inkscape:connector-curvature="0"
         style="fill:#34100b" /><path
         class="fil154"
         d="m 3651,14791 c 19,41 22,84 72,98 30,-50 -12,-12 41,-47 0,-46 -14,-96 -58,-114 l 4,96 -39,-42 -20,9 z"
         id="path2478"
         inkscape:connector-curvature="0"
         style="fill:#e1cd5d" /><path
         class="fil138"
         d="m 5620,16661 c 35,20 85,28 122,30 -18,-31 -95,-136 -126,-153 l 4,123 z"
         id="path2480"
         inkscape:connector-curvature="0"
         style="fill:#adceb6" /><polygon
         class="fil141"
         points="2168,15012 2245,15004 2249,14933 2130,14933 2130,15014 "
         id="polygon2482"
         style="fill:#8cb295" /><polygon
         class="fil141"
         points="2192,15579 2130,15557 2130,15678 2205,15719 "
         id="polygon2484"
         style="fill:#8cb295" /><path
         class="fil154"
         d="m 5555,14925 18,1 c 25,44 -5,17 31,35 27,-16 39,-39 51,-71 -7,-35 18,-8 -12,-33 -27,26 -8,16 -42,29 l 2,-84 c -33,36 -54,66 -48,123 z"
         id="path2486"
         inkscape:connector-curvature="0"
         style="fill:#e1cd5d" /><path
         class="fil149"
         d="m 4591,16093 c -18,45 -12,66 32,88 36,-5 43,-14 64,-44 -10,-58 -43,-76 -96,-44 z"
         id="path2488"
         inkscape:connector-curvature="0"
         style="fill:#efcfb2" /><path
         class="fil138"
         d="m 3196,14880 11,40 39,28 c 33,-3 76,-27 89,-57 l -107,-37 -32,26 z"
         id="path2490"
         inkscape:connector-curvature="0"
         style="fill:#adceb6" /><path
         class="fil138"
         d="m 3017,16744 112,28 -118,-157 c -6,49 -7,81 6,129 z"
         id="path2492"
         inkscape:connector-curvature="0"
         style="fill:#adceb6" /><path
         class="fil141"
         d="m 2150,15224 79,7 c 27,-37 25,-32 23,-78 l -105,0 3,71 z"
         id="path2494"
         inkscape:connector-curvature="0"
         style="fill:#8cb295" /><path
         class="fil137"
         d="m 2130,14773 0,44 124,-4 8,-55 c -62,-6 -76,-6 -132,15 z"
         id="path2496"
         inkscape:connector-curvature="0"
         style="fill:#99baa7" /><path
         class="fil137"
         d="m 6667,14605 36,14 11,-58 15,-71 c -17,-22 6,-6 -25,-23 -4,-1 -26,-8 -32,-9 l -5,147 z"
         id="path2498"
         inkscape:connector-curvature="0"
         style="fill:#99baa7" /><path
         class="fil129"
         d="m 6757,15813 -40,-65 -39,0 c -11,45 -12,51 0,94 l 72,3 7,-32 z"
         id="path2500"
         inkscape:connector-curvature="0"
         style="fill:#698774" /><polygon
         class="fil153"
         points="2548,11397 2621,11461 2616,11319 2583,11319 "
         id="polygon2502"
         style="fill:#b4f1f8;fill-opacity:1" /><path
         class="fil137"
         d="m 5781,16812 67,87 c 31,-12 20,-8 38,-40 -30,-44 -28,-41 -78,-67 l -27,20 z"
         id="path2504"
         inkscape:connector-curvature="0"
         style="fill:#99baa7" /><path
         class="fil137"
         d="m 2597,14663 c -36,30 -44,85 -44,133 l 51,-5 5,-100 c -7,-37 -3,-10 -12,-28 z"
         id="path2506"
         inkscape:connector-curvature="0"
         style="fill:#99baa7" /><polygon
         class="fil141"
         points="2179,15375 2130,15373 2130,15465 2177,15475 "
         id="polygon2508"
         style="fill:#8cb295" /><path
         class="fil156"
         d="m 4637,16283 5,39 57,6 c 10,-51 15,-45 -24,-67 l -38,22 z"
         id="path2510"
         inkscape:connector-curvature="0"
         style="fill:#d4caae" /><path
         class="fil140"
         d="m 4264,14021 2,-41 -45,0 c -4,46 5,49 43,41 z"
         id="path2512"
         inkscape:connector-curvature="0"
         style="fill:#f4f1ed" /><path
         class="fil140"
         d="m 5272,13983 -41,-2 c -11,61 47,58 41,2 z"
         id="path2514"
         inkscape:connector-curvature="0"
         style="fill:#f4f1ed" /></g></g></svg>