<svg xmlns="http://www.w3.org/2000/svg" width="80" height="80"><defs><clipPath id="a"><path d="M.938 40.027c0 21.59 17.503 39.09 39.09 39.09 21.585 0 39.09-17.5 39.09-39.09 0-21.586-17.505-39.09-39.09-39.09C18.44.938.937 18.442.937 40.028"/></clipPath><clipPath id="b"><path d="M15 9h50v62H15Zm0 0"/></clipPath><clipPath id="c"><path d="M.938 40.027c0 21.59 17.503 39.09 39.09 39.09 21.585 0 39.09-17.5 39.09-39.09 0-21.586-17.505-39.09-39.09-39.09C18.44.938.937 18.442.937 40.028"/></clipPath><clipPath id="d"><path d="M33 12h30v29H33Zm0 0"/></clipPath><clipPath id="e"><path d="M.938 40.027c0 21.59 17.503 39.09 39.09 39.09 21.585 0 39.09-17.5 39.09-39.09 0-21.586-17.505-39.09-39.09-39.09C18.44.938.937 18.442.937 40.028"/></clipPath><clipPath id="f"><path d="M18 26h11v9H18Zm0 0"/></clipPath><clipPath id="g"><path d="M.938 40.027c0 21.59 17.503 39.09 39.09 39.09 21.585 0 39.09-17.5 39.09-39.09 0-21.586-17.505-39.09-39.09-39.09C18.44.938.937 18.442.937 40.028"/></clipPath><clipPath id="h"><path d="M18 39h11v9H18Zm0 0"/></clipPath><clipPath id="i"><path d="M.938 40.027c0 21.59 17.503 39.09 39.09 39.09 21.585 0 39.09-17.5 39.09-39.09 0-21.586-17.505-39.09-39.09-39.09C18.44.938.937 18.442.937 40.028"/></clipPath><clipPath id="j"><path d="M18 12h11v8H18Zm0 0"/></clipPath><clipPath id="k"><path d="M.938 40.027c0 21.59 17.503 39.09 39.09 39.09 21.585 0 39.09-17.5 39.09-39.09 0-21.586-17.505-39.09-39.09-39.09C18.44.938.937 18.442.937 40.028"/></clipPath><clipPath id="l"><path d="M18 58h11v10H18Zm0 0"/></clipPath><clipPath id="m"><path d="M.938 40.027c0 21.59 17.503 39.09 39.09 39.09 21.585 0 39.09-17.5 39.09-39.09 0-21.586-17.505-39.09-39.09-39.09C18.44.938.937 18.442.937 40.028"/></clipPath><clipPath id="n"><path d="M18 49h11v8H18Zm0 0"/></clipPath><clipPath id="o"><path d="M.938 40.027c0 21.59 17.503 39.09 39.09 39.09 21.585 0 39.09-17.5 39.09-39.09 0-21.586-17.505-39.09-39.09-39.09C18.44.938.937 18.442.937 40.028"/></clipPath><clipPath id="p"><path d="M38 61h7v7h-7Zm0 0"/></clipPath><clipPath id="q"><path d="M.938 40.027c0 21.59 17.503 39.09 39.09 39.09 21.585 0 39.09-17.5 39.09-39.09 0-21.586-17.505-39.09-39.09-39.09C18.44.938.937 18.442.937 40.028"/></clipPath><clipPath id="r"><path d="M32 61h6v7h-6Zm0 0"/></clipPath><clipPath id="s"><path d="M.938 40.027c0 21.59 17.503 39.09 39.09 39.09 21.585 0 39.09-17.5 39.09-39.09 0-21.586-17.505-39.09-39.09-39.09C18.44.938.937 18.442.937 40.028"/></clipPath><clipPath id="t"><path d="M55 61h8v7h-8Zm0 0"/></clipPath><clipPath id="u"><path d="M.938 40.027c0 21.59 17.503 39.09 39.09 39.09 21.585 0 39.09-17.5 39.09-39.09 0-21.586-17.505-39.09-39.09-39.09C18.44.938.937 18.442.937 40.028"/></clipPath><clipPath id="v"><path d="M45 61h7v7h-7Zm0 0"/></clipPath><clipPath id="w"><path d="M.938 40.027c0 21.59 17.503 39.09 39.09 39.09 21.585 0 39.09-17.5 39.09-39.09 0-21.586-17.505-39.09-39.09-39.09C18.44.938.937 18.442.937 40.028"/></clipPath><clipPath id="x"><path d="M18 20h6v5h-6Zm0 0"/></clipPath><clipPath id="y"><path d="M.938 40.027c0 21.59 17.503 39.09 39.09 39.09 21.585 0 39.09-17.5 39.09-39.09 0-21.586-17.505-39.09-39.09-39.09C18.44.938.937 18.442.937 40.028"/></clipPath><clipPath id="z"><path d="M42 44h5v7h-5Zm0 0"/></clipPath><clipPath id="A"><path d="M.938 40.027c0 21.59 17.503 39.09 39.09 39.09 21.585 0 39.09-17.5 39.09-39.09 0-21.586-17.505-39.09-39.09-39.09C18.44.938.937 18.442.937 40.028"/></clipPath><clipPath id="B"><path d="M51 61h6v7h-6Zm0 0"/></clipPath><clipPath id="C"><path d="M.938 40.027c0 21.59 17.503 39.09 39.09 39.09 21.585 0 39.09-17.5 39.09-39.09 0-21.586-17.505-39.09-39.09-39.09C18.44.938.937 18.442.937 40.028"/></clipPath><clipPath id="D"><path d="M38 44h4v7h-4Zm0 0"/></clipPath><clipPath id="E"><path d="M.938 40.027c0 21.59 17.503 39.09 39.09 39.09 21.585 0 39.09-17.5 39.09-39.09 0-21.586-17.505-39.09-39.09-39.09C18.44.938.937 18.442.937 40.028"/></clipPath><clipPath id="F"><path d="M47 44h4v7h-4Zm0 0"/></clipPath><clipPath id="G"><path d="M.938 40.027c0 21.59 17.503 39.09 39.09 39.09 21.585 0 39.09-17.5 39.09-39.09 0-21.586-17.505-39.09-39.09-39.09C18.44.938.937 18.442.937 40.028"/></clipPath><clipPath id="H"><path d="M35 52h3v7h-3Zm0 0"/></clipPath><clipPath id="I"><path d="M.938 40.027c0 21.59 17.503 39.09 39.09 39.09 21.585 0 39.09-17.5 39.09-39.09 0-21.586-17.505-39.09-39.09-39.09C18.44.938.937 18.442.937 40.028"/></clipPath><clipPath id="J"><path d="M35 44h4v7h-4Zm0 0"/></clipPath><clipPath id="K"><path d="M.938 40.027c0 21.59 17.503 39.09 39.09 39.09 21.585 0 39.09-17.5 39.09-39.09 0-21.586-17.505-39.09-39.09-39.09C18.44.938.937 18.442.937 40.028"/></clipPath><clipPath id="L"><path d="M56 52h4v7h-4Zm0 0"/></clipPath><clipPath id="M"><path d="M.938 40.027c0 21.59 17.503 39.09 39.09 39.09 21.585 0 39.09-17.5 39.09-39.09 0-21.586-17.505-39.09-39.09-39.09C18.44.938.937 18.442.937 40.028"/></clipPath><clipPath id="N"><path d="M56 44h3v7h-3Zm0 0"/></clipPath><clipPath id="O"><path d="M.938 40.027c0 21.59 17.503 39.09 39.09 39.09 21.585 0 39.09-17.5 39.09-39.09 0-21.586-17.505-39.09-39.09-39.09C18.44.938.937 18.442.937 40.028"/></clipPath><clipPath id="P"><path d="M53 52h4v7h-4Zm0 0"/></clipPath><clipPath id="Q"><path d="M.938 40.027c0 21.59 17.503 39.09 39.09 39.09 21.585 0 39.09-17.5 39.09-39.09 0-21.586-17.505-39.09-39.09-39.09C18.44.938.937 18.442.937 40.028"/></clipPath><clipPath id="R"><path d="M59 44h4v7h-4Zm0 0"/></clipPath><clipPath id="S"><path d="M.938 40.027c0 21.59 17.503 39.09 39.09 39.09 21.585 0 39.09-17.5 39.09-39.09 0-21.586-17.505-39.09-39.09-39.09C18.44.938.937 18.442.937 40.028"/></clipPath><clipPath id="T"><path d="M38 52h3v7h-3Zm0 0"/></clipPath><clipPath id="U"><path d="M.938 40.027c0 21.59 17.503 39.09 39.09 39.09 21.585 0 39.09-17.5 39.09-39.09 0-21.586-17.505-39.09-39.09-39.09C18.44.938.937 18.442.937 40.028"/></clipPath><clipPath id="V"><path d="M50 52h4v7h-4Zm0 0"/></clipPath><clipPath id="W"><path d="M.938 40.027c0 21.59 17.503 39.09 39.09 39.09 21.585 0 39.09-17.5 39.09-39.09 0-21.586-17.505-39.09-39.09-39.09C18.44.938.937 18.442.937 40.028"/></clipPath><clipPath id="X"><path d="M43 52h4v7h-4Zm0 0"/></clipPath><clipPath id="Y"><path d="M.938 40.027c0 21.59 17.503 39.09 39.09 39.09 21.585 0 39.09-17.5 39.09-39.09 0-21.586-17.505-39.09-39.09-39.09C18.44.938.937 18.442.937 40.028"/></clipPath><clipPath id="Z"><path d="M32 52h3v7h-3Zm0 0"/></clipPath><clipPath id="aa"><path d="M.938 40.027c0 21.59 17.503 39.09 39.09 39.09 21.585 0 39.09-17.5 39.09-39.09 0-21.586-17.505-39.09-39.09-39.09C18.44.938.937 18.442.937 40.028"/></clipPath><clipPath id="ab"><path d="M50 44h4v7h-4Zm0 0"/></clipPath><clipPath id="ac"><path d="M.938 40.027c0 21.59 17.503 39.09 39.09 39.09 21.585 0 39.09-17.5 39.09-39.09 0-21.586-17.505-39.09-39.09-39.09C18.44.938.937 18.442.937 40.028"/></clipPath><clipPath id="ad"><path d="M46 52h4v7h-4Zm0 0"/></clipPath><clipPath id="ae"><path d="M.938 40.027c0 21.59 17.503 39.09 39.09 39.09 21.585 0 39.09-17.5 39.09-39.09 0-21.586-17.505-39.09-39.09-39.09C18.44.938.937 18.442.937 40.028"/></clipPath><clipPath id="af"><path d="M32 44h3v7h-3Zm0 0"/></clipPath><clipPath id="ag"><path d="M.938 40.027c0 21.59 17.503 39.09 39.09 39.09 21.585 0 39.09-17.5 39.09-39.09 0-21.586-17.505-39.09-39.09-39.09C18.44.938.937 18.442.937 40.028"/></clipPath><clipPath id="ah"><path d="M40 52h4v7h-4Zm0 0"/></clipPath><clipPath id="ai"><path d="M.938 40.027c0 21.59 17.503 39.09 39.09 39.09 21.585 0 39.09-17.5 39.09-39.09 0-21.586-17.505-39.09-39.09-39.09C18.44.938.937 18.442.937 40.028"/></clipPath><clipPath id="aj"><path d="M59 52h4v7h-4Zm0 0"/></clipPath><clipPath id="ak"><path d="M.938 40.027c0 21.59 17.503 39.09 39.09 39.09 21.585 0 39.09-17.5 39.09-39.09 0-21.586-17.505-39.09-39.09-39.09C18.44.938.937 18.442.937 40.028"/></clipPath><clipPath id="al"><path d="M54 44h2v7h-2Zm0 0"/></clipPath><clipPath id="am"><path d="M.938 40.027c0 21.59 17.503 39.09 39.09 39.09 21.585 0 39.09-17.5 39.09-39.09 0-21.586-17.505-39.09-39.09-39.09C18.44.938.937 18.442.937 40.028"/></clipPath><clipPath id="an"><path d="M49 52h2v7h-2Zm0 0"/></clipPath><clipPath id="ao"><path d="M.938 40.027c0 21.59 17.503 39.09 39.09 39.09 21.585 0 39.09-17.5 39.09-39.09 0-21.586-17.505-39.09-39.09-39.09C18.44.938.937 18.442.937 40.028"/></clipPath><clipPath id="ap"><path d="M20 42h3v4h-3Zm0 0"/></clipPath><clipPath id="aq"><path d="M.938 40.027c0 21.59 17.503 39.09 39.09 39.09 21.585 0 39.09-17.5 39.09-39.09 0-21.586-17.505-39.09-39.09-39.09C18.44.938.937 18.442.937 40.028"/></clipPath><clipPath id="ar"><path d="M23 14h5v4h-5Zm0 0"/></clipPath><clipPath id="as"><path d="M.938 40.027c0 21.59 17.503 39.09 39.09 39.09 21.585 0 39.09-17.5 39.09-39.09 0-21.586-17.505-39.09-39.09-39.09C18.44.938.937 18.442.937 40.028"/></clipPath><clipPath id="at"><path d="M19 14h4v4h-4Zm0 0"/></clipPath><clipPath id="au"><path d="M.938 40.027c0 21.59 17.503 39.09 39.09 39.09 21.585 0 39.09-17.5 39.09-39.09 0-21.586-17.505-39.09-39.09-39.09C18.44.938.937 18.442.937 40.028"/></clipPath><clipPath id="av"><path d="M58 62h2v3h-2Zm0 0"/></clipPath><clipPath id="aw"><path d="M.938 40.027c0 21.59 17.503 39.09 39.09 39.09 21.585 0 39.09-17.5 39.09-39.09 0-21.586-17.505-39.09-39.09-39.09C18.44.938.937 18.442.937 40.028"/></clipPath><clipPath id="ax"><path d="M47 62h3v3h-3Zm0 0"/></clipPath><clipPath id="ay"><path d="M.938 40.027c0 21.59 17.503 39.09 39.09 39.09 21.585 0 39.09-17.5 39.09-39.09 0-21.586-17.505-39.09-39.09-39.09C18.44.938.937 18.442.937 40.028"/></clipPath><clipPath id="az"><path d="M19 21h4v3h-4Zm0 0"/></clipPath><clipPath id="aA"><path d="M.938 40.027c0 21.59 17.503 39.09 39.09 39.09 21.585 0 39.09-17.5 39.09-39.09 0-21.586-17.505-39.09-39.09-39.09C18.44.938.937 18.442.937 40.028"/></clipPath><clipPath id="aB"><path d="M39 44h2v3h-2Zm0 0"/></clipPath><clipPath id="aC"><path d="M.938 40.027c0 21.59 17.503 39.09 39.09 39.09 21.585 0 39.09-17.5 39.09-39.09 0-21.586-17.505-39.09-39.09-39.09C18.44.938.937 18.442.937 40.028"/></clipPath><clipPath id="aD"><path d="M48 44h2v4h-2Zm0 0"/></clipPath><clipPath id="aE"><path d="M.938 40.027c0 21.59 17.503 39.09 39.09 39.09 21.585 0 39.09-17.5 39.09-39.09 0-21.586-17.505-39.09-39.09-39.09C18.44.938.937 18.442.937 40.028"/></clipPath><clipPath id="aF"><path d="M36 52h1v3h-1Zm0 0"/></clipPath><clipPath id="aG"><path d="M.938 40.027c0 21.59 17.503 39.09 39.09 39.09 21.585 0 39.09-17.5 39.09-39.09 0-21.586-17.505-39.09-39.09-39.09C18.44.938.937 18.442.937 40.028"/></clipPath><clipPath id="aH"><path d="M36 44h2v6h-2Zm0 0"/></clipPath><clipPath id="aI"><path d="M.938 40.027c0 21.59 17.503 39.09 39.09 39.09 21.585 0 39.09-17.5 39.09-39.09 0-21.586-17.505-39.09-39.09-39.09C18.44.938.937 18.442.937 40.028"/></clipPath><clipPath id="aJ"><path d="M57 52h2v4h-2Zm0 0"/></clipPath><clipPath id="aK"><path d="M.938 40.027c0 21.59 17.503 39.09 39.09 39.09 21.585 0 39.09-17.5 39.09-39.09 0-21.586-17.505-39.09-39.09-39.09C18.44.938.937 18.442.937 40.028"/></clipPath><clipPath id="aL"><path d="M57 44h1v6h-1Zm0 0"/></clipPath><clipPath id="aM"><path d="M.938 40.027c0 21.59 17.503 39.09 39.09 39.09 21.585 0 39.09-17.5 39.09-39.09 0-21.586-17.505-39.09-39.09-39.09C18.44.938.937 18.442.937 40.028"/></clipPath><clipPath id="aN"><path d="M38 52h2v6h-2Zm0 0"/></clipPath><clipPath id="aO"><path d="M.938 40.027c0 21.59 17.503 39.09 39.09 39.09 21.585 0 39.09-17.5 39.09-39.09 0-21.586-17.505-39.09-39.09-39.09C18.44.938.937 18.442.937 40.028"/></clipPath><clipPath id="aP"><path d="M51 52h2v6h-2Zm0 0"/></clipPath><clipPath id="aQ"><path d="M.938 40.027c0 21.59 17.503 39.09 39.09 39.09 21.585 0 39.09-17.5 39.09-39.09 0-21.586-17.505-39.09-39.09-39.09C18.44.938.937 18.442.937 40.028"/></clipPath><clipPath id="aR"><path d="M33 52h1v4h-1Zm0 0"/></clipPath><clipPath id="aS"><path d="M.938 40.027c0 21.59 17.503 39.09 39.09 39.09 21.585 0 39.09-17.5 39.09-39.09 0-21.586-17.505-39.09-39.09-39.09C18.44.938.937 18.442.937 40.028"/></clipPath></defs><g clip-path="url(#a)"><path d="M0 0h80v80H0z" style="fill:#0d9e4e;fill-opacity:1;stroke:none"/></g><g clip-path="url(#b)"><g clip-path="url(#c)"><path d="M64.945 9.586v60.879c-.047.012-.097.027-.144.031-.074.004-.149 0-.219 0H15.504c-.438 0-.395.047-.395-.394V9.937c0-.113.004-.23.008-.34.18-.046 49.594-.054 49.828-.011M50.415 40.52q.03.01.054.027a3 3 0 0 0 .172-.156c1.422-1.422 2.843-2.848 4.265-4.27a4110 4110 0 0 1 7.145-7.152.59.59 0 0 0 .191-.469c-.008-.89-.004-1.785-.004-2.68V12.594c0-.098-.008-.192-.015-.313h-.254c-5.367 0-10.735.004-16.106 0a.5.5 0 0 0-.383.153c-.73.722-1.468 1.433-2.203 2.152q-3.875 3.775-7.75 7.555c-.57.554-1.136 1.105-1.707 1.664-.047.043-.117.082-.11.183h13.942c.473 0 .942-.004 1.41 0 .461.004.922-.015 1.407.012-.02 5.52-.035 11.02-.055 16.52M28.652 26.293c-.207-.043-10.218-.04-10.398.008 0 .316-.008.64 0 .96.008.321-.031.645.031.985h6.797a.8.8 0 0 1-.215.164c-2.133 1.313-4.27 2.63-6.41 3.934-.16.097-.21.203-.207.383.008.496.004.992.004 1.488 0 .34-.016.328.324.328h9.867c.211-.004.223-.016.223-.23v-1.45c0-.316 0-.316-.313-.316H22.18q-.1.001-.2-.004c.036-.055.067-.074.102-.098 2.129-1.308 4.254-2.625 6.387-3.933.148-.09.207-.188.203-.364-.012-.543-.004-1.085-.004-1.628 0-.079-.012-.153-.016-.227M18.27 47.93h10.359c.055-.196.055-1.946-.008-2.121H26.07c-.425 0-.855.004-1.308-.004v-.32c-.004-.954.02-1.907-.102-2.856-.105-.832-.476-1.52-1.144-2.031-.453-.348-.965-.532-1.532-.594-.609-.066-1.207-.047-1.78.168-1.036.39-1.692 1.121-1.845 2.234a14 14 0 0 0-.101 1.64c-.012 1.22-.004 2.438-.004 3.653 0 .074.012.145.016.23m4.77-33.796c-.036-.059-.056-.094-.075-.13-.461-.831-1.168-1.26-2.121-1.241-1.11.02-1.89.558-2.356 1.554-.16.34-.234.704-.265 1.075-.059.636-.028 1.27.187 1.879.453 1.27 1.656 1.914 2.926 1.699.707-.121 1.238-.508 1.582-1.149.035-.066.074-.133.121-.215.05.09.09.157.125.227.328.617.828 1.04 1.488 1.266.641.218 1.285.226 1.934.054 1.035-.28 1.68-.984 2.043-1.965.21-.574.254-1.175.207-1.78-.047-.563-.191-1.094-.5-1.571-.777-1.2-2.066-1.547-3.242-1.367-.934.14-1.582.687-1.989 1.527-.02.035-.035.07-.066.137m-1.887 44.445c-.066.008-.105.012-.14.024-1.371.39-2.297 1.242-2.727 2.609-.234.746-.258 1.508-.168 2.277.145 1.2.672 2.192 1.606 2.961.851.7 1.859 1.008 2.937 1.114a8.4 8.4 0 0 0 1.625.011 6 6 0 0 0 1.434-.293c1.422-.504 2.414-1.449 2.89-2.894.282-.852.293-1.73.13-2.61-.15-.785-.485-1.476-1.063-2.047-.594-.585-1.324-.93-2.113-1.16-.043-.015-.09-.004-.149-.004-.203.672-.41 1.34-.617 2.016.086.031.144.047.207.07.23.082.469.145.687.25.891.426 1.344 1.125 1.293 2.125-.047.95-.515 1.621-1.37 2.016-.524.242-1.09.324-1.66.344-.47.02-.938-.008-1.407-.032a3.4 3.4 0 0 1-1.098-.242 2.3 2.3 0 0 1-1.34-1.254c-.175-.386-.214-.8-.187-1.222.062-.926.621-1.633 1.512-1.907.066-.02.132-.046.214-.07zm-2.882-8.945c-.008.11-.016.199-.016.293v6.55c0 .313 0 .313.316.313h9.848c.242 0 .25-.008.25-.242v-1.629c0-.281 0-.281-.285-.281q-1.926.001-3.852-.004c-.086 0-.168-.008-.265-.012v-3.234c-.004-.356.004-.707-.008-1.055-.223-.047-1.61-.039-1.781.004-.004.086-.016.176-.016.266v3.773c0 .082-.012.164-.016.242-.363.043-2.238.028-2.39-.023v-3.707c-.004-.414.008-.828-.012-1.254Zm24.421 11.52-1.082 4.156a38 38 0 0 1-.582-2.075 508 508 0 0 0-.55-2.07c-.325-.043-1.825-.027-1.965.012-.04.261-.028 6.219.02 6.375h1.195c.007-.106.02-.196.02-.285q.002-2.073.003-4.153v-.199a.17.17 0 0 1 .055.094c.28 1.12.558 2.246.84 3.367q.126.51.253 1.02c.02.085.036.168.157.168.351-.004.703 0 1.05 0 .079 0 .125-.032.145-.106a1 1 0 0 0 .035-.137q.468-1.852.93-3.71l.187-.739c.024.777.024 1.55.024 2.324v2.364c.43.007.828.007 1.21 0 .024-.04.032-.047.036-.059.004-.027.012-.055.012-.078q.001-3.082-.004-6.156a.3.3 0 0 0-.012-.078c0-.008-.008-.012-.012-.016l-.023-.02ZM32.266 65.44c0 .079-.008.125 0 .168q.015.118.043.235c.218.93.77 1.535 1.718 1.742q.62.137 1.258.074c.344-.039.684-.086 1.004-.219 1.309-.543 1.461-2.09.84-2.921a1.77 1.77 0 0 0-.852-.63c-.437-.148-.882-.273-1.324-.398-.32-.09-.64-.168-.933-.332-.317-.176-.325-.64-.008-.816a1 1 0 0 1 .328-.137q.302-.048.61-.043c.534.004.812.219.96.738.05.172.05.176.227.172q.525-.018 1.05-.043c.032-.004.06-.02.09-.031.004-.043.012-.074.012-.105-.07-.88-.598-1.47-1.305-1.708-.511-.167-1.039-.19-1.566-.148a2.7 2.7 0 0 0-.969.266c-.754.379-1.129 1.199-.902 2 .156.55.527.918 1.043 1.156.36.164.746.262 1.129.367.336.09.676.18 1.004.3.53.196.465.77.21 1.044a1 1 0 0 1-.503.297c-.285.074-.578.07-.867.027a1.04 1.04 0 0 1-.692-.39 1.6 1.6 0 0 1-.27-.57l-.062-.224zm29.957 2.109-.082-.23q-.626-1.559-1.246-3.11l-1.16-2.89c-.07-.176-.07-.176-.258-.176H58.28c-.152.265-2.457 6.246-2.468 6.402.05.004.101.016.152.016h1.05c.176 0 .18-.004.243-.172q.205-.553.402-1.098c.07-.191.07-.191.266-.191h2.086c.218 0 .218 0 .297.21q.203.541.406 1.075c.066.175.07.175.262.175h1.05c.051 0 .106-.007.196-.011m-16.961 0c.093.004.152.011.21.011h.993c.207 0 .207 0 .281-.203.133-.359.262-.718.395-1.078.066-.18.066-.18.254-.18h2.125c.187 0 .187 0 .253.184.145.367.282.742.422 1.11.063.168.067.168.246.168h1.07c.051 0 .102-.012.18-.02-.03-.09-.05-.164-.078-.234l-.863-2.153-1.535-3.828c-.074-.183-.074-.183-.27-.183-.332 0-.664-.004-.992 0-.242 0-.207-.024-.297.203q-1.164 2.994-2.324 5.988c-.023.062-.039.125-.07.215m-24.52-42.574c.297-.04.594-.051.883-.122.875-.207 1.46-.738 1.707-1.617a2.7 2.7 0 0 0 .063-1.18c-.141-.937-.653-1.574-1.555-1.874a3.48 3.48 0 0 0-2.13-.016c-.82.25-1.347.8-1.565 1.64a2.9 2.9 0 0 0-.063.946c.078.933.527 1.61 1.398 1.976.399.172.825.235 1.262.247m25.774 25.421v-.265q-.001-1.569.004-3.137c0-.59.007-1.18.007-1.77 0-.21-.027-.421-.136-.609-.235-.41-.61-.574-1.059-.578-.324-.004-.648.016-.973.023q-.486.005-.972.004c-.535.004-.946.493-.946.97-.015 1.734-.007 3.468-.007 5.202 0 .051.015.102.023.145.246.039.676.027.836-.024v-.207a534 534 0 0 1 .02-5.226c0-.074.011-.153.019-.23h.691v5.449q.001.124.008.253h.856c.004-.109.015-.207.015-.304q.005-2.552.004-5.102v-.289h.707c.008.078.016.145.016.207q.005.238.004.477v4.746c0 .097.015.191.023.304.293-.011.563-.027.86-.039m9.8 11.88c.004-.395.012-.755 0-1.106-.238-.043-4.93-.035-5.086.004v1.101h1.844c.008.114.016.196.016.282v4.445c0 .125-.004.254 0 .379.004.164.02.18.187.18h.993c.05 0 .101-.016.164-.024.004-.102.011-.195.011-.285q.005-2.353.004-4.707c0-.082.008-.164.016-.27ZM41.371 50.741c.004-.078.008-.14.008-.207q-.001-1.278.004-2.562a.5.5 0 0 0-.09-.297c-.105-.156-.203-.32-.305-.477.106-.168.2-.32.301-.465a.54.54 0 0 0 .094-.316c-.008-.445-.04-.89-.004-1.332.043-.512-.586-1.106-1.066-1.066-.336.023-.672.011-1.012.02-.13.003-.262.019-.41.026-.004.098-.016.18-.016.262.004.578.016 1.152.016 1.73.007 1.329.007 2.66.011 3.993 0 .066-.007.136.012.195.012.043.063.098.098.102.242.02.484.023.75.007 0-.949.008-1.87.027-2.785.238-.058.547-.054.7.008v.207c.003.653.019 1.3.003 1.95-.012.535.422.93.88 1.007m8.671-.328v-.242q.001-.523-.004-1.05c-.008-1.352-.02-2.7-.027-4.052a.93.93 0 0 0-.414-.793c-.375-.265-.805-.27-1.215-.18-.5.11-.824.516-.84 1.048-.012.312.008.625.008.933q.005 2.029.004 4.05v.267h.863c.008-.09.02-.176.02-.262.007-.48.007-.965.015-1.45 0-.07.008-.136.012-.206h.691c.012.648.028 1.28.04 1.93.28.03.546.038.847.007m-12.832 4.867c.105-.168.21-.32.3-.48a.64.64 0 0 0 .083-.278q-.001-.753-.02-1.507a.53.53 0 0 0-.05-.25c-.231-.387-.532-.68-1.02-.672q-.628.014-1.25.039c-.027 0-.05.012-.098.02-.008.09-.02.179-.02.269.009 1.11.02 2.223.024 3.332.004.8.004 1.601.008 2.402 0 .086.012.168.02.262h.816c.004-.098.012-.18.012-.266.004-.765.004-1.535.007-2.3 0-.079.008-.153.012-.239.238 0 .453-.023.684.012v.258c.004.66.015 1.32.008 1.984-.004.516.468.906.847.95.008-.063.024-.126.024-.188 0-.86-.004-1.719 0-2.582a.54.54 0 0 0-.09-.297c-.102-.148-.192-.3-.297-.469M38 47.195h.012c-.012-.715-.028-1.43-.035-2.144a.95.95 0 0 0-.157-.504c-.265-.41-.652-.574-1.133-.543a6 6 0 0 0-.257.02c-.504.042-.883.433-.914.956-.012.25-.004.5-.004.754-.008 1.211-.016 2.422-.016 3.63 0 .179.035.355.145.507.25.356.566.566 1.02.527.167-.011.343-.003.51-.035a.8.8 0 0 0 .345-.136c.316-.223.48-.54.48-.93.008-.7.004-1.402.004-2.102m20.344 9.375c.004.094.011.168.011.239l.012 1.37c.004.337-.02.325.324.325.172 0 .344.031.516-.02.008-.058.016-.113.016-.164v-5.183c0-.407-.32-.805-.707-.938-.297-.101-.602-.058-.903-.047-.043 0-.09.02-.133.04-.41.156-.69.562-.69 1.015.003 1.688.015 3.375.023 5.066 0 .02-.004.04 0 .059q.01.065.027.129h.797c.008-.094.02-.18.023-.262.004-.472.004-.941.008-1.41 0-.07.008-.14.016-.219Zm.386-9.254h.012c0-.691-.008-1.386.004-2.082.004-.32-.133-.578-.328-.808a.8.8 0 0 0-.316-.23c-.368-.141-.754-.098-1.133-.044a.6.6 0 0 0-.215.102c-.316.242-.5.55-.496.965.008 1.402.015 2.804 0 4.207-.004.363.367.89.73.988.348.098.684.012 1.024.02.027 0 .05-.016.074-.028.406-.183.637-.496.64-.945.012-.715.004-1.43.004-2.145m-3.996 11.141v-3.555q.005-.357.004-.715c0-.238-.004-.476 0-.714.004-.235-.011-.473.012-.707h.668c.035 1.91 0 3.804.043 5.718.285.024.543.028.812-.015.008-.063.016-.114.016-.164.004-.305.012-.61.012-.914q.005-1.518.004-3.036.006-.565 0-1.132c0-.25-.063-.485-.215-.688-.211-.289-.504-.418-.856-.414h-1.132c-.059 0-.118.008-.168.012-.063.187-.063 6.172 0 6.363.257.008.515.016.8-.039m7.422-7.98c.004-.094.008-.16.008-.223 0-1.715-.004-3.43 0-5.14 0-.247-.102-.438-.234-.618a.8.8 0 0 0-.285-.238 1.4 1.4 0 0 0-.672-.149l-1.149.036c-.031 0-.062.015-.097.027v6.293c.273.023.53.02.812.004.008-.117.016-.211.02-.309q.006-2.582.02-5.16c0-.062-.009-.121.007-.18.004-.03.043-.082.066-.082.203-.008.407-.027.63.02.011 1.902.019 3.789.027 5.703.285.027.554.023.847.016m-24.05 4.757h-.024c0 .715.012 1.43-.004 2.145-.012.39.309.918.695 1.031.18.05.352.059.528.059.152 0 .308.008.453-.024.48-.101.754-.55.754-.972.004-1.442.015-2.883-.008-4.325-.012-.62-.371-.976-1-1.05-.117-.012-.238-.008-.355-.008a1.04 1.04 0 0 0-1.04 1.023zm15.262.086h.012c0-.726-.008-1.453.004-2.18.008-.535-.48-1.019-1.074-1.027-.149-.004-.301.012-.454.02a.4.4 0 0 0-.136.02c-.457.152-.742.484-.746.98a750 750 0 0 0-.02 4.187c0 .133.02.266.047.39.078.364.445.712.809.755.214.027.433.027.652.023.234-.008.437-.125.598-.277a.98.98 0 0 0 .312-.727q-.005-1.081-.004-2.164M46.23 52.13h-.25q-.557.001-1.109-.004a1.02 1.02 0 0 0-1.05 1.05c.007 1.384 0 2.766-.005 4.15 0 .085-.004.175.012.257.024.129.043.262.102.379.195.379.539.527.945.543.39.012.781.004 1.172.008.05 0 .101-.016.144-.02.012-.035.028-.05.028-.07.004-.61.004-1.215.008-1.824 0-.106-.059-.137-.153-.141-.203-.004-.41-.012-.613-.016-.023 0-.047.02-.086.032-.008.453.008.91-.012 1.375-.242.004-.453.03-.664-.008-.043-.367-.023-2.07.028-2.223.23-.039.48.02.734-.074l-.035-.535h-.746V52.8c.23-.078.453-.043.695-.043 0 .242-.004.465 0 .687.008.23-.012.461.035.684h.809c.015-.66.011-1.313.011-2m-13.132 4.387c.238-.012.437-.016.632-.032.098-.007.208-.011.29-.054.386-.207.636-.532.644-.973.02-.781-.008-1.562 0-2.344.008-.52-.375-.91-.852-.984a3.3 3.3 0 0 0-.71-.02c-.204.016-.407.082-.543.25-.207.254-.325.54-.325.875v4.98c0 .067.012.138.02.204h.824c.012-.637 0-1.254.02-1.902m18.715-6.739c-.055-.336-.047-4.93.007-5.09q.323-.018.657.004c.035.489-.004.95.039 1.422.293-.004.562.012.84-.015.007-.09.015-.153.011-.22a59 59 0 0 0-.02-.831.97.97 0 0 0-.827-.942c-.215-.027-.438-.023-.653-.035-.234-.008-.422.098-.59.242-.27.235-.39.52-.386.891.011 1.375.004 2.754 0 4.129 0 .207.054.39.144.57.14.285.371.47.688.504.226.028.46.008.691.012.16.008.297-.05.426-.133.336-.21.531-.508.531-.914q0-.357-.012-.715c0-.082-.015-.164-.027-.265-.289.015-.562-.02-.848.043v.671c0 .223-.004.446-.004.672Zm-2.735 2.36c-.078-.004-.14-.012-.203-.012-.332 0-.664.008-.992 0-.254-.008-.48.05-.7.176-.324.187-.492.453-.5.82-.003.484.008.969 0 1.45-.007.464.348.898.739.988.11.027.223.035.332.046.156.012.316-.02.465.032.043.27.027 2.066-.02 2.199h-.652c-.012-.2-.02-.383-.031-.574h-.817c-.004.062-.015.117-.015.168q-.001.415.004.832c0 .195.007.203.199.203.386.004.77-.012 1.152.012.52.039 1.117-.524 1.078-1.086-.031-.48-.008-.965-.031-1.446a.95.95 0 0 0-.145-.445c-.222-.336-.55-.5-.957-.512q-.197-.005-.418-.004c-.007-.086-.015-.144-.015-.203q-.005-.909-.004-1.824v-.098c.004-.062.035-.101.098-.105h.582c.015.215.027.41.043.629.28-.008.539.02.808-.031Zm-14.418-6.07c.016-.047.031-.079.031-.11.004-.594.012-1.191.012-1.785 0-.121-.027-.14-.164-.14q-.615-.006-1.23-.005c-.36 0-.641.164-.856.43-.125.148-.226.328-.226.535q-.013 2.583-.02 5.164c0 .074.008.153.016.242h.785c.07 0 .11-.043.11-.113q.004-.088.003-.18l-.012-2.3c0-.078.008-.153.016-.246l.73-.024v-.617c-.183 0-.347.004-.511 0-.223-.008-.235-.02-.239-.242 0-.606.004-1.215.004-1.824 0-.059.012-.114.02-.188.23.008.453.02.684.027v.485c0 .152-.004.304.003.453.004.148-.03.3.024.437Zm7.852 6.69c.008.079.02.141.023.208.008.344.012.687.02 1.031.004.156.02.172.172.176q.235.001.476-.004c.184-.008.2-.023.2-.211q-.002-.807-.008-1.61c0-.07-.016-.14-.024-.222h-.219c-.382 0-.765.004-1.148.004-.348-.004-.602.168-.805.43-.168.214-.222.46-.219.726q.013 1.253.02 2.5-.001 1.224.004 2.445v.25c.297.02.562.024.855-.015V55.62c.262-.008.504-.012.746-.02v-.585l-.722-.036c-.043-.28-.031-2.074.012-2.222Zm17.254-.609c-.004.075-.012.133-.012.192v5.18c-.004.3.144.527.344.726.195.203.445.266.722.266h1.11c.07 0 .14-.008.218-.012v-1.305c-.27-.02-.527.024-.793.028-.02.23-.035.437-.05.656-.239.012-.453.023-.692.039v-.246q.001-2.612-.004-5.219v-.18c.004-.101-.047-.144-.144-.14-.164 0-.328-.004-.496 0-.063 0-.125.008-.203.015m-5.38-8.043c-.003.133-.011.266-.015.395-.004 1.89-.004 3.781-.008 5.676 0 .023-.004.05 0 .078.004.168.02.184.18.184q.258.003.516-.004c.058 0 .117-.016.168-.024.046-.27.03-6.156-.016-6.305-.227-.007-.457-.02-.688-.023-.039 0-.078.012-.136.023m-4.746 8.032v6.328h.808c.051-.227.035-6.168-.011-6.328Zm0 0" style="stroke:none;fill-rule:nonzero;fill:#0d9e4e;fill-opacity:1"/></g></g><g clip-path="url(#d)"><g clip-path="url(#e)"><path d="M50.414 40.52c.02-5.5.035-11 .055-16.52-.485-.027-.946-.008-1.407-.012-.468-.004-.937 0-1.41 0H33.711c-.008-.101.062-.14.11-.183a13952.748 13952.748 0 0 1 9.457-9.219c.734-.719 1.472-1.43 2.202-2.152a.5.5 0 0 1 .383-.153c5.371.004 10.739 0 16.106 0h.254c.007.121.015.215.015.313V25.82c0 .895-.004 1.79.004 2.68a.59.59 0 0 1-.191.469 4110 4110 0 0 0-7.145 7.152c-1.422 1.422-2.843 2.848-4.265 4.27a3 3 0 0 1-.172.156q-.024-.017-.055-.027" style="stroke:none;fill-rule:nonzero;fill:#fff;fill-opacity:1"/></g></g><g clip-path="url(#f)"><g clip-path="url(#g)"><path d="M28.652 26.293c.004.074.016.148.016.227 0 .543-.008 1.085.004 1.628.004.176-.055.274-.203.364-2.133 1.308-4.258 2.625-6.387 3.933-.035.024-.066.043-.102.098q.1.005.2.004h6.175c.313 0 .313 0 .313.316v1.45c0 .214-.012.226-.223.23H18.58c-.34 0-.325.012-.325-.328 0-.496.004-.992-.004-1.488-.004-.18.047-.286.207-.383 2.14-1.305 4.277-2.621 6.41-3.934a.8.8 0 0 0 .215-.164h-6.797c-.062-.34-.023-.664-.031-.984s0-.645 0-.961c.18-.043 10.191-.051 10.398-.008" style="stroke:none;fill-rule:nonzero;fill:#fff;fill-opacity:1"/></g></g><g clip-path="url(#h)"><g clip-path="url(#i)"><path d="M18.27 47.93c-.004-.086-.016-.157-.016-.23 0-1.216-.008-2.434.004-3.653.008-.547.027-1.098.101-1.64.153-1.114.809-1.844 1.844-2.235.574-.215 1.172-.234 1.781-.168.567.062 1.078.246 1.532.594.668.511 1.039 1.199 1.144 2.03.121.95.098 1.903.102 2.856v.32c.453.008.883.005 1.308.005h2.551c.063.175.063 1.925.008 2.12Zm4.675-2.133c.004-.063.016-.113.016-.164.004-.403.012-.805-.004-1.211-.016-.402-.012-.809-.11-1.2-.128-.511-.44-.863-.952-.992-.524-.132-1.012-.054-1.407.356a1.47 1.47 0 0 0-.394.992c-.02.688-.028 1.375-.04 2.063 0 .05.012.101.016.156Zm0 0" style="stroke:none;fill-rule:nonzero;fill:#fff;fill-opacity:1"/></g></g><g clip-path="url(#j)"><g clip-path="url(#k)"><path d="M23.04 14.133c.03-.067.046-.102.065-.137.407-.84 1.055-1.387 1.989-1.527 1.176-.18 2.465.168 3.242 1.367.309.476.453 1.008.5 1.57.047.61.004 1.207-.207 1.781-.363.981-1.008 1.684-2.043 1.965a3.27 3.27 0 0 1-1.934-.054 2.58 2.58 0 0 1-1.488-1.266c-.035-.07-.074-.137-.125-.227-.047.082-.086.149-.121.215-.344.64-.875 1.028-1.582 1.149-1.27.215-2.473-.43-2.926-1.7-.215-.609-.246-1.242-.187-1.878.03-.371.105-.735.265-1.075.465-.996 1.246-1.535 2.356-1.554.953-.02 1.66.41 2.12 1.242zm2.492.285q.001.016-.004.031h-.238c-.691.031-1.473.555-1.379 1.578.035.414.227.739.586.961.348.207.715.293 1.117.274.301-.012.594-.063.86-.207.507-.278.777-.758.738-1.325a1.29 1.29 0 0 0-.961-1.187c-.23-.066-.477-.086-.719-.125m-3.238 1.457q-.011.001-.016-.004c-.007-.078-.007-.156-.02-.234-.066-.43-.296-.73-.702-.883a1.46 1.46 0 0 0-.895-.04c-.48.122-.781.473-.832 1.016-.058.625.23 1.133.824 1.301.309.09.614.07.914-.035a.97.97 0 0 0 .633-.637c.051-.156.063-.32.094-.484" style="stroke:none;fill-rule:nonzero;fill:#fff;fill-opacity:1"/></g></g><g clip-path="url(#l)"><g clip-path="url(#m)"><path d="m21.152 58.578.496 2.082c-.082.024-.148.05-.214.07-.891.274-1.45.98-1.512 1.907-.027.422.012.836.187 1.222.27.606.723 1.02 1.34 1.254.352.137.719.227 1.098.242.469.024.937.051 1.406.032.57-.02 1.137-.102 1.66-.344.856-.395 1.325-1.066 1.371-2.016.051-1-.402-1.699-1.293-2.125-.218-.105-.457-.168-.687-.25a4 4 0 0 1-.207-.07c.207-.676.414-1.344.617-2.016.059 0 .106-.007.148.004.79.23 1.52.575 2.114 1.16.578.57.914 1.266 1.062 2.051.164.875.153 1.754-.129 2.606-.476 1.445-1.468 2.39-2.89 2.894a6 6 0 0 1-1.434.293 8.4 8.4 0 0 1-1.625-.008c-1.078-.109-2.086-.418-2.937-1.117-.934-.77-1.461-1.761-1.606-2.96-.09-.77-.066-1.532.168-2.278.43-1.367 1.356-2.219 2.727-2.61.035-.011.074-.015.14-.023" style="stroke:none;fill-rule:nonzero;fill:#fff;fill-opacity:1"/></g></g><g clip-path="url(#n)"><g clip-path="url(#o)"><path d="M18.27 49.633h1.777c.015.426.004.84.008 1.254v3.707c.152.05 2.027.066 2.39.023.004-.078.016-.16.016-.242v-3.773c0-.09.012-.18.016-.266.171-.043 1.558-.05 1.78-.004.013.348.005.7.009 1.055v3.234c.097.004.18.012.265.012q1.926.005 3.852.004c.285 0 .285 0 .285.281v1.629c0 .234-.008.242-.25.242H18.57c-.316 0-.316 0-.316-.312v-6.551c0-.094.008-.184.016-.293" style="stroke:none;fill-rule:nonzero;fill:#fff;fill-opacity:1"/></g></g><g clip-path="url(#p)"><g clip-path="url(#q)"><path d="M42.691 61.152h1.942c.015.012.02.016.023.02.004.004.012.008.012.016q.012.035.012.078.005 3.074.004 6.156c0 .023-.008.05-.012.078-.004.012-.012.02-.035.059-.383.007-.782.007-1.211 0v-2.364c0-.773 0-1.547-.024-2.324l-.187.738q-.462 1.86-.93 3.711a1 1 0 0 1-.035.137c-.02.074-.066.106-.145.106-.347 0-.699-.004-1.05 0-.121 0-.137-.083-.157-.168q-.127-.51-.253-1.02c-.282-1.121-.56-2.246-.84-3.367a.17.17 0 0 0-.055-.094v.2c0 1.386-.004 2.769-.004 4.152 0 .09-.012.18-.02.285h-1.195c-.047-.156-.058-6.114-.02-6.375.141-.04 1.641-.055 1.966-.012q.275 1.027.55 2.07c.18.692.36 1.38.582 2.075.36-1.383.72-2.762 1.082-4.157" style="stroke:none;fill-rule:nonzero;fill:#fff;fill-opacity:1"/></g></g><g clip-path="url(#r)"><g clip-path="url(#s)"><path d="m32.266 65.441 1.273-.129c.023.086.043.157.063.223.058.207.136.403.27.57.179.227.417.352.69.391.29.043.583.047.868-.027q.299-.076.504-.297c.254-.274.32-.848-.211-1.043-.328-.121-.668-.211-1.004-.3-.383-.106-.77-.204-1.13-.368-.515-.238-.886-.606-1.042-1.156-.227-.801.148-1.621.902-2 .305-.153.633-.235.969-.266.527-.043 1.055-.02 1.566.148.707.239 1.235.829 1.305 1.708 0 .03-.008.066-.012.105-.03.012-.058.027-.09.031q-.525.025-1.05.043c-.176.004-.176 0-.227-.172-.148-.52-.426-.734-.96-.738a3.6 3.6 0 0 0-.614.043c-.113.02-.223.078-.324.137-.317.176-.309.64.008.816.292.164.613.242.933.332.442.125.887.25 1.324.399.344.117.63.332.852.629.621.832.469 2.378-.84 2.921-.32.133-.66.18-1.004.22a4 4 0 0 1-1.258-.075c-.949-.207-1.5-.813-1.718-1.742q-.028-.117-.043-.235c-.008-.043 0-.09 0-.168" style="stroke:none;fill-rule:nonzero;fill:#fff;fill-opacity:1"/></g></g><g clip-path="url(#t)"><g clip-path="url(#u)"><path d="M62.223 67.55c-.09.005-.145.013-.196.013h-1.05c-.192 0-.196 0-.262-.176q-.204-.534-.406-1.075c-.079-.21-.079-.21-.297-.21h-2.086c-.196 0-.196 0-.266.191q-.198.545-.402 1.098c-.063.168-.067.171-.242.171h-1.051c-.05 0-.102-.011-.153-.015.012-.156 2.317-6.137 2.47-6.402h1.195c.187 0 .187 0 .257.175l1.16 2.89q.621 1.553 1.247 3.11zm-3.25-4.757a38 38 0 0 0-.825 2.172c.559 0 1.082.004 1.637 0z" style="stroke:none;fill-rule:nonzero;fill:#fff;fill-opacity:1"/></g></g><g clip-path="url(#v)"><g clip-path="url(#w)"><path d="M45.262 67.55c.031-.09.047-.152.07-.214q1.159-2.994 2.324-5.988c.09-.227.055-.203.297-.203.328-.004.66 0 .992 0 .196 0 .196 0 .27.183l1.535 3.828c.29.719.574 1.434.863 2.153.028.07.047.144.078.234-.078.008-.129.02-.18.02h-1.07c-.18 0-.183 0-.246-.168-.14-.368-.277-.743-.422-1.11-.066-.183-.066-.183-.253-.183h-2.125c-.188 0-.188 0-.254.18-.133.359-.262.718-.395 1.077-.074.204-.074.204-.281.204h-.992c-.059 0-.118-.008-.211-.012m3.996-2.598c-.274-.734-.543-1.445-.809-2.156q-.022-.001-.039.004c-.262.71-.52 1.422-.785 2.152Zm0 0" style="stroke:none;fill-rule:nonzero;fill:#fff;fill-opacity:1"/></g></g><g clip-path="url(#x)"><g clip-path="url(#y)"><path d="M20.742 24.977c-.437-.012-.863-.075-1.262-.247-.87-.367-1.32-1.043-1.398-1.976a2.9 2.9 0 0 1 .063-.945c.218-.84.746-1.391 1.566-1.641a3.48 3.48 0 0 1 2.129.016c.902.3 1.414.937 1.555 1.875a2.7 2.7 0 0 1-.063 1.18c-.246.878-.832 1.41-1.707 1.616-.29.07-.586.082-.883.122m-.039-1.543c.258-.024.473-.036.68-.07.305-.055.562-.196.71-.485.223-.445.012-.969-.464-1.16-.29-.117-.594-.125-.899-.125-.257 0-.515.011-.765.093-.387.133-.63.454-.621.829.004.386.238.699.644.804.246.067.504.082.715.114" style="stroke:none;fill-rule:nonzero;fill:#fff;fill-opacity:1"/></g></g><g clip-path="url(#z)"><g clip-path="url(#A)"><path d="M46.516 50.398c-.297.016-.567.028-.86.04-.008-.114-.023-.208-.023-.305v-4.746q.001-.238-.004-.477c0-.062-.008-.129-.016-.207h-.707v.29c0 1.698 0 3.402-.004 5.1 0 .098-.011.196-.015.305h-.856a6 6 0 0 1-.008-.253v-5.45h-.691c-.008.078-.02.157-.02.23q-.01 1.364-.015 2.723-.005 1.249-.004 2.504v.207c-.16.051-.59.063-.836.024-.008-.043-.023-.094-.023-.145 0-1.734-.008-3.468.007-5.203.004-.476.41-.965.946-.969q.486.001.972-.004c.325-.007.649-.027.973-.023.45.004.824.168 1.059.578.109.188.136.399.136.61 0 .59-.007 1.18-.007 1.77q-.005 1.567-.004 3.136z" style="stroke:none;fill-rule:nonzero;fill:#fff;fill-opacity:1"/></g></g><g clip-path="url(#B)"><g clip-path="url(#C)"><path d="M56.316 62.277h-1.851c-.008.106-.016.188-.016.27q.001 2.353-.004 4.707c0 .09-.008.183-.011.285-.063.008-.114.023-.164.023-.333 0-.665.004-.993 0-.168 0-.183-.015-.187-.18-.004-.124 0-.253 0-.378v-4.445c0-.086-.008-.168-.016-.282H51.23v-1.101c.157-.04 4.848-.047 5.086-.004.012.351.004.71 0 1.105" style="stroke:none;fill-rule:nonzero;fill:#fff;fill-opacity:1"/></g></g><g clip-path="url(#D)"><g clip-path="url(#E)"><path d="M41.371 50.742c-.457-.078-.89-.472-.879-1.008.016-.648 0-1.297-.004-1.949v-.207c-.152-.062-.46-.066-.699-.008-.02.914-.027 1.836-.027 2.785a5 5 0 0 1-.75-.007c-.035-.004-.086-.059-.098-.102-.02-.059-.012-.129-.012-.195-.004-1.332-.004-2.664-.011-3.992 0-.579-.012-1.153-.016-1.727 0-.086.012-.168.016-.266.148-.007.28-.023.41-.027.34-.008.676.004 1.011-.02.481-.039 1.11.555 1.067 1.067-.035.441-.004.887.004 1.332a.54.54 0 0 1-.094.316c-.102.145-.195.297-.3.465.1.156.199.32.304.477.062.094.09.187.09.3-.004.852-.004 1.708-.004 2.56 0 .066-.004.128-.008.206m-1.582-6.09c-.012.063-.023.11-.023.153q.006.944.02 1.883c0 .062.01.124.019.195h.5c.207-.004.215-.012.215-.215v-1.824c0-.063-.012-.125-.02-.192Zm0 0" style="stroke:none;fill-rule:nonzero;fill:#fff;fill-opacity:1"/></g></g><g clip-path="url(#F)"><g clip-path="url(#G)"><path d="M50.043 50.414c-.3.031-.566.023-.848-.008-.011-.648-.027-1.281-.039-1.93h-.691c-.004.07-.012.141-.012.208-.008.484-.008.968-.016 1.453 0 .082-.011.168-.019.258h-.863v-.266q.001-2.023-.004-4.05c0-.31-.02-.622-.008-.934.016-.532.34-.938.84-1.047.41-.09.84-.086 1.215.18.277.195.41.456.414.792.008 1.352.02 2.7.027 4.051q.005.529.004 1.05zm-.918-2.582c.047-.312.035-2.992-.016-3.14-.218 0-.445-.016-.668.003-.043.293 0 2.996.051 3.137Zm0 0" style="stroke:none;fill-rule:nonzero;fill:#fff;fill-opacity:1"/></g></g><g clip-path="url(#H)"><g clip-path="url(#I)"><path d="M37.21 55.281c.106.168.196.32.298.469a.54.54 0 0 1 .09.297v2.582c0 .062-.016.125-.024.187-.379-.043-.851-.433-.847-.949.007-.66-.004-1.324-.008-1.984v-.258c-.23-.035-.446-.012-.684-.012-.004.086-.012.16-.012.239-.003.765-.003 1.535-.007 2.3 0 .086-.008.168-.012.266h-.816c-.008-.094-.02-.176-.02-.262-.004-.8-.004-1.601-.008-2.402-.004-1.11-.015-2.223-.023-3.332 0-.09.011-.18.02-.27.046-.007.07-.02.097-.02q.622-.024 1.25-.038c.488-.008.789.285 1.02.672.042.07.05.164.05.25q.019.754.02 1.507c0 .094-.04.196-.082.278-.09.16-.196.312-.301.48m-.461-.336V53c0-.309.02-.29-.293-.285-.14.004-.289-.024-.418.043-.039.277-.023 2.039.02 2.187Zm0 0" style="stroke:none;fill-rule:nonzero;fill:#fff;fill-opacity:1"/></g></g><g clip-path="url(#J)"><g clip-path="url(#K)"><path d="M38 47.195c0 .7.004 1.403-.004 2.102 0 .39-.164.707-.48.93a.8.8 0 0 1-.344.136c-.168.032-.344.024-.512.035-.453.04-.77-.171-1.02-.527a.85.85 0 0 1-.144-.508c0-1.207.008-2.418.016-3.629 0-.254-.008-.504.004-.754.03-.523.41-.914.914-.957q.129-.011.258-.02c.48-.03.867.134 1.132.544.098.148.153.32.157.504.007.715.023 1.43.035 2.144zm-1.613-2.53v5.077c.246.024.472.024.715-.008-.012-1.703-.02-3.382-.032-5.07Zm0 0" style="stroke:none;fill-rule:nonzero;fill:#fff;fill-opacity:1"/></g></g><g clip-path="url(#L)"><g clip-path="url(#M)"><path d="M58.34 56.57h-.656c-.008.078-.016.149-.016.22-.004.468-.004.937-.008 1.41-.004.081-.015.167-.023.26h-.797a2 2 0 0 1-.028-.128c-.003-.02 0-.039 0-.059-.007-1.687-.019-3.378-.023-5.066 0-.453.281-.86.691-1.016.043-.02.09-.039.133-.039.301-.011.606-.054.903.047.386.133.707.531.707.938v5.183c0 .051-.008.106-.016.164-.172.051-.344.02-.516.02-.343 0-.32.012-.324-.324l-.012-1.371c0-.07-.007-.145-.015-.239m-.664-3.789c-.051.192-.047 2.946.004 3.125.218.008.445.032.68-.008v-1.054c-.005-.352 0-.703-.012-1.055-.012-.34.02-.68-.035-1.043z" style="stroke:none;fill-rule:nonzero;fill:#fff;fill-opacity:1"/></g></g><g clip-path="url(#N)"><g clip-path="url(#O)"><path d="M58.73 47.316c0 .715.008 1.43-.003 2.145-.004.45-.235.762-.641.945-.023.012-.047.028-.074.028-.34-.008-.676.078-1.024-.02-.363-.098-.734-.625-.73-.988.015-1.403.008-2.805 0-4.207-.004-.414.18-.723.496-.961a.5.5 0 0 1 .215-.106c.379-.054.765-.097 1.133.043a.8.8 0 0 1 .316.23c.195.231.332.49.328.81-.012.695-.004 1.39-.004 2.081zm-1.554-2.574c-.043.2-.028 4.918.015 5.078.211.004.422.032.633 0 .043-.226.028-4.922-.015-5.078Zm0 0" style="stroke:none;fill-rule:nonzero;fill:#fff;fill-opacity:1"/></g></g><g clip-path="url(#P)"><g clip-path="url(#Q)"><path d="M54.734 58.457a3.5 3.5 0 0 1-.8.04c-.063-.192-.063-6.177 0-6.364.05-.004.109-.012.168-.012h1.132c.352 0 .645.125.856.414.152.203.215.438.215.688q.006.567 0 1.132.001 1.518-.004 3.036c0 .304-.008.609-.012.914 0 .05-.008.101-.016.164-.27.043-.527.039-.812.015-.043-1.914-.008-3.808-.043-5.718h-.668c-.023.234-.008.472-.012.707-.004.238 0 .476 0 .715q.001.357-.004.714v3.555" style="stroke:none;fill-rule:nonzero;fill:#fff;fill-opacity:1"/></g></g><g clip-path="url(#R)"><g clip-path="url(#S)"><path d="M62.156 50.477a7 7 0 0 1-.847-.016c-.008-1.914-.016-3.8-.028-5.703-.222-.047-.426-.028-.629-.02-.023 0-.062.051-.066.082-.016.059-.008.117-.008.18q-.013 2.578-.02 5.16c-.003.098-.011.192-.019.309-.281.015-.539.02-.812-.004v-6.293c.035-.012.066-.027.097-.027l1.149-.036c.238-.007.465.047.672.149.109.054.214.14.285.238.133.18.234.371.234.617-.004 1.711 0 3.426 0 5.14 0 .063-.004.13-.008.224" style="stroke:none;fill-rule:nonzero;fill:#fff;fill-opacity:1"/></g></g><g clip-path="url(#T)"><g clip-path="url(#U)"><path d="M38.105 55.234v-2.12c0-.56.48-1.032 1.04-1.024.117 0 .238-.004.355.008.629.074.988.43 1 1.05.023 1.442.012 2.883.008 4.325 0 .422-.274.87-.754.972-.145.032-.3.024-.453.024-.176 0-.348-.008-.528-.059-.386-.113-.707-.64-.695-1.031.016-.715.004-1.43.004-2.145zm1.543 2.61c.012-1.711-.015-3.395-.027-5.082h-.644c-.043.218-.028 4.918.02 5.07.046.004.097.012.151.012z" style="stroke:none;fill-rule:nonzero;fill:#fff;fill-opacity:1"/></g></g><g clip-path="url(#V)"><g clip-path="url(#W)"><path d="M53.367 55.32q-.001 1.083.004 2.164c0 .29-.113.54-.312.727-.16.152-.364.27-.598.277a4.5 4.5 0 0 1-.652-.023c-.364-.043-.73-.39-.809-.754a2 2 0 0 1-.047-.39c.004-1.395.008-2.79.02-4.188.004-.496.289-.828.746-.98a.4.4 0 0 1 .136-.02c.153-.008.305-.024.454-.02.593.008 1.082.492 1.074 1.028-.012.726-.004 1.453-.004 2.18Zm-.863 2.524c.043-.336.027-4.934-.016-5.082h-.656c-.008.078-.016.14-.016.207q.001 2.338.008 4.68c0 .062.012.128.02.195Zm0 0" style="stroke:none;fill-rule:nonzero;fill:#fff;fill-opacity:1"/></g></g><g clip-path="url(#X)"><g clip-path="url(#Y)"><path d="M46.23 52.129c0 .687.004 1.34-.011 2h-.809c-.047-.223-.027-.453-.035-.684-.004-.222 0-.445 0-.687-.242 0-.465-.035-.695.043v2.207h.746c.011.195.023.363.035.535-.254.094-.504.035-.734.074-.051.153-.07 1.856-.028 2.223.211.039.422.012.664.008.02-.465.004-.922.012-1.375.04-.012.063-.032.086-.032.203.004.41.012.613.016.094.004.153.035.153.14-.004.61-.004 1.215-.008 1.825 0 .02-.016.035-.028.07-.043.004-.093.02-.144.02-.39-.004-.781.004-1.172-.008-.406-.016-.75-.164-.945-.543-.059-.117-.078-.25-.102-.379-.016-.082-.012-.172-.012-.258.004-1.383.012-2.765.004-4.148a1.02 1.02 0 0 1 1.051-1.051q.551.005 1.11.004z" style="stroke:none;fill-rule:nonzero;fill:#fff;fill-opacity:1"/></g></g><g clip-path="url(#Z)"><g clip-path="url(#aa)"><path d="M33.098 56.516c-.02.648-.008 1.265-.02 1.902h-.824c-.008-.066-.02-.137-.02-.203v-4.98c0-.337.118-.622.325-.872.136-.172.34-.238.543-.254.238-.015.476-.015.71.02.477.074.86.465.852.984-.008.782.02 1.563 0 2.344-.008.441-.258.766-.644.973-.083.043-.192.047-.29.054-.195.016-.394.02-.632.032m.035-3.758v3.09h.664c.008-.055.016-.094.016-.133l-.024-2.793c0-.031.004-.07-.012-.098-.02-.035-.054-.082-.086-.086-.183-.011-.367-.027-.558.02" style="stroke:none;fill-rule:nonzero;fill:#fff;fill-opacity:1"/></g></g><g clip-path="url(#ab)"><g clip-path="url(#ac)"><path d="M51.813 49.777h.667c0-.226.004-.449.004-.672v-.671c.286-.063.559-.028.848-.043.012.101.027.183.027.265q.012.358.012.715c0 .406-.195.703-.531.914a.74.74 0 0 1-.426.133c-.23-.004-.465.016-.691-.012-.317-.035-.547-.218-.688-.504a1.25 1.25 0 0 1-.144-.57c.004-1.375.011-2.754 0-4.129-.004-.371.117-.656.386-.89.168-.145.356-.25.59-.243.215.012.438.008.653.035a.97.97 0 0 1 .828.942q.011.416.02.832c.003.066-.005.129-.013.219-.277.027-.546.011-.84.015-.042-.472-.003-.933-.038-1.422a5 5 0 0 0-.657-.004c-.054.16-.062 4.754-.008 5.09" style="stroke:none;fill-rule:nonzero;fill:#fff;fill-opacity:1"/></g></g><g clip-path="url(#ad)"><g clip-path="url(#ae)"><path d="M49.078 52.137v1.215c-.27.05-.527.023-.808.03-.016-.214-.028-.413-.043-.628h-.582c-.063.004-.094.043-.098.105v.098q-.001.916.004 1.824c0 .059.008.117.015.203q.222-.001.418.004c.407.012.735.176.957.512a.95.95 0 0 1 .145.445c.023.48 0 .965.031 1.446.04.562-.558 1.125-1.078 1.086-.383-.024-.766-.008-1.152-.012-.192 0-.2-.008-.2-.203q-.004-.417-.003-.832c0-.051.011-.106.015-.168h.817c.011.191.02.375.03.574h.653c.047-.133.063-1.93.02-2.2-.149-.05-.309-.019-.465-.03-.11-.012-.223-.02-.332-.047-.39-.09-.746-.524-.738-.989.007-.48-.004-.965 0-1.449.007-.367.175-.633.5-.82.218-.125.445-.184.699-.176.328.008.66 0 .992 0 .063 0 .125.008.203.012" style="stroke:none;fill-rule:nonzero;fill:#fff;fill-opacity:1"/></g></g><g clip-path="url(#af)"><g clip-path="url(#ag)"><path d="M34.66 46.066h-.82c-.055-.136-.02-.289-.024-.437-.007-.149-.004-.3-.004-.453v-.485c-.23-.007-.453-.02-.683-.027-.008.074-.02.129-.02.188 0 .609-.004 1.218-.004 1.824 0 .222.016.234.239.242.164.004.328 0 .511 0v.621q-.344.007-.73.02c-.008.093-.016.168-.016.246l.012 2.3q.001.092-.004.18c0 .07-.039.113-.11.113h-.784c-.008-.09-.016-.164-.016-.242q.007-2.581.02-5.164c0-.207.101-.387.226-.535.215-.266.496-.43.856-.43q.615-.001 1.23.004c.137 0 .164.02.164.14 0 .595-.008 1.192-.012 1.786 0 .031-.015.063-.03.11" style="stroke:none;fill-rule:nonzero;fill:#fff;fill-opacity:1"/></g></g><g clip-path="url(#ah)"><g clip-path="url(#ai)"><path d="M42.512 52.758h-.617c-.043.148-.055 1.941-.012 2.222l.722.036v.586c-.242.007-.484.011-.746.02v2.843c-.293.039-.558.035-.855.015v-.25q-.005-1.223-.004-2.44c-.004-.837-.012-1.669-.02-2.505-.003-.265.051-.512.22-.726.202-.262.456-.434.804-.43.383 0 .766-.004 1.148-.004h.22c.007.082.023.152.023.223q.006.801.007 1.609c0 .188-.015.203-.199.211-.16.004-.32.008-.476.004-.153-.004-.168-.02-.172-.176-.008-.344-.012-.687-.02-1.031-.004-.067-.015-.13-.023-.207" style="stroke:none;fill-rule:nonzero;fill:#fff;fill-opacity:1"/></g></g><g clip-path="url(#aj)"><g clip-path="url(#ak)"><path d="M59.766 52.148c.078-.007.14-.015.203-.015.168-.004.332 0 .496 0 .097-.004.148.039.144.14v.18q.005 2.606.004 5.219v.246c.239-.016.453-.027.692-.04.015-.218.03-.425.05-.655.266-.004.524-.047.793-.028V58.5c-.078.004-.148.012-.218.012h-1.11c-.277.004-.527-.063-.722-.266-.2-.2-.348-.426-.344-.726v-5.18c0-.059.008-.117.012-.192" style="stroke:none;fill-rule:nonzero;fill:#fff;fill-opacity:1"/></g></g><g clip-path="url(#al)"><g clip-path="url(#am)"><path d="M54.387 44.105c.058-.011.097-.023.136-.023.23.004.461.016.688.023.047.149.062 6.036.016 6.305-.051.008-.11.024-.168.024q-.258.007-.516.004c-.16 0-.176-.016-.18-.184-.004-.027 0-.055 0-.078.004-1.895.004-3.785.008-5.676.004-.129.012-.262.016-.395" style="stroke:none;fill-rule:nonzero;fill:#fff;fill-opacity:1"/></g></g><g clip-path="url(#an)"><g clip-path="url(#ao)"><path d="M49.64 52.137h.797c.047.16.063 6.101.012 6.328h-.808Zm0 0" style="stroke:none;fill-rule:nonzero;fill:#fff;fill-opacity:1"/></g></g><g clip-path="url(#ap)"><g clip-path="url(#aq)"><path d="M22.945 45.797H20.07c-.004-.055-.015-.106-.015-.156.011-.688.02-1.375.039-2.063.011-.375.133-.715.394-.992.395-.41.883-.488 1.407-.356.511.13.824.48.953.993.097.39.093.797.109 1.199.016.406.008.808.004 1.21 0 .052-.012.102-.016.165" style="stroke:none;fill-rule:nonzero;fill:#0d9e4e;fill-opacity:1"/></g></g><g clip-path="url(#ar)"><g clip-path="url(#as)"><path d="M25.531 14.418c.242.039.489.059.719.125.563.164.922.61.96 1.187.04.567-.23 1.047-.737 1.325-.266.144-.559.195-.86.207-.402.02-.77-.067-1.117-.274a1.19 1.19 0 0 1-.586-.96c-.094-1.024.688-1.548 1.38-1.579h.237q.005-.016.004-.031" style="stroke:none;fill-rule:nonzero;fill:#0d9e4e;fill-opacity:1"/></g></g><g clip-path="url(#at)"><g clip-path="url(#au)"><path d="M22.293 15.875c-.031.164-.043.328-.094.484a.97.97 0 0 1-.633.637c-.3.106-.605.125-.914.035-.593-.168-.882-.676-.824-1.3.05-.543.352-.895.832-1.016.3-.078.602-.07.895.039.406.152.636.453.703.883.012.078.012.156.02.234q.004.005.015.004" style="stroke:none;fill-rule:nonzero;fill:#0d9e4e;fill-opacity:1"/></g></g><g clip-path="url(#av)"><g clip-path="url(#aw)"><path d="M58.973 62.793c.265.71.53 1.422.812 2.172-.555.004-1.078 0-1.637 0a38 38 0 0 1 .825-2.172" style="stroke:none;fill-rule:nonzero;fill:#0d9e4e;fill-opacity:1"/></g></g><g clip-path="url(#ax)"><g clip-path="url(#ay)"><path d="M49.258 64.953h-1.633c.266-.73.523-1.441.785-2.152q.017-.005.04-.004c.265.71.534 1.422.808 2.156" style="stroke:none;fill-rule:nonzero;fill:#0d9e4e;fill-opacity:1"/></g></g><g clip-path="url(#az)"><g clip-path="url(#aA)"><path d="M20.703 23.434c-.21-.032-.469-.047-.715-.114-.406-.105-.64-.418-.644-.804-.008-.375.234-.696.62-.828.25-.083.509-.094.766-.094.305 0 .61.008.899.125.476.191.687.715.465 1.16-.149.289-.407.43-.711.484-.207.035-.422.047-.68.07" style="stroke:none;fill-rule:nonzero;fill:#0d9e4e;fill-opacity:1"/></g></g><g clip-path="url(#aB)"><g clip-path="url(#aC)"><path d="M39.79 44.652h.71c.008.067.02.13.02.192v1.824c0 .203-.008.21-.215.215h-.5c-.008-.07-.02-.133-.02-.196q-.012-.937-.02-1.882c0-.043.012-.09.024-.153" style="stroke:none;fill-rule:nonzero;fill:#0d9e4e;fill-opacity:1"/></g></g><g clip-path="url(#aD)"><g clip-path="url(#aE)"><path d="M49.125 47.832h-.633c-.05-.14-.094-2.844-.05-3.137.222-.02.449-.004.667-.004.051.149.063 2.829.016 3.141" style="stroke:none;fill-rule:nonzero;fill:#0d9e4e;fill-opacity:1"/></g></g><g clip-path="url(#aF)"><g clip-path="url(#aG)"><path d="M36.75 54.945h-.691c-.043-.148-.059-1.91-.02-2.187.129-.067.277-.04.418-.043.313-.004.293-.024.293.285v1.945" style="stroke:none;fill-rule:nonzero;fill:#0d9e4e;fill-opacity:1"/></g></g><g clip-path="url(#aH)"><g clip-path="url(#aI)"><path d="M36.387 44.664h.683c.012 1.688.02 3.367.032 5.07a3 3 0 0 1-.715.008Zm0 0" style="stroke:none;fill-rule:nonzero;fill:#0d9e4e;fill-opacity:1"/></g></g><g clip-path="url(#aJ)"><g clip-path="url(#aK)"><path d="m57.676 52.781.636-.035c.055.363.024.703.036 1.043.011.352.007.703.011 1.055v1.054c-.234.04-.46.016-.68.008-.05-.18-.054-2.933-.003-3.125" style="stroke:none;fill-rule:nonzero;fill:#0d9e4e;fill-opacity:1"/></g></g><g clip-path="url(#aL)"><g clip-path="url(#aM)"><path d="M57.176 44.742h.633c.043.156.058 4.852.015 5.078-.21.032-.422.004-.633 0-.043-.16-.058-4.879-.015-5.078" style="stroke:none;fill-rule:nonzero;fill:#0d9e4e;fill-opacity:1"/></g></g><g clip-path="url(#aN)"><g clip-path="url(#aO)"><path d="M39.648 57.844h-.5c-.054 0-.105-.008-.152-.012-.047-.152-.062-4.852-.02-5.07h.645c.012 1.687.04 3.37.027 5.082" style="stroke:none;fill-rule:nonzero;fill:#0d9e4e;fill-opacity:1"/></g></g><g clip-path="url(#aP)"><g clip-path="url(#aQ)"><path d="M52.504 57.844h-.66c-.008-.067-.02-.133-.02-.196q-.007-2.338-.008-4.68c0-.066.008-.128.016-.206h.656c.043.148.059 4.746.016 5.082" style="stroke:none;fill-rule:nonzero;fill:#0d9e4e;fill-opacity:1"/></g></g><g clip-path="url(#aR)"><g clip-path="url(#aS)"><path d="M33.133 52.758c.191-.047.375-.031.558-.02.032.004.067.051.086.086.016.028.012.067.012.098l.023 2.793c0 .039-.007.078-.015.133h-.664Zm0 0" style="stroke:none;fill-rule:nonzero;fill:#0d9e4e;fill-opacity:1"/></g></g></svg>